{"glyphs":{"0":{"ha":999,"x_min":41,"x_max":945,"o":"m 346 994 l 368 994 q 888 768 656 994 q 945 621 945 690 l 945 599 q 685 136 945 362 q 391 -45 507 -35 l 357 -45 q 75 226 166 -45 l 41 418 l 52 440 l 52 508 q 256 915 52 709 q 323 983 323 922 l 346 994 m 391 881 l 391 813 q 233 633 368 813 q 188 395 188 500 q 334 102 215 102 l 380 102 q 809 576 724 321 l 809 621 q 391 881 809 765 z "},"1":{"ha":287,"x_min":41,"x_max":233,"o":"m 109 1276 l 154 1276 q 222 1152 222 1234 l 222 1073 q 233 745 222 946 l 222 723 q 233 711 222 711 q 188 79 222 689 q 120 56 151 56 l 109 56 q 41 214 60 56 q 97 825 63 340 l 86 926 q 97 1242 97 1122 q 109 1276 109 1265 z "},"2":{"ha":1067,"x_min":41,"x_max":1013,"o":"m 290 1220 q 323 1208 301 1220 q 414 1220 385 1220 q 707 1028 580 1220 l 719 949 q 334 406 719 675 l 346 384 q 956 463 740 463 q 1013 372 1013 419 q 617 294 1013 335 q 357 248 446 248 l 222 248 q 41 372 41 270 q 300 553 53 399 q 425 689 300 568 q 583 915 518 793 l 572 937 q 583 971 583 960 q 414 1096 583 1074 l 357 1096 q 199 1062 246 1062 q 142 1164 142 1062 l 142 1175 q 290 1220 250 1220 z "},"3":{"ha":829,"x_min":41,"x_max":775,"o":"m 199 1198 l 222 1186 q 357 1198 301 1198 q 515 1164 381 1178 q 617 994 617 1098 q 481 689 617 858 l 481 677 q 775 440 688 677 l 775 418 q 606 146 775 300 q 222 0 408 0 q 75 113 124 32 l 75 169 l 86 169 q 233 136 141 136 q 549 316 354 136 q 628 474 628 400 q 436 553 628 531 q 290 497 331 534 l 244 497 q 176 542 188 497 q 188 553 188 542 q 165 576 165 553 l 165 587 q 290 689 165 599 q 448 859 290 764 l 458 859 l 448 915 l 481 1028 q 346 1084 481 1076 q 131 994 282 1084 l 86 994 q 41 1084 54 994 l 199 1198 z "},"4":{"ha":1168,"x_min":41,"x_max":1114,"o":"m 515 1164 l 538 1152 q 583 1164 557 1164 q 651 1107 651 1120 q 640 1050 640 1093 q 662 994 662 1050 l 662 791 l 673 711 l 696 711 q 753 734 753 711 l 775 723 q 809 734 797 734 l 831 723 q 899 745 869 745 l 922 734 q 990 768 922 749 l 1035 745 q 1057 768 1038 768 q 1103 723 1057 752 q 1114 689 1114 701 q 775 587 1059 633 q 673 531 673 554 q 696 304 685 304 q 685 271 685 283 q 696 260 696 271 l 685 260 l 696 237 l 696 146 q 707 -12 707 53 l 673 -45 l 651 -45 q 538 304 538 -45 q 526 508 538 401 l 515 508 q 290 474 351 474 l 233 474 q 41 576 78 474 l 41 610 q 176 825 41 675 q 244 915 244 873 q 357 1017 327 1017 q 515 1164 357 1078 m 222 633 l 222 610 q 526 677 315 610 l 526 689 q 515 779 526 736 q 526 949 526 878 l 526 994 q 222 633 362 846 z "},"5":{"ha":1033,"x_min":41,"x_max":979,"o":"m 199 1062 l 210 1062 q 300 1028 294 1062 l 300 960 l 290 937 q 300 926 300 937 q 368 960 368 949 l 391 949 q 492 971 419 949 l 526 971 l 526 983 l 549 983 l 628 994 q 651 971 632 971 q 719 983 710 983 q 753 960 753 971 l 775 971 l 831 971 q 979 903 862 971 q 956 847 979 847 q 809 869 809 852 l 753 859 l 651 859 q 244 768 513 859 q 233 565 233 610 q 436 418 233 418 q 448 429 448 418 q 787 304 787 429 q 323 22 614 73 l 312 22 q 290 45 290 22 l 290 68 l 312 102 q 300 113 300 102 q 380 180 380 119 q 436 214 425 180 q 526 282 526 250 l 470 282 q 131 463 215 282 q 97 711 97 573 q 109 723 109 711 q 41 768 41 746 l 41 836 l 63 869 q 75 859 75 869 q 176 1017 176 859 q 199 1062 199 1044 z "},"6":{"ha":660,"x_min":41,"x_max":606,"o":"m 290 1220 q 380 1130 380 1160 l 380 1118 q 256 565 256 699 l 267 565 q 290 542 290 565 l 312 542 q 380 587 312 587 q 436 553 436 565 l 458 565 l 492 565 q 606 418 606 501 l 606 372 q 334 -12 587 81 q 256 -23 290 -23 q 86 316 86 44 l 86 372 q 41 395 86 395 q 120 644 97 524 q 267 1198 165 977 q 290 1220 270 1220 m 233 406 l 233 350 q 256 124 233 237 l 267 124 q 470 372 391 124 l 470 418 q 436 452 470 434 l 414 452 q 233 406 233 437 z "},"7":{"ha":716,"x_min":41,"x_max":662,"o":"m 97 1084 q 210 994 188 1084 l 199 937 l 222 926 l 244 937 q 278 926 266 926 q 526 994 278 955 l 549 1017 q 662 926 591 1017 l 662 892 q 560 361 662 722 q 436 -181 436 9 l 436 -193 q 391 -237 436 -210 l 368 -237 q 290 -147 290 -237 l 290 -91 q 312 34 290 -11 l 300 34 q 515 825 458 566 l 515 859 q 199 723 199 805 q 188 633 188 642 q 233 384 222 384 q 222 328 222 365 l 165 328 q 41 847 61 328 l 86 1073 q 97 1084 86 1084 z "},"8":{"ha":965,"x_min":41,"x_max":911,"o":"m 572 1107 q 628 1073 572 1088 q 640 1084 628 1084 q 730 903 730 1004 q 560 587 681 696 q 526 553 544 587 q 673 508 671 553 l 696 519 q 911 169 911 397 q 526 -193 911 25 q 334 -237 399 -237 q 52 0 123 -237 q 41 113 52 14 l 52 136 q 41 180 41 155 q 154 486 59 339 q 63 757 63 552 q 188 1028 63 854 q 267 1096 235 1089 q 312 1050 267 1078 l 346 1050 q 572 1107 409 1107 m 199 644 q 256 599 210 599 q 538 757 376 599 q 594 915 594 862 l 594 926 l 583 983 l 549 983 q 199 644 199 934 m 312 406 q 300 418 312 418 q 188 45 188 317 l 188 22 q 267 -91 218 -91 l 312 -91 q 764 180 538 -91 l 775 248 q 458 429 743 429 l 312 406 z "},"9":{"ha":671,"x_min":41,"x_max":617,"o":"m 300 983 q 617 791 425 971 q 515 146 560 382 l 526 146 q 481 -159 507 115 l 481 -249 q 492 -260 481 -260 q 448 -317 471 -312 l 368 -317 q 334 -260 368 -297 l 334 -159 q 414 452 334 -3 q 256 395 379 418 q 41 599 41 426 l 41 677 q 131 859 41 761 q 300 983 195 983 m 176 576 q 244 542 188 542 q 458 757 355 542 q 334 859 439 821 q 176 621 245 859 l 176 576 z "}," ":{"ha":488,"x_min":0,"x_max":0,"o":""},"!":{"ha":468,"x_min":41,"x_max":414,"o":"m 188 994 q 267 892 267 968 l 267 847 l 222 429 l 222 372 l 210 316 l 199 316 q 97 474 104 316 q 165 983 144 983 q 188 994 188 983 m 244 79 l 256 79 q 414 -79 414 79 q 233 -260 326 -260 q 188 -283 233 -274 q 41 -79 41 -252 q 86 11 41 -7 q 244 79 86 79 m 154 -34 l 154 -125 q 176 -147 157 -147 q 278 -23 278 -90 l 267 -23 q 154 -34 252 -23 z "},"\"":{"ha":479,"x_min":41,"x_max":425,"o":"m 300 1220 l 346 1220 q 425 892 425 1220 q 391 859 425 876 l 380 859 q 267 1198 267 859 l 300 1220 m 75 1198 l 120 1198 q 188 915 179 1198 q 120 892 151 892 l 109 892 q 41 1141 41 988 l 41 1164 q 75 1198 41 1180 z "},"#":{"ha":897,"x_min":41,"x_max":843,"o":"m 323 1028 q 414 892 414 1013 l 414 734 q 572 768 435 745 l 572 949 q 594 971 575 971 q 707 791 707 971 l 730 802 q 843 689 843 802 q 707 644 795 661 l 707 440 q 798 361 798 440 l 798 338 q 707 294 798 321 q 696 248 696 274 l 696 214 q 707 -34 696 136 l 673 -57 l 628 -57 q 560 169 560 -10 l 560 282 q 402 226 402 263 q 425 -113 402 149 q 357 -136 378 -136 q 278 136 278 -82 l 278 214 q 244 237 278 237 q 109 226 226 237 q 41 294 70 235 l 41 350 q 267 372 232 372 l 267 587 l 233 587 q 142 689 142 599 l 142 723 l 222 723 q 233 734 233 723 l 256 723 q 278 745 278 723 l 278 892 q 323 1028 278 1028 m 402 576 l 402 406 l 414 406 q 572 452 572 406 q 583 542 583 496 l 583 621 q 402 576 402 602 z "},"$":{"ha":739,"x_min":41,"x_max":685,"o":"m 481 1198 q 538 1118 538 1163 l 538 903 q 651 802 651 884 l 651 779 l 572 779 l 549 791 l 549 486 q 651 406 549 406 q 685 350 651 387 l 685 316 q 572 226 615 226 l 572 11 l 583 -125 q 504 -170 532 -170 q 414 -45 440 -170 l 425 -23 l 425 -12 q 414 0 425 0 l 425 22 l 425 113 l 414 136 q 300 102 355 102 l 233 102 q 120 169 144 102 q 131 203 131 191 l 233 203 q 402 282 384 242 l 402 361 q 41 621 170 361 l 41 667 q 402 926 41 838 l 402 1164 q 481 1198 402 1190 m 188 667 q 402 474 188 532 l 402 802 l 391 802 q 188 677 284 802 l 188 667 z "},"%":{"ha":875,"x_min":41,"x_max":821,"o":"m 515 960 q 572 892 572 928 q 414 79 572 835 q 368 -113 398 -113 l 312 -113 q 256 -23 256 -82 q 380 599 290 254 q 458 960 425 841 l 515 960 m 41 587 l 86 587 q 222 497 146 587 q 188 463 222 481 l 165 463 q 41 542 99 463 l 41 587 m 764 361 l 821 294 l 821 271 q 798 248 821 248 l 753 248 q 707 271 725 271 l 707 328 q 764 361 707 353 z "},"&":{"ha":739,"x_min":41,"x_max":685,"o":"m 244 847 l 323 825 q 334 836 323 836 q 515 576 490 739 l 515 452 q 402 192 515 302 q 673 -12 666 30 q 685 -45 673 -24 l 651 -68 l 594 -68 q 538 -34 557 -34 q 233 -136 298 -136 l 188 -136 q 41 -68 119 -136 l 41 22 q 222 180 41 49 l 222 226 q 75 519 149 226 l 75 633 q 244 847 75 805 m 256 734 q 176 553 191 651 l 176 542 q 300 271 212 333 q 414 429 414 355 l 414 531 q 256 734 414 734 m 300 113 q 165 -23 165 -14 l 165 -34 l 188 -34 q 436 56 398 5 q 300 113 334 113 z "},"'":{"ha":298,"x_min":41,"x_max":244,"o":"m 75 1208 l 120 1208 q 244 937 202 1154 q 222 915 244 915 l 210 915 q 86 1028 86 930 q 41 1152 58 1065 q 75 1208 55 1208 z "},"(":{"ha":626,"x_min":41,"x_max":572,"o":"m 346 689 l 368 689 q 414 633 368 673 l 414 599 q 278 418 278 449 q 188 169 188 288 l 188 68 q 380 -339 188 -195 l 425 -351 q 515 -328 466 -328 l 538 -328 q 572 -362 554 -328 l 560 -362 l 572 -385 q 470 -475 572 -446 q 436 -464 448 -464 l 436 -475 q 120 -215 253 -475 q 41 79 63 -106 l 52 102 l 52 237 q 300 677 52 438 q 346 689 320 689 z "},")":{"ha":570,"x_min":41,"x_max":515,"o":"m 63 949 l 86 949 q 346 757 146 949 q 515 372 515 549 l 515 338 q 368 -125 515 90 q 222 -249 287 -249 q 210 -260 222 -260 q 120 -193 120 -214 q 278 22 167 -178 q 380 384 380 210 l 380 406 q 52 869 380 613 l 41 937 l 63 949 z "},"*":{"ha":943,"x_min":41,"x_max":888,"o":"m 414 937 l 448 937 q 526 802 526 907 l 526 734 l 549 734 q 707 892 635 892 q 775 836 754 877 l 775 825 q 685 655 775 770 l 685 644 q 730 667 730 652 q 843 610 843 641 l 843 587 q 560 508 843 551 l 549 486 q 877 169 771 252 l 888 113 l 854 90 q 549 304 747 90 l 549 169 q 560 -102 549 57 q 504 -170 545 -170 q 402 56 402 -170 l 402 271 q 256 22 367 259 q 210 0 238 22 q 131 34 142 34 l 131 56 l 176 180 q 312 440 176 218 q 334 452 312 452 l 334 463 l 278 463 l 256 452 l 256 463 l 142 440 q 41 519 56 469 q 290 576 41 567 q 154 791 154 745 l 154 813 q 188 825 165 813 q 380 667 252 825 l 391 667 l 391 689 q 380 915 391 762 l 414 937 z "},"+":{"ha":1033,"x_min":41,"x_max":979,"o":"m 425 869 l 470 869 q 560 667 531 869 l 549 644 q 560 633 549 633 q 549 621 560 621 l 560 565 l 560 519 q 911 576 748 565 q 979 486 942 572 q 787 418 979 436 q 572 361 572 380 l 572 350 q 583 338 572 338 q 572 328 583 328 q 640 -181 640 -89 l 628 -181 q 583 -193 608 -193 l 538 -193 q 436 316 467 -193 q 425 328 425 316 q 142 316 238 316 l 97 316 q 41 384 56 337 q 86 440 52 440 q 391 486 269 440 q 402 474 391 474 q 414 486 402 486 q 402 734 402 655 l 402 847 q 425 869 406 869 z "},",":{"ha":400,"x_min":41,"x_max":346,"o":"m 256 146 q 346 79 330 116 l 346 22 q 120 -249 268 -155 q 41 -170 89 -249 l 41 -147 q 222 136 127 -56 q 256 146 243 146 z "},"-":{"ha":558,"x_min":41,"x_max":504,"o":"m 436 486 q 504 372 484 486 q 290 328 449 328 q 131 304 290 313 q 41 372 56 328 l 41 406 q 97 452 45 430 q 109 440 109 452 l 436 486 z "},".":{"ha":242,"x_min":41,"x_max":188,"o":"m 86 34 q 188 -34 145 34 l 188 -79 q 154 -113 188 -96 l 97 -113 q 41 0 69 -113 l 86 34 z "},"/":{"ha":841,"x_min":41,"x_max":787,"o":"m 685 1208 l 707 1208 q 787 1141 787 1155 l 787 1130 q 685 892 787 1069 q 210 -193 412 376 q 154 -283 210 -249 l 109 -283 q 41 -203 88 -283 q 256 350 50 -58 q 368 587 256 389 q 640 1152 395 677 q 685 1208 661 1204 z "},":":{"ha":344,"x_min":41,"x_max":290,"o":"m 75 1028 l 120 1028 q 199 937 162 1002 l 199 926 q 142 881 198 911 l 131 881 l 131 903 l 120 903 q 109 892 109 903 q 41 971 41 922 q 75 1028 55 1028 m 188 372 q 290 90 252 372 q 267 68 290 68 l 256 68 q 97 328 136 68 q 188 372 104 372 z "},";":{"ha":378,"x_min":41,"x_max":323,"o":"m 142 983 q 312 892 312 983 l 312 859 l 142 825 q 41 926 41 849 q 142 983 41 971 m 199 452 l 244 452 q 323 328 323 391 l 323 158 q 210 -294 287 -294 q 109 -193 109 -276 l 165 90 l 154 90 l 165 113 l 165 418 q 199 452 165 434 z "},"<":{"ha":728,"x_min":41,"x_max":673,"o":"m 583 1164 l 617 1164 q 673 1050 673 1138 l 673 1039 q 188 610 284 722 q 492 79 188 550 q 538 -34 518 48 q 470 -79 526 -79 q 256 226 406 -79 q 41 689 41 496 q 458 1062 205 888 q 583 1164 486 1100 z "},"=":{"ha":977,"x_min":41,"x_max":922,"o":"m 809 677 l 831 677 q 888 576 888 630 q 368 486 699 486 q 165 576 165 486 l 165 633 q 199 644 177 633 q 391 633 353 633 q 809 677 456 633 m 843 214 q 922 124 882 214 q 831 68 901 68 l 673 68 q 165 0 257 0 q 41 79 64 0 q 323 158 41 138 q 843 214 576 214 z "},">":{"ha":637,"x_min":41,"x_max":583,"o":"m 97 1152 q 515 903 294 1000 q 583 859 560 859 l 583 802 q 300 304 583 667 q 165 45 249 237 q 120 34 125 34 q 41 136 61 34 q 290 553 74 277 q 414 779 414 728 l 414 791 q 97 983 189 890 q 52 1017 69 1017 l 52 1130 q 97 1152 97 1130 z "},"?":{"ha":536,"x_min":41,"x_max":481,"o":"m 267 1062 l 334 1062 q 481 915 481 1021 l 481 847 q 244 508 457 739 l 244 486 q 323 294 281 352 l 323 260 l 256 226 q 109 429 171 245 q 97 542 109 539 q 334 937 325 846 l 323 937 q 142 881 268 937 q 41 949 66 901 l 41 983 q 267 1062 144 1062 m 357 102 l 368 102 q 458 11 426 76 q 402 -57 448 -39 q 290 45 350 -57 q 357 102 296 102 z "},"@":{"ha":1383,"x_min":41,"x_max":1329,"o":"m 707 994 q 1080 859 863 971 q 1329 361 1329 655 q 1227 79 1292 79 q 1046 -79 1217 30 q 719 -227 820 -227 l 617 -227 q 109 113 341 -227 q 41 328 63 224 l 52 328 l 41 350 l 41 372 q 222 869 105 869 q 560 960 342 960 q 707 994 560 971 m 448 779 l 436 779 q 414 813 436 813 q 165 361 216 813 q 606 -102 165 -13 l 617 -102 q 990 56 736 -102 q 1204 406 1204 214 q 1091 711 1167 613 q 753 869 861 869 l 730 869 q 448 779 585 869 m 549 723 q 719 621 719 682 l 730 621 q 753 711 730 711 l 764 711 q 854 644 825 711 l 854 519 q 911 294 854 294 l 933 304 q 1013 226 1013 285 l 1013 203 q 911 136 973 136 q 764 271 875 136 q 481 79 616 79 q 300 304 300 123 l 300 328 q 380 655 300 546 q 549 723 493 711 m 538 599 q 425 384 425 501 l 425 316 q 414 304 425 304 l 425 282 l 425 214 l 458 214 q 628 316 507 214 l 730 497 l 730 576 l 707 576 q 538 599 544 599 z "},"A":{"ha":784,"x_min":41,"x_max":730,"o":"m 267 802 q 470 655 414 802 q 617 361 617 452 q 707 214 654 256 q 673 180 707 198 q 730 -181 707 64 q 673 -237 730 -211 q 617 -193 642 -233 q 538 136 568 -193 l 526 136 q 233 56 233 136 q 154 -125 208 -125 l 131 -113 q 97 -125 109 -125 l 41 -45 l 97 45 l 86 68 q 256 791 256 545 q 267 802 267 791 m 368 553 l 368 542 q 380 531 368 531 l 300 226 l 312 226 q 492 260 492 245 q 391 553 492 359 l 368 553 z "},"B":{"ha":829,"x_min":41,"x_max":775,"o":"m 75 869 l 97 869 q 199 813 199 855 q 188 689 188 713 l 210 677 q 414 734 334 723 l 414 723 l 436 734 l 481 734 q 707 621 707 714 l 707 553 q 583 316 707 493 q 775 158 716 268 l 775 136 q 414 -203 775 -81 l 380 -203 q 256 -136 342 -203 l 244 -136 l 244 -159 q 256 -170 244 -170 q 210 -237 233 -237 q 199 -227 210 -227 q 188 -237 199 -237 q 120 -203 188 -203 l 120 -181 l 52 248 l 63 248 q 52 282 52 270 q 63 294 52 294 q 41 667 41 454 l 52 745 l 41 745 q 75 869 52 869 m 188 497 l 188 452 q 199 440 188 440 l 188 418 l 188 406 l 199 350 l 188 350 q 267 -91 214 22 l 290 -79 q 334 -91 315 -79 q 606 102 537 -34 q 628 146 614 146 q 583 203 606 198 l 526 203 q 346 113 456 203 l 312 113 q 244 226 244 181 q 380 338 268 226 q 492 463 398 338 q 560 599 560 585 q 549 633 549 621 l 526 621 q 492 633 515 621 q 188 497 399 633 z "},"C":{"ha":999,"x_min":41,"x_max":945,"o":"m 210 779 q 312 701 312 779 q 188 338 188 523 q 334 113 233 113 l 380 102 q 741 260 536 130 q 865 328 741 290 q 945 260 945 328 q 572 11 844 147 q 402 -12 465 -12 l 380 -12 q 142 113 251 -1 q 41 395 53 230 q 52 429 52 417 l 41 429 q 188 779 41 593 l 210 779 z "},"D":{"ha":909,"x_min":41,"x_max":854,"o":"m 52 926 q 188 836 188 926 l 188 779 q 176 768 188 768 q 188 711 188 749 q 448 779 334 778 l 470 768 q 481 779 481 768 q 798 655 637 779 q 854 553 854 611 l 854 486 q 391 -34 854 283 l 300 -34 q 256 0 300 -6 l 256 -79 l 199 -91 l 188 -91 q 41 892 41 -91 q 52 926 52 914 m 188 542 q 244 11 188 369 q 492 226 263 53 q 719 553 692 414 q 526 667 719 667 l 504 667 q 188 542 324 667 z "},"E":{"ha":965,"x_min":41,"x_max":911,"o":"m 617 937 l 640 937 q 741 869 688 937 l 741 847 q 662 791 707 791 q 628 802 650 791 q 290 768 506 779 l 290 734 l 278 655 l 290 655 l 278 633 l 278 621 l 290 621 q 831 689 353 621 q 899 644 831 678 q 809 565 860 565 l 809 576 q 278 486 521 486 l 278 474 q 402 124 278 214 l 448 124 q 787 294 659 182 l 821 294 q 911 214 911 294 l 911 203 q 515 0 805 74 q 481 -12 481 0 q 176 260 264 -12 q 120 576 154 296 q 142 734 142 661 l 142 757 q 41 869 53 757 l 75 892 q 86 881 86 892 l 617 937 z "},"F":{"ha":773,"x_min":41,"x_max":719,"o":"m 504 1242 l 515 1242 q 594 1164 594 1212 q 210 1017 542 1122 q 199 971 199 997 l 199 869 q 222 610 199 668 l 210 610 l 222 587 l 210 565 l 233 565 l 572 621 l 617 621 q 719 576 703 621 l 719 553 q 425 474 619 508 q 233 406 425 463 l 244 384 q 233 372 244 372 l 244 316 l 244 113 q 256 68 244 87 q 176 0 238 0 q 86 90 142 0 l 86 282 q 41 847 86 437 q 52 881 52 869 q 41 892 41 881 l 52 892 q 41 903 52 903 l 52 1039 l 52 1096 q 267 1164 52 1127 q 504 1242 267 1183 z "},"G":{"ha":1213,"x_min":41,"x_max":1159,"o":"m 402 1028 l 425 1028 q 526 971 526 1005 q 402 802 526 947 q 199 282 199 553 q 334 113 233 113 q 685 316 448 125 l 696 316 q 707 304 696 304 q 798 338 707 332 l 809 282 q 380 -12 668 73 q 86 158 210 -12 q 41 338 41 274 q 52 350 52 338 l 41 350 q 222 813 41 579 q 278 892 242 813 l 402 1028 m 967 677 l 1159 655 l 1159 610 q 1046 486 1046 542 q 1035 384 1035 444 l 1035 271 q 1069 22 1035 133 l 1035 0 l 979 0 q 877 294 877 36 l 877 418 l 888 440 l 877 440 l 888 463 l 888 508 l 877 508 l 458 361 l 448 361 q 368 452 368 393 q 967 677 633 584 z "},"H":{"ha":875,"x_min":41,"x_max":821,"o":"m 120 971 q 222 937 185 956 q 233 949 222 949 l 244 892 q 199 542 222 635 l 323 587 q 334 576 323 576 q 402 610 334 591 q 594 677 427 640 l 594 667 q 640 677 614 677 l 640 711 l 628 768 l 640 768 l 628 791 l 628 915 q 651 937 632 937 l 662 937 q 775 791 775 937 q 798 711 787 711 l 821 701 q 798 655 812 655 q 809 429 809 503 l 809 169 q 798 158 809 158 q 821 34 809 34 q 741 -34 821 -34 q 651 192 651 7 l 651 384 l 662 452 l 651 474 q 662 486 651 486 q 651 576 651 530 q 199 372 386 486 l 199 226 q 210 180 199 200 q 199 169 210 169 q 256 22 199 60 l 256 -23 q 222 -57 256 -39 l 165 -57 q 52 203 52 9 q 41 214 41 203 l 52 282 l 52 406 q 41 418 52 418 l 52 440 l 52 463 q 120 971 86 971 z "},"I":{"ha":1326,"x_min":41,"x_max":1272,"o":"m 798 960 q 956 881 956 926 q 753 779 956 808 q 673 180 693 549 l 685 180 l 673 158 l 673 68 l 1137 113 q 1272 45 1208 113 l 1272 34 q 662 -68 1272 -9 q 323 -147 662 -87 l 256 -68 l 256 -45 q 549 34 256 -20 q 526 226 538 45 q 594 802 549 578 l 583 802 l 109 711 q 41 825 57 766 q 154 859 66 845 l 154 847 l 210 869 l 233 859 l 256 869 q 290 859 277 859 q 300 869 290 869 q 312 859 300 859 q 798 960 312 908 z "},"J":{"ha":773,"x_min":41,"x_max":719,"o":"m 572 1073 l 606 1073 q 673 1050 636 1073 q 685 1062 673 1062 l 719 1017 q 526 926 696 926 l 526 519 q 538 328 526 414 q 448 -79 530 -79 l 391 -91 q 52 90 189 -91 q 86 136 69 136 l 131 136 q 300 34 199 34 l 357 34 q 380 113 357 68 l 368 113 l 380 136 l 380 892 l 368 892 q 120 825 343 892 q 41 937 41 867 q 572 1073 444 1073 z "},"K":{"ha":1021,"x_min":41,"x_max":967,"o":"m 154 1152 q 233 1096 233 1109 q 199 553 199 773 q 380 655 269 610 l 380 667 l 448 667 q 719 779 448 721 q 831 711 831 728 q 640 633 831 650 q 380 508 613 611 l 380 497 q 640 328 490 361 q 911 237 690 294 q 967 192 967 204 l 967 180 q 922 136 967 163 l 899 136 q 470 260 774 136 q 278 418 354 345 q 188 328 264 418 l 188 203 q 210 -34 188 25 q 131 -91 195 -91 q 41 56 63 -65 l 41 338 q 109 1152 68 1152 l 154 1152 z "},"L":{"ha":920,"x_min":41,"x_max":865,"o":"m 109 1017 q 199 960 171 998 l 199 859 q 188 644 199 767 l 199 621 l 188 553 q 244 124 210 124 q 719 304 415 262 l 730 304 q 865 237 829 269 q 809 180 865 207 l 809 192 q 244 -57 554 177 l 188 -68 q 52 328 94 -68 q 41 508 52 345 q 63 847 52 795 l 52 847 l 63 869 l 63 1005 q 109 1017 109 1005 z "},"M":{"ha":1089,"x_min":41,"x_max":1035,"o":"m 911 1062 l 956 1062 q 1035 994 1035 1018 q 1001 497 1013 886 q 1035 180 1001 460 q 956 136 971 136 q 877 248 916 136 l 888 248 q 854 508 868 332 q 865 667 865 604 q 470 395 655 395 q 244 610 414 395 l 233 610 l 233 599 q 142 45 195 45 l 109 45 q 41 169 41 81 l 41 192 l 63 271 l 52 294 l 97 452 l 86 452 l 97 474 q 109 791 109 730 q 97 983 97 945 l 120 983 q 290 802 250 983 q 481 519 353 648 q 809 847 583 560 q 911 1062 876 1023 z "},"N":{"ha":852,"x_min":41,"x_max":798,"o":"m 673 1005 l 696 1005 l 764 949 q 798 779 790 949 l 798 734 l 753 542 q 764 508 764 520 q 696 328 764 450 q 538 136 651 136 q 323 497 466 210 q 210 667 312 497 l 176 701 l 165 701 q 176 689 165 689 q 165 599 165 627 q 199 56 165 176 q 154 0 177 5 l 131 0 q 52 192 52 39 q 41 418 41 345 q 86 926 41 926 q 481 452 223 926 l 549 361 q 662 802 662 612 q 640 881 651 881 l 651 903 l 640 926 q 673 1005 651 1005 z "},"O":{"ha":852,"x_min":41,"x_max":798,"o":"m 380 1039 l 414 1039 q 798 677 798 1039 q 594 271 798 505 q 414 158 575 271 l 346 146 l 290 146 q 41 474 41 243 l 52 474 l 41 497 l 41 508 q 165 881 97 738 l 154 881 q 300 1005 154 940 l 300 1017 l 380 1017 l 380 1039 m 199 440 q 278 282 225 282 l 346 282 q 481 372 414 282 q 549 406 549 384 l 549 463 q 628 553 586 463 l 640 553 l 640 621 l 662 655 q 481 926 635 926 l 425 926 q 199 508 288 926 l 199 440 z "},"P":{"ha":829,"x_min":41,"x_max":775,"o":"m 165 1050 q 267 983 267 1050 l 267 949 l 300 949 l 323 960 l 323 949 l 346 960 l 458 960 q 775 836 694 960 l 775 802 q 312 361 775 585 l 290 361 q 222 452 222 385 l 199 452 l 199 237 q 244 45 199 189 l 244 22 q 188 -23 244 10 q 52 248 52 -1 q 41 294 52 274 q 52 328 52 315 q 41 361 52 339 l 86 734 l 75 734 l 86 757 q 63 791 75 791 q 120 1028 100 824 l 120 1039 q 165 1050 125 1039 m 210 474 q 583 734 429 534 q 628 825 610 770 q 448 847 534 847 q 233 711 233 847 q 210 474 210 517 z "},"Q":{"ha":1247,"x_min":41,"x_max":1193,"o":"m 640 994 q 979 791 923 994 q 990 701 990 747 l 990 644 q 821 237 990 486 q 1171 56 857 178 q 1193 0 1193 8 q 1125 -68 1193 -16 q 719 136 1101 -68 q 357 -68 547 -20 l 312 -68 q 75 136 156 -68 q 41 328 41 210 q 188 757 83 558 q 368 926 298 926 l 425 915 q 640 994 507 970 m 188 316 q 290 56 188 100 q 470 113 440 56 l 583 203 l 583 214 q 334 486 334 399 l 357 497 q 492 440 492 497 q 640 328 541 411 q 707 316 653 316 q 798 440 707 354 q 865 689 865 648 q 764 859 865 838 q 662 881 764 877 q 300 667 481 881 q 188 316 188 389 z "},"R":{"ha":807,"x_min":41,"x_max":753,"o":"m 142 881 l 176 881 q 256 836 237 881 l 256 802 l 244 745 l 256 745 l 391 825 q 402 813 402 825 l 515 825 l 628 825 q 753 711 753 802 l 753 667 q 357 180 753 504 q 696 -45 594 -32 l 707 -68 l 707 -91 q 583 -136 707 -119 q 312 56 462 -79 q 188 136 267 102 l 188 0 q 210 -237 188 -96 q 142 -294 203 -294 q 41 34 41 -267 l 41 45 q 52 361 52 300 q 75 395 63 395 q 63 486 63 457 q 109 745 63 503 l 97 745 q 142 881 123 881 m 199 248 q 368 395 295 286 q 606 667 435 407 q 617 689 606 689 q 560 734 612 720 q 210 486 374 734 q 199 248 210 419 z "},"S":{"ha":818,"x_min":41,"x_max":764,"o":"m 323 960 q 436 915 436 946 l 436 892 q 244 757 410 850 l 222 723 l 222 711 q 651 372 222 594 q 764 226 764 286 l 764 203 q 222 -68 764 8 l 199 -68 q 41 22 92 -68 l 41 102 l 52 102 l 109 90 q 154 136 109 108 q 188 45 165 45 q 560 169 320 51 q 617 237 593 195 q 278 452 589 301 q 75 745 75 610 q 233 903 75 812 q 323 960 272 960 z "},"T":{"ha":1112,"x_min":41,"x_max":1057,"o":"m 764 1084 l 821 1073 l 843 1084 q 877 1073 865 1073 l 956 1084 q 1057 1028 1057 1050 l 1057 971 q 1001 949 1001 971 q 888 971 949 971 q 583 949 823 971 l 583 937 l 628 892 q 606 474 606 585 q 651 0 606 206 q 549 -34 651 -34 q 458 418 458 50 q 504 915 481 866 q 492 926 492 915 q 86 847 138 847 l 41 926 q 52 937 52 926 l 41 937 q 52 971 52 960 q 154 983 93 971 q 188 971 176 971 q 300 1028 300 997 l 357 1017 q 448 1050 420 1050 l 504 1028 q 583 1073 504 1057 l 606 1062 l 764 1084 z "},"U":{"ha":762,"x_min":41,"x_max":707,"o":"m 63 960 q 176 892 176 932 q 300 180 176 315 q 515 519 515 404 q 572 836 572 667 l 560 915 q 594 960 577 960 q 707 881 696 917 l 707 813 q 538 226 707 487 q 323 56 538 148 l 300 56 q 120 226 224 56 q 41 734 41 504 l 41 937 q 63 960 44 960 z "},"V":{"ha":829,"x_min":41,"x_max":775,"o":"m 673 1254 q 696 1220 696 1254 l 719 1232 q 775 1186 735 1231 q 425 282 597 527 q 346 124 406 268 q 300 56 334 124 l 278 68 l 267 68 q 244 22 267 22 q 131 260 179 71 q 41 1096 75 663 l 63 1107 q 188 949 188 1107 q 267 316 210 633 l 278 316 q 651 1198 504 677 q 673 1254 651 1254 z "},"W":{"ha":1112,"x_min":41,"x_max":1057,"o":"m 979 869 q 1057 836 1046 836 l 1057 768 q 922 192 979 291 l 933 192 q 854 -34 890 94 q 775 -45 820 -34 q 628 113 733 -45 q 549 248 602 113 q 492 294 534 248 l 481 294 q 414 113 414 149 q 334 -12 382 102 l 222 -23 q 142 79 171 -23 q 41 565 41 172 l 41 723 q 86 813 41 813 q 165 757 165 774 l 165 565 q 176 553 165 553 q 165 519 165 532 q 256 113 180 185 q 436 474 414 446 l 504 474 q 662 260 534 473 q 741 136 697 249 l 764 124 l 775 124 q 899 542 775 164 l 888 565 q 956 836 888 593 q 945 847 945 836 l 979 869 z "},"X":{"ha":1123,"x_min":41,"x_max":1069,"o":"m 764 1164 q 854 1096 806 1164 l 854 1062 q 775 926 803 1015 q 594 644 629 742 l 606 644 q 1069 260 1069 369 q 1001 226 1043 260 l 979 237 q 967 226 979 226 q 764 395 873 336 q 515 553 670 484 q 323 113 436 427 q 256 34 271 34 l 233 34 q 176 90 218 34 q 402 644 176 200 l 402 655 q 188 825 354 655 q 41 1050 41 962 l 75 1073 q 300 869 115 1073 q 470 745 458 745 q 741 1152 595 916 q 764 1164 764 1152 z "},"Y":{"ha":965,"x_min":41,"x_max":911,"o":"m 86 1073 q 233 881 163 1063 q 391 689 286 805 l 402 689 l 809 1062 q 911 1005 844 1062 l 899 983 l 911 960 q 809 859 890 959 q 572 644 722 798 q 504 587 557 644 l 515 531 l 515 497 q 481 474 481 497 l 481 463 q 606 -136 552 297 q 617 -147 606 -147 q 572 -215 594 -215 l 515 -215 q 436 124 436 -56 q 312 576 402 332 l 323 599 q 86 892 209 686 l 41 1028 l 41 1039 q 86 1073 41 1067 z "},"Z":{"ha":954,"x_min":41,"x_max":899,"o":"m 651 1107 q 730 1028 688 1107 q 572 587 730 923 q 583 565 572 565 q 809 452 687 565 l 809 418 q 775 395 809 395 q 492 463 744 395 q 334 169 492 450 l 323 124 l 334 124 q 606 136 494 136 l 696 136 q 899 68 809 136 l 899 22 q 854 -12 874 22 l 719 0 l 583 0 q 346 -23 487 0 q 142 45 142 -23 q 131 79 131 67 q 334 508 334 503 l 334 519 q 188 644 188 574 q 233 689 199 689 l 402 633 l 414 633 q 560 960 560 911 l 560 983 q 120 802 351 922 q 41 892 72 802 q 448 1096 41 955 q 651 1107 475 1107 z "},"[":{"ha":626,"x_min":41,"x_max":572,"o":"m 425 994 l 448 994 q 538 915 504 994 q 222 779 538 840 q 199 655 199 735 l 199 -79 q 526 0 440 0 l 538 0 q 572 -57 554 0 q 165 -260 572 -139 q 131 -249 143 -249 l 131 -260 q 41 -34 56 -260 q 52 11 52 -14 q 41 45 52 45 l 52 158 l 52 486 q 63 497 52 497 q 52 508 63 508 l 63 565 l 63 734 q 154 915 63 915 q 425 994 303 937 z "},"]":{"ha":614,"x_min":41,"x_max":560,"o":"m 402 1096 q 560 587 560 1037 l 549 452 l 560 452 l 549 429 l 549 395 q 526 56 549 344 l 538 56 q 481 -23 529 -5 l 458 -12 l 391 -12 q 267 34 317 -12 l 278 56 q 233 79 278 79 q 380 136 233 98 q 391 124 380 124 l 391 136 q 425 667 391 201 q 380 926 409 892 q 142 869 142 892 q 41 983 41 903 q 380 1084 41 1035 q 402 1096 380 1096 z "},"^":{"ha":671,"x_min":41,"x_max":617,"o":"m 244 859 q 583 486 388 777 q 617 452 600 486 q 572 395 595 400 l 538 395 q 290 689 441 461 l 278 689 q 142 429 161 429 l 109 429 q 41 519 41 466 q 244 859 196 859 z "},"_":{"ha":728,"x_min":41,"x_max":673,"o":"m 617 -271 q 673 -362 673 -347 q 425 -407 624 -407 l 290 -407 q 41 -339 41 -407 l 41 -317 q 109 -283 52 -283 l 391 -283 q 617 -271 465 -283 z "},"`":{"ha":434,"x_min":41,"x_max":380,"o":"m 75 859 q 256 723 149 829 q 380 508 380 629 l 357 497 q 210 621 300 497 l 41 779 l 52 802 q 41 836 41 824 l 75 859 z "},"a":{"ha":852,"x_min":41,"x_max":798,"o":"m 402 825 q 515 745 402 810 q 707 271 608 271 q 798 203 779 271 q 673 124 798 124 q 481 361 596 124 l 470 361 q 256 124 395 220 l 176 124 q 41 304 82 124 l 41 328 q 131 655 41 486 q 402 825 322 825 m 176 294 l 176 282 q 199 260 180 260 q 402 621 402 406 l 402 655 l 391 677 q 176 294 176 567 z "},"b":{"ha":694,"x_min":41,"x_max":640,"o":"m 120 1198 l 154 1198 q 233 1130 233 1144 l 233 1107 q 210 486 233 714 l 222 486 q 380 576 295 553 l 402 565 l 481 576 q 640 361 640 511 l 628 361 l 640 338 q 402 90 560 164 q 290 45 338 56 l 154 68 q 86 34 142 34 q 41 90 86 40 q 109 1164 109 774 q 120 1198 120 1185 m 210 226 l 210 192 l 244 192 q 492 395 391 192 l 492 418 q 470 440 492 440 l 458 440 q 210 226 312 440 z "},"c":{"ha":863,"x_min":41,"x_max":809,"o":"m 267 768 l 300 768 q 368 701 346 745 l 368 689 q 176 350 176 446 l 176 304 q 244 237 176 237 q 594 418 300 237 q 707 497 686 469 q 809 429 755 491 q 673 316 809 388 q 244 102 395 102 q 41 350 72 102 q 267 768 41 530 z "},"d":{"ha":875,"x_min":41,"x_max":821,"o":"m 583 1536 q 673 1390 659 1482 q 719 1073 719 1296 l 719 1050 q 696 734 719 928 q 821 350 753 400 q 730 214 821 214 q 617 474 688 214 l 606 474 q 334 192 606 395 q 188 136 232 136 q 41 248 93 136 l 41 304 q 312 644 123 644 l 346 644 q 526 599 474 644 q 560 734 560 711 q 526 949 541 949 q 538 960 526 960 q 515 1175 515 1050 l 515 1310 q 572 1536 515 1536 l 583 1536 m 176 282 q 448 486 277 282 l 458 508 l 357 508 q 176 282 218 508 z "},"e":{"ha":739,"x_min":41,"x_max":685,"o":"m 357 869 q 391 859 379 859 l 414 869 q 606 644 606 808 q 448 452 606 505 q 357 418 433 452 l 357 429 l 334 418 l 312 418 q 176 452 278 418 l 176 304 q 312 192 218 192 q 594 316 410 192 q 662 338 631 338 l 685 328 q 346 56 685 149 l 334 56 q 52 316 136 56 q 41 418 41 377 q 131 701 41 558 q 357 869 197 798 m 233 610 q 267 553 248 553 l 312 553 q 492 655 370 553 q 436 723 477 702 l 414 723 q 233 610 340 722 z "},"f":{"ha":818,"x_min":41,"x_max":764,"o":"m 549 1378 q 753 1186 653 1378 q 719 1130 738 1130 l 719 1141 l 696 1130 q 583 1220 595 1220 q 414 655 414 1103 l 492 655 q 719 667 566 655 q 764 599 764 609 q 402 497 764 497 l 402 406 l 391 350 l 402 350 l 391 328 l 391 146 q 323 79 391 79 q 267 158 285 79 q 278 486 267 196 l 210 486 q 41 565 41 486 q 86 633 48 633 q 278 655 278 633 q 368 1175 318 1114 q 549 1378 480 1378 z "},"g":{"ha":616,"x_min":41,"x_max":562,"o":"m 369 1166 q 426 1099 426 1166 l 437 1099 q 460 1133 437 1133 q 528 1065 498 1119 l 551 1053 l 539 1031 l 539 985 l 562 951 l 528 928 q 539 906 528 906 q 505 465 524 465 l 516 441 q 505 396 505 422 q 516 385 516 396 q 448 227 490 385 q 335 79 351 79 l 313 79 l 290 90 l 267 56 l 199 79 q 188 68 199 68 q 52 193 52 159 l 75 203 l 109 203 q 165 170 109 178 q 335 283 335 211 q 437 680 437 445 q 426 713 426 701 q 437 747 437 735 l 426 747 q 335 646 414 747 q 245 600 274 627 q 52 827 52 657 q 41 884 41 827 q 335 1155 41 1019 q 369 1166 347 1155 m 403 1076 l 403 1053 q 414 1042 414 1053 l 392 1031 q 380 1042 380 1031 q 132 849 250 1042 l 132 838 q 176 770 132 793 l 176 747 q 188 759 188 747 l 211 747 l 222 747 q 426 997 353 747 l 414 1019 l 426 1042 q 414 1076 414 1064 l 403 1076 z "},"h":{"ha":707,"x_min":41,"x_max":652,"o":"m 86 1246 q 176 1178 142 1246 l 165 1155 l 165 1099 q 199 1065 185 1099 l 188 1042 l 188 600 l 199 600 q 380 895 214 664 q 460 951 394 895 l 528 951 q 652 351 635 951 l 652 328 l 629 317 l 607 317 q 505 804 505 317 q 392 668 392 736 q 279 487 317 609 q 165 260 245 487 l 120 227 q 41 351 78 227 q 52 362 41 362 l 41 419 l 41 431 q 52 441 41 441 q 41 453 52 453 l 52 509 l 52 680 q 63 691 52 691 l 52 713 l 52 759 q 63 861 52 800 q 52 872 63 872 l 63 928 l 63 1223 q 86 1246 67 1246 m 165 872 l 165 793 l 176 793 l 176 872 l 165 872 m 165 781 l 165 600 l 176 600 l 176 781 l 165 781 z "},"i":{"ha":378,"x_min":41,"x_max":324,"o":"m 233 1371 l 256 1371 q 290 1337 272 1371 l 290 1257 q 245 1121 290 1200 l 256 1121 q 290 1133 278 1133 l 267 1099 q 233 1121 233 1110 l 211 1110 q 142 1189 142 1143 q 63 1155 101 1155 q 41 1257 63 1172 q 233 1371 130 1322 m 245 940 q 313 838 313 911 l 313 691 q 301 680 313 680 l 313 657 l 313 509 q 324 465 313 484 q 290 396 309 396 l 267 396 q 188 646 211 396 l 199 702 l 199 849 q 245 940 199 922 z "},"j":{"ha":536,"x_min":41,"x_max":482,"o":"m 290 1133 q 482 1019 482 1133 q 471 1008 471 1019 l 392 1019 q 211 997 263 997 l 188 997 q 142 1087 174 997 l 142 1099 q 165 1121 146 1121 l 245 1121 q 290 1133 270 1121 m 335 928 q 369 918 357 918 q 358 906 369 906 q 426 623 369 784 l 414 623 q 448 317 448 508 l 448 306 q 437 260 448 280 q 448 215 448 241 q 324 56 414 56 q 290 45 324 45 l 245 45 q 41 227 93 45 l 41 238 q 52 272 52 260 l 86 272 q 154 170 86 207 l 267 170 l 267 193 l 290 181 l 301 181 q 347 465 347 290 q 301 827 324 571 q 335 928 335 909 z "},"k":{"ha":718,"x_min":41,"x_max":664,"o":"m 86 1268 q 154 1155 105 1268 l 165 1155 l 154 1042 l 154 861 q 176 804 157 804 q 471 918 410 906 q 562 838 562 918 q 335 725 562 827 q 199 646 222 646 l 199 634 q 528 509 208 608 q 664 419 644 446 l 664 328 q 629 317 652 328 q 176 475 288 475 q 188 340 176 457 l 176 340 q 199 272 199 302 l 199 249 q 154 215 199 232 q 52 770 52 215 q 41 1133 41 955 q 86 1268 49 1268 z "},"l":{"ha":299,"x_min":41,"x_max":245,"o":"m 41 1404 l 52 1404 q 142 1280 123 1404 q 154 1178 142 1185 q 142 1166 154 1166 q 245 441 176 789 l 199 419 q 86 691 117 419 l 98 691 q 41 1337 41 1061 l 41 1404 z "},"m":{"ha":899,"x_min":41,"x_max":845,"o":"m 63 1042 l 98 1042 q 142 918 142 935 l 132 918 l 142 895 l 142 861 q 132 815 142 836 q 142 770 142 795 l 165 770 q 279 985 238 936 q 335 1031 279 993 l 347 1031 q 471 736 471 942 q 460 725 460 736 l 494 725 q 686 1008 569 890 l 754 1008 q 845 657 845 858 l 833 657 l 845 634 l 833 566 l 845 566 q 822 475 822 532 l 766 475 q 732 827 743 526 l 698 861 q 607 691 698 840 q 482 487 579 691 l 482 465 l 448 465 q 380 555 380 465 l 380 691 q 347 872 380 748 q 165 453 245 757 l 176 453 q 132 385 169 385 q 52 521 52 385 l 52 680 l 41 815 l 52 815 l 41 838 l 41 1019 q 63 1042 44 1042 z "},"n":{"ha":616,"x_min":41,"x_max":562,"o":"m 414 1042 l 426 1042 q 562 736 562 958 q 551 544 551 618 q 539 532 539 544 l 551 532 q 471 441 530 441 l 437 487 q 448 815 448 688 q 426 861 426 843 l 392 861 q 301 759 392 831 q 233 646 267 646 l 233 634 l 245 612 q 142 408 208 612 l 109 408 q 63 441 63 431 q 41 951 63 781 q 109 1031 52 1031 q 165 725 132 1031 l 176 725 q 414 1042 302 970 z "},"o":{"ha":729,"x_min":41,"x_max":675,"o":"m 369 1008 l 380 1008 q 675 804 631 1008 l 675 781 q 528 544 659 674 q 222 431 353 431 q 41 555 41 439 l 41 623 q 165 895 41 705 q 369 1008 165 955 m 142 623 q 211 555 152 585 l 245 555 q 516 680 357 555 q 573 770 573 740 q 369 884 573 833 q 142 623 260 884 z "},"p":{"ha":763,"x_min":41,"x_max":709,"o":"m 437 974 q 460 951 441 951 q 482 974 463 974 q 516 940 516 974 l 539 951 q 709 691 652 951 q 414 294 709 463 l 301 294 l 245 306 l 245 294 q 290 -23 245 178 l 279 -45 q 301 -204 301 -131 l 279 -215 l 222 -215 q 98 498 170 -215 q 41 861 41 663 l 63 872 l 98 872 q 120 849 120 869 q 109 838 109 849 q 132 793 132 838 l 165 793 q 245 884 165 836 l 245 906 l 256 906 l 256 884 l 279 884 l 267 906 q 279 918 279 906 l 301 906 l 313 906 l 301 928 q 437 974 320 928 m 211 600 l 211 532 l 222 419 l 245 431 q 335 408 286 408 q 471 509 335 422 l 562 634 l 585 646 l 573 668 q 595 736 595 715 q 494 861 595 834 q 222 646 313 861 q 211 600 211 626 z "},"q":{"ha":593,"x_min":41,"x_max":539,"o":"m 222 1031 q 414 940 414 999 l 426 940 q 437 1031 437 1002 l 505 1031 q 539 918 505 1008 q 494 498 494 638 l 494 181 q 505 170 494 170 l 494 147 l 494 136 q 528 -57 528 -33 l 471 -68 q 380 136 414 -68 q 392 147 380 147 q 369 396 369 243 l 369 419 q 380 431 369 431 q 369 441 380 441 l 380 498 l 380 623 q 188 521 253 521 l 176 521 q 41 759 41 521 q 222 1031 90 1031 m 142 668 q 165 657 165 668 q 414 861 281 657 l 414 895 l 301 906 l 256 906 q 142 680 201 906 l 142 668 z "},"r":{"ha":718,"x_min":41,"x_max":664,"o":"m 86 997 q 154 770 154 895 l 154 759 l 176 759 q 380 906 176 906 q 471 884 471 899 l 494 895 l 505 895 l 505 872 l 562 884 l 551 861 q 573 849 573 861 l 595 861 q 652 815 648 839 q 641 804 641 815 q 664 781 664 800 q 652 770 652 781 l 664 770 q 652 736 652 748 l 629 736 q 414 781 482 781 l 347 781 q 233 623 310 781 l 233 498 q 245 374 233 451 l 233 351 l 245 283 q 222 193 245 234 q 132 396 132 193 q 41 962 132 486 l 86 997 z "},"s":{"ha":627,"x_min":41,"x_max":573,"o":"m 335 1008 q 347 997 335 997 l 347 1008 l 369 997 l 380 997 l 403 1008 q 562 928 403 993 q 573 906 562 906 q 494 838 573 847 l 392 872 q 245 747 269 821 l 245 725 q 551 419 530 558 q 426 260 551 298 l 335 260 q 41 465 111 260 l 41 487 l 63 498 q 301 385 171 385 q 437 431 437 402 l 437 453 l 233 600 q 132 747 132 642 q 335 1008 132 940 z "},"t":{"ha":1103,"x_min":41,"x_max":1048,"o":"m 494 1257 l 562 1257 l 562 1212 q 551 1166 562 1186 q 562 1133 562 1145 l 551 1065 l 562 1065 q 528 962 548 987 l 528 951 q 686 974 686 960 l 709 962 q 890 974 873 974 q 924 962 912 962 l 924 849 q 539 793 589 815 l 539 680 q 641 408 539 408 q 1015 600 786 408 l 1038 600 q 1048 544 1038 544 q 935 374 1044 494 q 732 272 875 326 l 698 272 q 471 419 518 272 q 426 600 426 588 q 437 612 426 612 l 426 668 l 426 781 l 414 781 q 86 725 333 759 q 41 849 41 793 q 392 918 66 872 q 426 928 392 928 q 437 918 426 918 l 437 940 q 426 951 437 951 q 494 1257 460 1257 z "},"u":{"ha":842,"x_min":41,"x_max":788,"o":"m 585 1019 l 595 1019 q 652 974 646 974 l 641 951 q 652 793 652 855 q 641 781 652 781 l 652 759 l 652 736 q 732 487 652 487 q 766 475 744 487 q 777 487 766 487 q 788 453 777 475 q 720 362 772 362 q 551 668 573 362 q 437 498 498 635 q 222 328 269 328 l 188 328 q 63 646 121 328 q 41 884 63 793 q 52 918 52 905 l 98 918 l 142 884 q 132 872 142 872 q 154 747 154 791 l 142 702 q 188 498 161 702 l 211 487 l 222 487 q 494 793 388 621 q 585 1019 558 1003 z "},"v":{"ha":627,"x_min":41,"x_max":573,"o":"m 539 1144 q 573 1076 573 1133 l 562 962 l 539 974 q 516 928 539 928 l 528 906 l 528 884 q 460 725 501 884 q 369 544 437 725 q 335 487 340 544 q 279 362 313 487 q 211 340 241 340 l 199 340 q 41 1076 126 340 q 52 1110 52 1098 q 142 918 142 1110 l 211 555 l 233 555 q 358 804 358 768 q 494 1144 392 849 l 539 1144 z "},"w":{"ha":1001,"x_min":41,"x_max":947,"o":"m 63 1076 l 98 1076 q 165 566 152 1076 q 176 487 176 566 l 188 487 q 437 872 348 659 l 482 895 q 607 657 548 895 q 709 475 682 475 q 833 668 833 612 q 867 759 856 759 l 856 781 l 856 827 q 845 1019 856 886 l 879 1042 q 947 895 947 1042 l 947 804 q 754 362 947 530 q 709 317 754 334 q 505 702 610 317 l 482 702 q 392 555 411 608 q 256 328 281 416 q 165 260 219 260 q 52 997 69 260 q 41 1065 41 997 l 63 1076 z "},"x":{"ha":820,"x_min":41,"x_max":766,"o":"m 664 1087 q 686 1042 673 1042 q 505 759 686 918 l 426 668 q 686 487 426 655 l 766 396 l 766 385 q 743 294 743 305 l 732 294 q 471 465 699 294 q 324 544 355 544 q 211 385 294 544 l 142 306 l 109 306 q 86 340 109 340 l 86 419 q 222 634 168 569 q 41 940 41 777 q 75 985 58 985 l 86 985 q 176 849 127 974 q 290 736 188 849 q 426 861 319 739 l 618 1076 q 664 1087 624 1076 z "},"y":{"ha":684,"x_min":41,"x_max":629,"o":"m 528 1257 q 618 1212 618 1244 l 607 1212 l 629 1121 q 618 1087 618 1099 l 629 1019 l 607 872 q 618 804 607 863 q 607 770 607 782 l 618 770 q 551 227 576 555 l 562 227 q 482 0 523 20 q 392 -12 420 -12 q 222 90 259 36 q 233 102 233 90 q 132 227 188 102 q 120 238 120 227 l 154 238 l 154 249 q 109 272 109 249 l 109 283 l 154 283 q 369 102 279 132 q 460 351 460 130 l 460 385 q 471 396 460 396 q 460 408 471 408 q 505 849 494 684 q 358 680 425 772 q 256 600 358 621 q 41 962 115 600 l 63 974 l 120 974 l 188 815 q 245 747 199 747 q 460 951 330 781 l 448 951 q 528 1257 528 1103 z "},"z":{"ha":763,"x_min":41,"x_max":709,"o":"m 494 884 q 675 747 675 884 l 664 747 l 675 725 q 629 566 675 625 l 629 555 q 709 475 709 503 q 539 419 694 419 q 403 227 457 227 l 403 193 l 460 181 l 539 181 q 551 193 551 181 q 641 136 613 174 q 505 56 641 56 q 471 68 493 56 l 403 56 q 211 193 211 56 q 426 465 385 389 q 256 555 256 465 l 256 578 q 290 600 256 600 q 505 589 397 589 q 562 736 551 661 l 494 747 q 380 736 479 747 l 380 747 q 75 691 214 702 q 41 725 75 725 l 41 815 q 448 884 41 850 l 494 884 z "},"{":{"ha":682,"x_min":41,"x_max":628,"o":"m 560 1118 q 628 1028 589 1118 q 357 960 596 985 l 357 903 l 425 610 l 425 542 q 244 395 425 395 q 210 406 222 406 q 199 372 199 385 q 210 -45 210 11 l 222 -45 l 210 -68 q 267 -271 210 -271 q 323 -339 281 -271 l 323 -430 q 278 -452 305 -430 q 52 -113 111 -452 q 41 418 52 122 l 52 440 l 41 463 q 120 542 50 542 l 154 542 l 222 531 q 278 610 278 547 l 278 633 q 233 813 278 659 l 244 813 q 210 926 210 871 l 210 1050 q 560 1118 210 1091 z "},"|":{"ha":253,"x_min":41,"x_max":199,"o":"m 86 1118 q 199 926 199 1118 l 199 881 q 188 847 199 847 l 199 791 l 199 45 q 188 34 199 34 l 199 11 q 142 -68 199 -52 q 41 0 86 -68 l 63 610 l 52 745 q 63 1096 63 888 q 86 1118 86 1096 z "},"}":{"ha":490,"x_min":41,"x_max":436,"o":"m 154 1118 l 176 1118 q 414 983 370 1118 q 436 903 436 983 q 312 677 436 839 l 312 667 q 402 508 347 663 q 425 384 425 399 l 425 316 q 312 -317 425 205 q 267 -385 312 -351 q 165 -294 165 -380 l 165 -283 l 267 328 l 267 463 q 154 667 267 537 q 142 711 142 686 l 142 734 q 290 960 290 905 q 199 983 248 983 l 154 983 q 142 971 142 983 q 41 1050 75 994 l 41 1107 l 154 1118 z "},"~":{"ha":999,"x_min":41,"x_max":945,"o":"m 764 768 q 945 587 869 768 q 933 576 945 576 l 945 519 q 696 113 945 222 l 617 113 q 425 260 546 113 q 312 587 312 564 l 300 587 q 142 248 240 587 l 120 237 l 75 237 q 41 328 41 298 q 176 677 41 455 q 267 723 258 723 q 492 418 432 723 q 617 237 543 237 q 821 463 715 237 q 809 474 821 474 l 821 531 l 821 576 q 741 689 821 626 l 730 734 q 764 768 746 734 z "},"¨":{"ha":489,"x_min":41,"x_max":435,"o":"m 50 874 l 98 923 q 115 931 107 931 q 134 922 123 931 l 180 872 q 187 855 187 863 q 179 837 187 846 l 132 786 q 115 774 121 774 q 98 783 106 774 l 47 841 q 41 857 41 849 q 50 874 41 865 m 298 874 l 346 923 q 363 931 355 931 q 381 922 370 931 l 428 872 q 435 855 435 863 q 427 838 435 846 l 380 786 q 363 774 368 774 q 346 783 353 774 l 294 842 q 288 857 288 849 q 298 874 288 865 z "},"©":{"ha":1338,"x_min":41,"x_max":1284,"o":"m 719 1356 q 741 1333 722 1333 l 764 1344 q 798 1333 786 1333 q 831 1356 798 1356 q 922 1322 888 1322 l 967 1322 q 1046 1254 967 1293 q 1284 677 1284 1065 q 1193 350 1284 483 q 1125 294 1149 336 q 572 113 787 113 q 222 294 370 146 q 41 791 41 521 q 256 1276 41 1069 q 357 1322 288 1276 q 515 1344 483 1336 q 526 1333 526 1344 q 719 1356 646 1356 m 176 745 q 334 372 224 470 q 572 260 408 260 q 1080 463 800 260 q 1137 711 1137 549 q 1013 1107 1137 998 q 764 1232 938 1232 q 481 1220 524 1220 l 458 1232 q 233 971 304 1160 q 176 745 199 876 m 628 1186 q 730 1107 688 1186 l 730 1084 q 481 734 481 901 q 640 610 481 610 l 696 610 q 877 667 734 610 l 899 667 q 945 621 917 667 l 945 576 q 719 474 889 474 l 696 474 q 357 689 357 502 q 334 745 337 689 q 572 1141 334 1000 q 628 1186 587 1141 z "},"®":{"ha":1202,"x_min":41,"x_max":1148,"o":"m 685 1017 l 707 1005 q 719 1017 707 1017 l 730 994 l 753 1005 q 1035 836 959 916 q 1148 644 1112 741 l 1137 621 l 1137 565 q 945 214 1137 391 q 515 -12 711 -12 l 504 -12 q 222 102 349 -12 q 41 531 41 241 l 41 565 q 210 892 89 892 q 334 971 210 971 q 391 937 391 949 q 617 1005 477 987 q 640 983 621 983 l 640 994 q 628 1005 628 994 l 685 1017 m 425 802 l 436 802 q 492 836 492 825 q 504 825 504 836 l 560 836 l 594 836 l 617 825 q 685 859 628 859 q 809 757 760 859 q 526 395 809 604 l 526 384 q 707 248 575 338 l 707 237 l 730 237 q 877 361 776 262 q 1001 576 1001 502 l 1001 610 q 696 881 1001 825 l 640 881 q 425 802 425 881 m 176 474 q 210 316 210 340 l 222 316 l 278 768 q 176 474 176 662 m 391 542 l 391 508 l 402 508 q 628 701 529 587 l 628 711 l 617 711 q 391 542 488 674 m 368 338 q 357 169 357 226 q 492 136 397 136 l 594 158 q 368 338 589 174 z "},"´":{"ha":408,"x_min":41,"x_max":353,"o":"m 238 932 q 276 964 262 956 q 303 972 290 972 q 339 959 326 972 q 353 924 353 945 q 343 896 353 909 q 311 869 332 882 l 87 731 l 41 731 l 238 932 z "},"¸":{"ha":372,"x_min":41,"x_max":317,"o":"m 41 -197 q 144 -232 98 -232 q 208 -217 189 -232 q 227 -172 227 -203 q 194 -129 227 -142 q 125 -118 167 -118 q 102 -119 114 -118 l 134 0 l 177 0 l 152 -71 q 194 -67 174 -68 q 285 -95 252 -67 q 317 -172 317 -122 q 278 -253 317 -223 q 169 -283 238 -283 q 41 -262 95 -283 l 41 -197 z "},"ˆ":{"ha":490,"x_min":41,"x_max":435,"o":"m 41 732 l 198 972 l 278 972 l 435 732 l 396 732 l 238 878 l 80 732 l 41 732 z "},"ˇ":{"ha":490,"x_min":41,"x_max":435,"o":"m 41 972 l 80 972 l 238 827 l 396 972 l 435 972 l 278 731 l 198 731 l 41 972 z "},"˘":{"ha":491,"x_min":41,"x_max":437,"o":"m 41 915 l 75 915 q 126 842 87 865 q 239 819 165 819 q 352 842 313 819 q 402 915 391 865 l 437 915 q 373 778 423 825 q 239 732 323 732 q 106 779 157 732 q 41 915 55 825 z "},"˙":{"ha":241,"x_min":41,"x_max":186,"o":"m 50 874 l 97 923 q 106 929 101 927 q 115 931 111 931 q 124 929 119 931 q 132 923 128 927 l 180 871 q 185 865 184 869 q 186 855 186 861 q 184 845 186 849 q 179 837 183 841 l 131 785 q 120 776 123 778 q 115 774 117 774 q 104 776 109 774 q 97 782 100 778 l 46 841 q 42 847 43 844 q 41 857 41 851 q 43 865 41 861 q 50 874 45 869 z "},"˚":{"ha":336,"x_min":41,"x_max":281,"o":"m 92 852 q 112 804 92 824 q 160 785 132 785 q 208 804 189 785 q 228 852 228 824 q 208 900 228 880 q 160 920 188 920 q 112 900 132 920 q 92 852 92 880 m 41 852 q 75 938 41 903 q 160 972 110 972 q 247 938 212 972 q 281 852 281 903 q 247 767 281 802 q 160 732 212 732 q 75 767 110 732 q 41 852 41 802 z "},"˛":{"ha":345,"x_min":41,"x_max":290,"o":"m 224 0 q 150 -81 176 -42 q 123 -157 123 -120 q 141 -208 123 -189 q 191 -227 159 -227 q 238 -217 218 -227 q 271 -184 258 -206 l 290 -195 q 229 -260 266 -237 q 148 -283 192 -283 q 71 -259 100 -283 q 41 -198 41 -235 q 82 -92 41 -146 q 191 0 123 -37 l 224 0 z "},"˜":{"ha":484,"x_min":41,"x_max":430,"o":"m 430 937 q 384 833 416 867 q 298 798 351 798 l 295 798 q 218 814 261 798 q 141 830 174 830 q 100 816 115 830 q 77 768 85 802 l 41 768 q 87 875 54 840 q 174 911 120 911 q 251 895 205 910 q 327 879 294 879 l 330 879 q 369 892 354 879 q 393 937 384 906 l 430 937 z "},"˝":{"ha":494,"x_min":41,"x_max":440,"o":"m 41 732 l 138 917 q 169 960 155 947 q 201 972 184 972 q 233 959 220 972 q 247 927 247 945 q 240 903 247 916 q 219 876 233 890 l 80 732 l 41 732 m 234 732 l 332 917 q 362 960 348 947 q 394 972 377 972 q 427 959 413 972 q 440 927 440 945 q 433 903 440 916 q 412 876 426 890 l 273 732 l 234 732 z "},"‘":{"ha":400,"x_min":41,"x_max":346,"o":"m 131 655 q 41 723 56 686 l 41 779 q 267 1050 119 956 q 346 971 298 1050 l 346 949 q 165 666 259 858 q 131 655 143 655 z "},"’":{"ha":400,"x_min":41,"x_max":346,"o":"m 256 1050 q 346 983 331 1020 l 346 926 q 120 655 268 749 q 41 734 89 655 l 41 757 q 222 1040 127 848 q 256 1050 243 1050 z "},"“":{"ha":827,"x_min":41,"x_max":773,"o":"m 131 655 q 41 723 56 686 l 41 779 q 267 1050 119 956 q 346 971 298 1050 l 346 949 q 165 666 259 858 q 131 655 143 655 m 558 655 q 468 723 483 686 l 468 779 q 694 1050 546 956 q 773 971 725 1050 l 773 949 q 592 666 686 858 q 558 655 570 655 z "},"”":{"ha":827,"x_min":41,"x_max":773,"o":"m 256 1050 q 346 983 331 1020 l 346 926 q 120 655 268 749 q 41 734 89 655 l 41 757 q 222 1040 127 848 q 256 1050 243 1050 m 683 1050 q 773 983 758 1020 l 773 926 q 547 655 695 749 q 468 734 516 655 l 468 757 q 649 1040 555 848 q 683 1050 671 1050 z "},"·":{"ha":412,"x_min":41,"x_max":357,"o":"m 188 869 q 357 734 309 869 q 176 565 357 633 q 41 689 89 565 l 41 701 q 120 859 41 859 q 188 869 171 859 z "},"…":{"ha":636,"x_min":41,"x_max":582,"o":"m 129 38 q 183 -71 180 9 l 161 -111 q 114 -123 153 -125 l 65 -95 q 73 31 41 -81 l 129 38 m 328 38 q 382 -71 380 9 l 360 -111 q 313 -123 352 -125 l 264 -95 q 272 31 240 -81 l 328 38 m 528 38 q 582 -71 579 9 l 559 -111 q 513 -123 551 -125 l 465 -95 q 471 31 439 -81 l 528 38 z "},"™":{"ha":1394,"x_min":41,"x_max":1340,"o":"m 549 1322 l 560 1322 q 662 1254 659 1276 l 662 1232 q 572 1175 633 1175 l 572 1186 q 481 1118 481 1186 q 458 847 458 1046 q 470 836 470 847 l 458 836 q 481 723 473 818 q 402 689 425 689 q 312 859 312 802 l 323 859 l 312 881 l 312 926 q 334 1130 334 1124 l 323 1130 q 86 1096 186 1096 q 41 1198 41 1164 q 357 1276 41 1240 q 549 1322 454 1322 m 1193 1288 q 1306 1062 1306 1242 l 1340 915 l 1340 881 q 1272 847 1329 847 q 1182 1017 1182 865 l 1171 1017 q 990 903 1089 903 l 979 903 q 831 971 937 903 q 719 779 781 779 l 707 779 q 640 881 640 813 q 730 1198 730 1076 l 753 1208 l 809 1208 q 865 1141 809 1182 q 979 1050 912 1050 q 1159 1276 1043 1097 q 1193 1288 1193 1276 z "},"←":{"ha":1318,"x_min":41,"x_max":1264,"o":"m 426 884 l 437 884 q 539 838 464 884 q 369 646 539 776 l 380 646 q 1083 702 971 680 l 1139 691 q 1173 702 1161 702 l 1264 634 q 1128 555 1264 555 q 380 509 418 509 q 267 555 267 518 l 222 555 q 211 521 222 543 q 460 351 211 484 q 585 249 573 351 q 551 215 585 233 l 528 215 q 132 431 320 250 q 41 555 41 489 l 41 578 q 358 827 136 693 q 426 884 358 841 z "},"→":{"ha":1194,"x_min":41,"x_max":1139,"o":"m 777 793 l 800 793 q 1139 555 1139 663 l 1139 544 q 1038 328 1139 459 q 845 181 886 181 q 766 215 766 193 q 856 362 766 294 q 947 453 856 378 l 970 509 q 562 441 649 465 l 562 453 q 358 431 505 431 l 188 431 q 41 521 41 449 l 75 566 q 165 555 155 555 q 867 623 290 555 l 867 634 q 754 702 867 645 q 743 736 754 714 q 777 793 758 793 z "},"★":{"ha":1432,"x_min":41,"x_max":1377,"o":"m 256 1178 q 664 1053 328 1178 q 709 1042 664 1042 q 788 1178 777 1178 l 856 1178 l 970 1144 l 947 884 q 1004 861 975 884 l 1004 872 q 1377 702 1352 770 l 1377 668 q 981 544 1377 627 q 913 509 981 532 q 901 521 913 521 l 890 498 l 890 419 q 777 -23 890 132 l 743 -23 q 471 362 639 -23 q 176 272 287 272 l 98 272 q 41 351 41 294 q 256 578 41 389 q 347 691 256 593 q 245 1110 250 931 l 245 1121 l 256 1178 z "},"☆":{"ha":1318,"x_min":41,"x_max":1264,"o":"m 154 1200 l 188 1200 q 482 1087 391 1087 q 618 997 482 1080 q 641 974 622 974 q 743 1065 743 974 l 800 1099 q 879 1019 867 1054 q 867 1008 879 1008 q 879 997 867 997 l 867 940 l 867 827 q 1264 589 1026 789 q 1048 475 1264 494 q 856 441 877 441 q 732 -34 802 -34 l 675 -34 l 641 12 q 516 294 609 12 q 482 340 494 340 q 267 260 482 315 q 120 227 144 227 l 98 227 q 41 283 82 227 l 41 328 q 165 453 43 357 q 313 600 165 469 q 369 657 313 608 q 120 1144 315 795 l 120 1155 q 154 1200 137 1200 m 313 1042 l 313 1031 q 460 747 418 862 l 482 747 q 585 861 482 763 q 595 895 595 883 q 313 1042 363 1042 m 539 623 l 539 600 q 562 509 562 519 q 743 600 743 530 q 732 759 732 696 l 732 793 q 618 691 690 777 q 539 623 552 623 m 867 702 l 867 657 q 879 646 867 646 l 867 623 q 879 589 879 601 q 1038 612 979 612 l 1038 623 q 867 702 904 702 m 347 431 q 437 465 423 465 l 437 498 l 414 498 q 347 431 403 498 m 629 362 q 675 238 675 258 l 686 238 l 720 396 l 698 396 l 675 385 l 675 396 q 629 362 629 379 z "},"☎":{"ha":1499,"x_min":41,"x_max":1445,"o":"m 833 1212 q 856 1190 837 1190 l 901 1190 q 1332 918 1156 1190 q 1354 827 1354 876 q 1219 657 1331 657 l 1162 657 q 1083 849 1083 699 q 766 997 1083 997 q 392 838 612 997 q 358 804 392 804 l 369 691 q 165 555 369 598 q 41 646 96 555 q 267 1053 41 843 q 833 1212 534 1212 m 607 884 l 641 884 q 720 815 713 815 l 709 759 l 709 702 l 732 668 q 879 691 749 680 l 879 736 q 867 781 879 762 q 879 827 879 802 l 867 827 q 901 884 882 884 q 1026 691 1026 884 q 1310 465 1310 609 q 1298 453 1298 465 q 1434 79 1434 155 q 1423 68 1434 68 l 1445 22 q 1207 -57 1445 -57 q 290 -113 962 -57 q 222 -68 267 -68 l 222 -45 q 267 193 222 27 l 279 193 q 482 578 279 578 q 607 634 505 608 l 562 680 l 562 725 q 607 884 585 884 m 822 272 q 856 227 839 227 q 958 272 943 227 l 958 283 l 901 294 l 879 294 q 822 272 822 292 z "},"♡":{"ha":956,"x_min":41,"x_max":901,"o":"m 245 1053 q 448 827 374 1053 q 720 985 573 918 q 901 884 901 951 q 562 34 901 431 q 358 -34 498 -34 q 120 227 120 90 q 41 657 41 398 q 245 1053 108 1053 m 267 918 q 176 589 176 769 q 335 102 176 329 l 358 91 l 392 91 q 720 566 563 207 q 777 838 777 789 q 766 849 766 838 q 494 691 678 815 l 505 634 l 505 600 q 460 408 505 408 l 426 408 l 369 419 q 380 612 380 552 q 324 668 339 612 q 347 747 347 713 q 267 918 304 918 z "},"♥":{"ha":1069,"x_min":41,"x_max":1015,"o":"m 766 1144 l 811 1144 q 1015 951 1015 1118 l 1015 804 q 788 317 1015 586 q 426 45 554 45 l 403 45 q 188 181 332 45 q 41 668 41 413 l 41 804 q 188 1065 41 919 q 279 1110 245 1110 l 426 1019 l 471 985 l 482 985 q 766 1144 625 1144 z "},"ㄱ":{"ha":729,"x_min":41,"x_max":675,"o":"m 551 918 q 675 691 675 918 q 516 113 675 606 l 471 113 q 414 215 414 161 q 551 736 551 603 l 551 770 l 494 770 q 403 747 483 770 q 369 759 391 747 q 188 713 275 713 l 176 713 l 120 725 l 120 713 q 41 838 41 713 l 98 861 q 109 849 109 861 l 551 918 z "},"ㄲ":{"ha":774,"x_min":41,"x_max":720,"o":"m 664 974 l 675 974 q 720 872 720 903 l 709 872 l 720 849 q 641 249 667 249 q 595 238 602 238 l 551 306 l 551 340 l 607 838 l 595 838 q 426 781 452 819 q 437 770 426 770 q 380 396 380 530 l 380 351 q 392 227 380 304 q 380 181 380 207 l 335 181 q 267 351 286 181 q 313 691 287 648 l 301 691 q 324 759 324 728 l 324 770 q 154 680 205 719 q 120 668 142 680 q 41 747 89 668 q 154 827 41 827 q 482 940 154 849 q 664 974 494 940 z "},"ㄳ":{"ha":1194,"x_min":41,"x_max":1139,"o":"m 845 962 q 913 872 913 939 q 822 668 897 872 q 811 623 811 648 q 1094 340 827 538 q 1139 294 1139 306 l 1139 249 q 1082 203 1116 203 l 856 374 q 754 521 754 491 l 732 521 q 709 487 732 487 q 720 475 709 475 q 607 203 640 239 l 595 203 q 551 249 578 203 l 551 328 q 720 736 593 540 q 845 962 802 962 m 380 827 l 460 827 q 505 759 482 827 q 392 294 505 578 q 313 113 331 113 q 222 203 222 125 q 380 691 335 450 l 358 691 q 132 600 223 657 q 41 668 80 600 q 324 804 41 739 q 380 827 324 824 z "},"ㄴ":{"ha":559,"x_min":41,"x_max":505,"o":"m 75 985 l 120 985 q 165 940 138 985 l 165 838 q 142 691 165 742 q 154 589 154 629 l 154 498 q 142 453 154 473 l 165 340 q 154 328 154 340 l 176 317 q 448 374 238 340 q 505 328 500 352 l 505 306 q 256 193 505 212 l 176 170 l 98 170 q 41 396 41 265 q 75 985 41 647 z "},"ㄵ":{"ha":1182,"x_min":41,"x_max":1128,"o":"m 75 849 l 120 849 q 176 532 176 849 l 176 509 q 188 498 176 498 l 176 475 l 176 431 l 188 317 l 403 396 q 437 385 425 385 q 460 408 441 408 l 494 408 q 516 385 516 404 q 267 203 464 275 q 132 136 267 173 l 109 136 q 63 317 63 207 l 63 612 q 41 827 63 690 l 75 849 m 766 849 l 867 849 q 958 793 937 849 q 901 544 947 675 q 1128 294 924 446 l 1128 249 q 1082 181 1128 181 q 845 396 974 227 q 822 431 845 431 q 618 113 675 165 q 562 170 588 121 l 562 203 q 766 566 580 306 q 822 691 766 593 q 811 702 811 691 q 833 725 833 702 l 822 725 l 743 713 l 743 725 l 562 668 l 516 736 q 766 849 533 849 z "},"ㄶ":{"ha":1216,"x_min":41,"x_max":1162,"o":"m 766 1065 q 822 1008 795 1057 q 811 815 811 875 l 992 815 q 1162 747 1162 804 l 1162 725 l 1128 680 l 1105 691 l 992 691 q 947 680 966 691 l 924 691 l 766 657 l 709 680 q 595 646 620 646 l 494 646 q 460 747 460 646 q 471 781 471 770 q 720 804 658 804 l 720 827 q 709 838 720 838 l 720 861 q 709 906 720 886 q 766 1065 717 1065 m 154 985 q 211 940 205 964 l 211 918 q 154 396 154 578 l 154 374 l 165 351 l 437 419 l 460 408 l 505 408 l 528 419 l 539 374 q 392 272 539 332 l 109 193 q 41 317 41 215 l 41 351 q 154 985 86 985 m 1038 612 q 1139 487 1139 577 l 1139 475 q 935 181 1139 303 q 879 159 899 159 q 698 362 698 159 l 698 385 q 720 475 698 395 q 709 487 720 487 q 1015 612 709 551 l 1038 612 m 800 362 l 800 306 l 856 294 q 1038 441 950 294 l 1038 487 q 1004 498 1015 498 q 822 408 822 465 q 800 362 822 390 z "},"ㄷ":{"ha":820,"x_min":41,"x_max":766,"o":"m 573 906 q 629 838 629 899 l 629 827 q 573 770 629 815 l 551 781 l 539 781 l 482 770 l 482 781 q 245 736 455 759 q 199 532 218 736 q 313 396 219 396 q 732 453 641 453 l 766 396 q 562 294 766 321 l 482 294 q 301 249 456 275 q 86 566 86 296 q 109 691 86 630 q 41 781 41 691 q 279 872 41 848 l 301 884 l 301 872 l 324 884 l 335 884 q 347 872 347 884 q 573 906 375 895 z "},"ㄸ":{"ha":888,"x_min":41,"x_max":833,"o":"m 698 1110 q 766 1031 766 1092 q 686 974 766 974 l 664 985 q 516 951 604 962 l 516 940 q 528 895 516 914 q 516 884 528 884 q 551 578 539 578 l 539 555 q 551 521 551 533 l 788 646 l 811 646 q 833 623 833 642 q 652 431 833 484 q 539 340 539 363 q 256 441 357 366 q 154 691 154 544 l 154 872 l 98 872 q 41 962 41 901 l 41 974 q 120 1019 41 1004 l 120 1008 q 347 1065 306 1044 l 347 1053 q 698 1110 484 1110 m 267 657 q 414 498 306 498 l 437 498 l 426 521 q 403 928 426 587 q 279 815 279 899 q 267 657 267 719 z "},"ㄹ":{"ha":820,"x_min":41,"x_max":766,"o":"m 392 1019 q 618 895 618 980 q 629 849 629 875 q 380 566 629 703 q 188 453 188 538 l 188 419 q 301 294 218 294 q 720 498 385 294 q 766 465 766 481 l 766 419 q 403 181 717 315 l 324 159 l 313 159 q 75 431 149 159 l 75 498 q 290 657 75 629 q 505 838 365 657 l 505 849 q 392 895 505 876 q 120 815 214 869 l 98 815 q 41 906 41 844 q 176 985 41 922 q 188 974 188 985 q 392 1019 235 1004 z "},"ㄺ":{"ha":933,"x_min":41,"x_max":879,"o":"m 176 872 q 426 634 340 872 l 426 566 q 211 431 406 498 q 188 340 188 389 q 267 203 188 245 q 460 317 374 203 q 539 385 467 317 l 562 385 l 562 351 q 380 102 562 215 l 313 90 q 86 306 164 90 l 86 374 q 290 578 86 502 q 324 634 324 614 q 199 747 271 747 l 98 747 q 41 849 41 768 q 176 872 60 861 m 709 793 q 879 465 857 793 q 867 453 867 465 l 879 453 q 800 181 833 181 q 720 272 751 181 q 766 521 766 399 q 720 668 748 659 q 539 634 713 668 q 482 680 488 656 l 482 725 q 709 793 673 793 z "},"ㄻ":{"ha":1148,"x_min":41,"x_max":1094,"o":"m 211 815 q 414 668 414 815 l 414 646 q 211 362 414 560 q 142 260 142 286 q 222 159 142 198 l 256 159 q 551 328 302 159 q 595 340 576 328 q 607 306 595 328 q 494 159 607 239 q 279 34 398 34 l 222 34 q 41 260 41 105 l 41 306 q 245 566 41 382 q 301 680 301 637 l 267 702 l 233 702 q 142 680 153 680 l 120 680 q 52 713 61 680 l 52 770 l 211 815 m 652 804 q 720 634 705 804 q 969 680 886 680 l 992 680 q 1094 532 1094 622 q 856 56 1094 376 q 766 90 818 56 q 732 45 766 45 q 607 453 637 45 q 595 702 595 551 l 595 793 l 652 804 m 720 487 q 777 181 749 181 q 890 340 818 202 q 969 555 969 466 l 958 555 q 720 487 834 555 z "},"ㄼ":{"ha":1205,"x_min":41,"x_max":1151,"o":"m 1048 906 q 1151 759 1151 868 l 1151 747 q 1139 736 1151 736 l 1151 680 q 992 260 1151 435 q 867 181 943 181 l 845 181 q 698 317 772 181 q 664 589 664 448 l 664 725 q 652 736 664 736 l 664 759 l 652 781 q 686 827 669 827 l 709 827 q 777 691 777 786 l 777 566 q 788 555 777 555 l 777 532 l 777 521 l 788 521 q 1038 634 1038 592 l 1048 747 l 1048 838 q 1015 861 1015 838 l 1015 872 q 1048 906 1015 888 m 380 815 l 392 815 q 482 680 437 815 q 256 317 482 585 l 256 306 l 369 294 q 607 385 452 294 l 618 362 l 618 328 q 460 170 594 170 l 347 170 q 109 328 109 194 l 109 351 l 335 668 l 335 691 q 120 566 281 680 q 41 657 69 566 q 380 815 208 815 m 811 351 l 811 328 q 845 317 823 328 q 913 374 845 336 l 947 431 q 811 351 812 367 z "},"ㄽ":{"ha":1295,"x_min":41,"x_max":1241,"o":"m 176 815 q 279 804 238 804 l 290 804 q 301 815 301 804 q 494 589 494 772 l 494 555 q 165 272 435 428 l 165 260 q 290 193 186 193 q 471 294 326 193 l 494 283 q 607 374 494 342 q 618 306 618 314 q 256 56 494 56 q 41 362 41 138 q 369 600 218 455 q 392 646 369 618 l 392 668 q 301 691 382 668 l 245 691 q 142 657 185 691 l 132 657 q 52 702 71 657 l 52 747 q 176 815 75 787 m 890 815 q 924 691 924 745 q 856 498 856 528 q 1185 283 940 406 q 1241 181 1241 231 l 1241 159 q 1219 136 1241 136 q 1207 147 1207 136 l 1185 136 q 788 362 815 362 l 686 0 l 652 0 q 595 56 637 0 l 595 125 q 822 815 595 256 l 890 815 z "},"ㄾ":{"ha":1307,"x_min":41,"x_max":1253,"o":"m 675 872 q 800 861 758 872 q 1004 872 907 872 l 1048 872 q 1162 781 1162 864 l 1151 781 l 1162 759 l 1162 747 q 1139 736 1139 747 q 1128 747 1128 736 l 856 725 q 867 713 856 713 q 856 702 867 702 q 879 612 856 682 l 1151 680 q 1196 646 1196 663 l 1196 578 q 856 475 1196 539 q 833 441 849 475 q 913 227 833 309 l 913 215 l 958 215 l 1219 328 q 1253 317 1240 317 l 1253 260 q 947 68 1253 121 q 766 227 865 88 q 720 385 720 379 l 732 385 l 720 408 l 720 509 q 754 725 720 549 q 652 804 688 725 l 652 815 q 675 872 655 872 m 380 838 l 392 838 q 505 713 505 789 q 256 431 505 609 q 233 362 233 393 l 233 340 q 324 227 233 227 q 629 351 406 227 l 652 351 q 664 340 652 340 l 664 351 q 652 362 652 351 l 664 362 q 709 328 709 345 l 709 283 q 607 181 696 245 q 324 90 460 90 q 109 396 109 144 q 267 600 109 536 q 358 713 267 623 l 301 713 q 120 646 275 713 q 41 725 41 646 l 41 736 q 380 838 117 838 z "},"ㄿ":{"ha":1239,"x_min":41,"x_max":1185,"o":"m 1038 940 l 1048 940 q 1139 838 1126 940 q 924 770 1106 798 l 924 759 l 901 770 q 822 747 880 770 q 833 725 822 725 q 822 555 822 612 l 822 465 q 856 374 822 380 q 935 747 913 570 l 958 759 l 981 759 q 1038 623 1038 699 q 992 385 1015 476 l 1048 385 l 1117 396 q 1185 294 1185 396 l 1185 272 q 947 227 1185 249 q 732 170 787 170 q 641 249 664 170 q 743 317 641 303 l 698 521 l 698 532 q 709 725 698 592 q 573 702 630 702 l 562 702 q 505 781 528 711 q 585 849 505 849 l 1038 940 m 290 928 q 471 861 372 928 q 494 759 494 787 l 494 736 q 222 487 479 623 q 165 419 222 473 q 154 385 165 385 l 188 306 l 211 306 q 414 385 275 306 q 448 396 436 396 q 460 385 448 385 q 516 419 460 419 l 539 385 q 313 170 539 286 q 222 159 232 159 q 41 431 41 231 l 41 453 q 132 578 60 578 q 142 566 132 566 q 301 702 142 594 l 369 781 l 369 793 l 256 793 q 109 770 211 793 q 41 884 41 784 q 290 928 41 908 z "},"ㅀ":{"ha":1295,"x_min":41,"x_max":1241,"o":"m 811 985 q 913 849 883 985 q 935 815 935 833 l 1094 815 q 1173 793 1173 812 l 1196 804 q 1241 759 1214 804 q 1060 680 1241 691 q 1151 634 1060 643 q 1207 475 1207 559 q 1026 238 1207 362 l 924 238 q 788 408 813 238 q 879 600 788 489 q 913 623 913 600 l 935 612 l 947 612 q 1026 657 992 657 l 1026 668 l 992 668 q 607 612 842 668 q 551 691 551 657 l 528 691 q 154 419 528 574 l 154 385 q 256 272 154 291 q 573 374 298 272 q 709 408 595 374 q 754 374 754 391 q 267 125 557 171 l 256 125 q 41 408 41 206 l 41 465 q 188 589 41 544 q 199 578 188 578 q 290 634 199 593 q 414 759 393 696 l 313 759 q 165 713 176 713 q 98 793 98 713 l 98 815 q 392 895 129 880 q 539 793 539 861 q 551 747 539 767 q 539 736 539 747 l 551 736 q 833 793 570 762 l 833 804 q 777 928 800 847 l 811 985 m 1060 509 q 947 475 1060 487 q 913 385 913 399 l 992 385 q 1072 465 992 397 q 1094 487 1072 487 l 1094 498 q 1060 509 1082 498 z "},"ㅁ":{"ha":763,"x_min":41,"x_max":709,"o":"m 132 804 q 176 747 176 763 q 494 793 371 793 l 539 793 q 551 804 551 793 q 698 702 698 804 q 709 634 698 634 q 698 600 698 612 q 709 566 698 588 l 698 498 l 698 465 q 709 419 698 439 q 686 272 686 368 l 698 272 q 165 159 698 203 q 109 227 165 189 q 41 713 75 549 q 132 804 63 804 m 188 657 l 245 317 l 267 317 q 551 351 400 317 q 585 702 585 450 l 573 702 l 188 657 z "},"ㅂ":{"ha":639,"x_min":41,"x_max":585,"o":"m 63 985 q 165 872 165 958 q 222 566 188 673 q 448 668 448 621 q 482 781 467 781 q 460 940 460 912 q 494 951 481 951 q 585 872 545 932 l 585 827 q 562 804 585 804 q 573 793 562 793 q 516 498 559 603 l 528 441 l 528 419 q 347 193 444 193 l 313 193 q 41 951 104 281 q 63 985 52 985 m 245 441 q 324 306 304 306 q 414 521 414 396 q 245 441 245 479 z "},"ㅃ":{"ha":718,"x_min":41,"x_max":664,"o":"m 573 1019 q 664 827 664 975 q 347 181 607 232 q 86 475 181 181 q 52 747 52 655 l 52 928 l 41 951 l 86 974 q 176 918 176 935 l 176 770 q 188 759 176 759 l 176 736 l 176 725 l 188 668 l 245 680 l 245 691 l 233 713 l 245 713 q 222 747 233 747 l 233 770 l 233 793 q 222 804 233 804 q 233 815 222 815 l 222 872 l 222 962 q 245 985 225 985 l 267 985 q 347 861 347 959 q 369 725 347 831 q 539 759 457 725 q 562 827 539 779 q 551 906 551 871 q 562 940 562 928 q 539 1008 539 940 q 573 1019 561 1019 m 380 589 q 403 374 392 589 l 414 374 q 528 634 460 454 l 516 634 q 380 589 420 612 m 199 544 q 313 306 199 419 l 324 306 q 392 340 392 317 l 380 340 q 324 317 344 317 q 256 555 256 408 l 222 555 l 199 544 z "},"ㅄ":{"ha":1103,"x_min":41,"x_max":1048,"o":"m 800 1008 q 890 962 884 994 l 890 940 q 766 668 890 880 l 766 646 q 1048 351 888 492 l 1048 340 q 992 283 1048 324 q 709 544 876 301 l 698 544 q 607 215 652 342 l 573 193 l 562 193 q 516 272 536 193 q 539 453 539 395 l 528 453 q 573 623 547 498 q 686 827 585 623 q 777 1008 696 827 l 800 1008 m 63 951 q 176 736 176 951 q 211 589 176 718 l 233 600 q 245 589 245 600 q 437 646 437 616 q 482 804 471 705 q 471 895 471 848 q 494 918 475 918 l 505 918 q 573 747 573 872 q 494 465 573 720 q 301 238 393 294 l 290 238 q 109 453 186 238 q 52 509 78 453 l 52 555 q 86 578 86 555 q 41 940 41 836 l 63 951 m 245 487 q 267 385 245 458 l 279 385 q 380 509 302 385 l 380 521 l 245 487 z "},"ㅅ":{"ha":707,"x_min":41,"x_max":652,"o":"m 335 1053 q 426 997 355 1050 q 301 646 426 944 l 301 634 q 641 317 392 494 q 652 306 652 317 l 652 294 q 595 238 652 279 q 245 509 488 262 l 233 509 q 142 193 176 364 l 120 181 l 98 181 q 41 317 52 181 q 52 362 52 337 l 41 362 q 267 940 41 445 q 335 1053 284 1053 z "},"ㅆ":{"ha":979,"x_min":41,"x_max":924,"o":"m 290 997 q 403 895 403 997 l 267 634 l 267 623 q 426 487 349 532 l 460 487 q 675 838 641 820 q 766 781 736 838 l 664 532 l 664 521 q 822 385 682 521 q 924 260 924 317 q 856 238 887 238 q 607 431 809 238 l 585 431 q 482 147 482 177 l 426 136 q 392 193 400 136 q 403 203 403 193 l 380 215 q 414 385 392 243 q 222 509 281 450 l 211 509 q 109 227 140 227 l 86 227 q 41 272 75 227 l 52 328 q 41 362 52 340 q 52 408 52 382 l 41 408 q 245 895 86 595 q 290 997 290 969 z "},"ㅇ":{"ha":774,"x_min":41,"x_max":720,"o":"m 494 838 q 675 759 671 794 q 720 657 700 759 l 720 600 l 709 532 l 720 509 q 324 90 595 90 l 279 90 q 41 362 41 126 l 41 408 q 52 453 41 433 l 41 475 l 142 725 q 233 815 142 768 l 233 827 l 290 827 l 324 804 l 392 815 l 392 793 l 403 793 l 403 815 q 392 827 392 815 q 494 838 433 827 m 165 374 q 256 203 193 203 l 290 203 q 482 317 482 250 q 607 600 607 456 l 607 623 q 505 725 607 725 q 245 600 245 708 q 165 374 198 566 z "},"ㅈ":{"ha":865,"x_min":41,"x_max":811,"o":"m 505 849 q 585 793 578 820 q 516 532 585 747 l 516 498 q 800 227 643 324 l 811 203 q 743 147 811 182 l 743 136 q 426 396 628 194 q 358 283 393 372 q 222 22 308 224 q 188 12 210 22 l 132 45 l 142 102 l 132 125 q 335 532 132 207 q 414 713 414 663 l 86 600 q 41 680 41 640 l 41 725 l 301 804 q 313 793 301 793 q 505 849 313 827 z "},"ㅉ":{"ha":1171,"x_min":41,"x_max":1117,"o":"m 437 918 q 551 861 533 861 q 856 906 698 895 q 913 849 856 899 l 913 793 q 879 657 879 685 q 1060 475 954 528 q 1117 441 1060 450 l 1117 385 q 1082 362 1082 385 l 1060 362 q 822 532 822 456 l 811 532 q 664 260 768 519 q 595 238 627 238 q 551 328 573 238 q 403 453 489 328 l 392 453 q 233 159 365 453 l 176 147 l 154 181 l 154 227 q 324 646 154 350 l 301 657 l 176 657 q 109 634 146 657 q 41 725 41 634 l 41 736 q 437 918 235 859 m 528 725 q 516 736 528 736 q 460 589 516 705 q 528 465 473 589 q 585 419 578 419 l 743 770 l 732 770 q 528 725 568 725 m 290 725 l 290 702 l 301 702 q 313 713 313 702 l 335 702 l 347 702 l 358 747 q 290 725 321 725 z "},"ㅊ":{"ha":1058,"x_min":41,"x_max":1004,"o":"m 290 1178 l 347 1178 q 505 940 405 1178 l 505 928 l 585 940 q 664 884 585 915 l 664 838 l 652 759 q 743 657 673 759 q 913 487 758 657 q 1004 374 1004 424 l 958 328 l 924 328 q 607 646 607 602 l 585 646 q 403 340 566 589 q 335 238 403 283 q 279 294 305 238 q 392 589 301 437 l 482 770 l 471 770 q 132 646 152 646 l 75 646 q 41 725 41 687 q 256 815 41 765 q 380 872 256 844 q 426 906 426 895 q 267 1166 267 1096 l 290 1178 z "},"ㅋ":{"ha":786,"x_min":41,"x_max":732,"o":"m 539 1031 l 595 1019 l 595 1031 q 720 962 609 1031 l 720 940 q 732 838 720 899 q 720 804 720 816 l 732 804 q 641 487 732 783 q 551 215 593 215 l 516 215 q 460 317 485 215 q 494 521 494 484 l 448 521 l 426 509 l 426 521 q 279 498 375 498 l 132 498 q 75 600 75 518 q 98 623 78 623 l 120 623 q 539 657 374 623 q 585 861 585 781 l 585 906 l 573 906 q 109 815 161 815 l 98 815 q 41 884 80 815 q 188 951 52 951 q 539 1031 355 1008 z "},"ㅌ":{"ha":876,"x_min":41,"x_max":822,"o":"m 505 985 q 652 918 599 985 q 595 838 652 854 l 516 849 q 211 781 211 819 q 199 668 199 722 q 595 747 385 713 q 607 725 595 725 q 641 736 629 736 l 675 691 l 675 680 q 290 555 675 627 q 176 509 176 527 q 313 203 200 203 q 766 340 652 340 q 822 272 822 304 q 313 68 822 207 q 86 272 200 68 q 41 408 49 408 q 52 441 52 429 q 41 544 52 482 q 98 872 52 691 l 86 895 q 98 928 98 917 q 505 985 223 928 z "},"ㅍ":{"ha":967,"x_min":41,"x_max":913,"o":"m 754 951 q 845 884 787 944 q 777 815 845 859 l 698 827 l 686 827 l 629 815 l 629 804 q 686 759 663 804 q 585 351 686 673 l 641 351 q 652 362 652 351 l 675 351 l 686 351 q 788 362 727 351 q 913 283 848 362 q 551 215 913 215 q 132 147 302 147 q 86 249 86 162 q 437 317 86 272 l 460 351 q 347 713 347 540 l 358 736 q 335 781 349 781 q 301 770 313 770 l 301 781 q 98 747 224 747 q 41 849 58 747 q 754 951 41 890 m 482 804 q 471 770 482 792 q 494 532 494 586 l 505 532 q 573 804 516 648 l 482 804 z "},"ㅎ":{"ha":899,"x_min":41,"x_max":845,"o":"m 267 1053 q 414 872 347 1053 l 437 861 l 551 861 l 686 849 l 686 861 q 822 804 822 838 l 822 770 q 788 736 822 761 l 766 747 l 686 747 q 142 691 615 747 l 120 691 q 41 793 41 691 l 75 815 l 165 815 l 222 804 q 324 838 222 831 q 233 1008 233 962 l 267 1053 m 698 634 q 845 521 783 634 l 845 453 q 629 170 806 291 l 551 147 q 335 453 382 147 q 698 634 335 574 m 482 317 q 539 283 482 291 q 732 509 627 283 q 686 521 686 509 q 482 396 482 477 l 482 317 z "},"ㅏ":{"ha":536,"x_min":41,"x_max":482,"o":"m 132 974 q 222 918 222 935 q 188 475 222 838 l 211 475 q 324 498 324 475 q 482 441 418 498 l 482 419 q 188 328 439 368 l 188 294 q 211 56 188 116 l 165 12 l 132 12 q 41 396 63 12 q 63 509 54 414 l 52 509 l 63 532 l 63 589 q 120 974 86 974 l 132 974 z "},"ㅐ":{"ha":752,"x_min":41,"x_max":698,"o":"m 75 918 l 98 918 q 176 849 176 863 l 176 498 l 188 475 l 245 487 l 347 487 q 358 475 358 487 q 528 521 404 506 q 562 612 562 602 q 551 623 562 623 l 573 747 l 629 747 q 698 589 686 653 q 675 521 675 552 l 686 521 q 652 -91 652 450 q 585 -125 641 -125 l 562 -125 q 505 12 531 -125 l 516 34 q 505 79 505 54 q 516 90 505 90 l 505 113 q 528 396 505 168 q 176 328 176 359 l 176 283 q 188 272 176 272 l 176 249 q 199 56 176 222 q 142 -12 184 9 q 41 328 53 -12 q 52 793 52 578 l 52 895 q 75 918 56 918 z "},"ㅑ":{"ha":616,"x_min":41,"x_max":562,"o":"m 75 1019 q 188 827 188 1000 l 188 815 l 176 793 q 188 747 188 773 q 426 815 243 747 l 494 827 q 562 781 562 804 q 211 612 504 705 q 188 578 211 578 l 188 555 q 211 532 191 532 q 539 544 248 532 l 551 521 l 551 487 q 222 396 551 428 l 176 408 l 176 362 q 188 351 176 351 l 176 328 l 176 317 q 188 79 176 227 q 132 22 180 49 l 98 22 q 41 283 41 115 q 52 827 52 760 l 41 1008 q 75 1019 62 1019 z "},"ㅒ":{"ha":695,"x_min":41,"x_max":641,"o":"m 142 974 l 154 974 q 245 895 219 937 l 245 884 q 233 713 245 827 l 245 713 l 471 759 l 471 736 l 482 736 q 528 974 482 768 l 539 974 q 641 872 641 960 q 573 306 573 378 l 573 283 q 562 272 573 272 l 573 249 l 573 147 q 505 45 573 45 q 414 136 463 45 l 426 193 l 426 362 l 437 441 q 211 396 249 396 l 211 340 l 222 203 q 165 147 214 203 q 75 374 75 172 l 75 509 l 41 634 q 98 680 96 664 q 109 951 109 885 l 142 974 m 222 544 q 233 532 233 544 q 222 521 222 532 l 233 521 l 392 555 q 414 532 395 532 q 460 612 414 573 l 460 634 q 222 544 222 591 z "},"ㅓ":{"ha":752,"x_min":41,"x_max":698,"o":"m 539 1166 q 675 985 675 1166 q 698 736 686 736 l 686 657 l 686 136 q 698 34 686 95 q 652 -23 675 -18 l 607 -23 q 528 317 536 -23 q 539 600 539 430 l 539 668 l 528 668 q 120 578 326 578 q 41 668 52 578 l 41 680 q 63 702 44 702 l 132 702 q 471 770 247 702 l 471 759 q 528 781 508 781 q 539 770 528 770 q 551 781 539 781 l 539 838 l 539 918 q 516 1144 539 1031 q 539 1166 539 1144 z "},"ㅔ":{"ha":1058,"x_min":41,"x_max":1004,"o":"m 879 1065 q 958 974 958 1002 q 969 362 969 583 l 969 328 q 981 227 969 288 q 969 215 981 215 q 1004 -34 969 201 l 958 -68 l 901 -68 q 822 408 822 -68 l 822 453 q 811 509 822 491 l 822 578 l 822 759 q 811 804 822 784 q 822 849 822 824 l 811 872 q 822 906 822 894 l 811 928 l 822 951 l 811 1019 l 811 1031 q 879 1065 822 1065 m 551 1042 q 641 985 621 988 q 629 951 641 973 q 618 396 618 601 q 607 385 618 385 q 641 79 641 220 q 573 34 588 34 q 471 419 497 34 l 471 589 q 142 498 181 498 q 41 600 41 519 q 142 634 66 618 l 165 623 l 358 668 q 380 646 361 646 q 426 691 380 671 q 448 668 429 668 q 482 691 448 691 q 471 725 482 703 q 494 1031 494 971 l 551 1042 z "},"ㅕ":{"ha":786,"x_min":41,"x_max":732,"o":"m 562 962 l 585 962 q 675 872 624 962 q 732 -170 732 -49 q 664 -227 713 -227 q 585 -136 621 -218 q 573 362 573 162 l 573 396 q 551 419 573 419 q 233 283 542 403 q 98 227 164 227 q 41 340 43 275 q 562 521 216 431 q 573 555 573 543 q 528 895 547 895 q 562 962 543 962 m 448 804 q 528 736 528 766 q 142 623 406 665 l 142 634 l 120 623 q 41 713 41 623 l 41 747 q 132 759 51 747 l 132 747 q 324 781 154 759 q 335 770 324 770 l 335 793 l 403 793 l 426 781 q 448 804 429 804 z "},"ㅖ":{"ha":1035,"x_min":41,"x_max":981,"o":"m 766 861 q 901 657 901 861 q 981 -181 935 114 l 947 -204 l 913 -204 q 800 159 800 -204 q 777 249 788 159 q 788 260 777 260 l 754 815 q 766 861 766 836 m 482 849 l 494 849 q 607 804 519 849 q 573 283 573 400 l 573 -34 q 595 -159 595 -144 l 595 -204 q 551 -250 595 -222 l 505 -250 q 426 0 468 -250 q 437 12 426 12 l 426 90 q 437 317 426 164 l 414 317 q 120 227 172 227 q 52 317 52 250 l 52 351 l 120 362 l 120 351 q 347 431 317 408 l 369 419 q 392 441 373 441 q 403 431 392 431 q 448 544 448 477 l 448 589 l 98 487 q 41 589 63 487 l 41 600 q 256 680 174 639 l 279 668 l 324 702 l 380 702 q 460 691 429 691 q 482 849 460 750 z "},"ㅗ":{"ha":967,"x_min":41,"x_max":913,"o":"m 482 815 q 585 713 585 772 q 539 249 562 653 l 539 215 q 573 193 539 193 q 833 215 613 193 q 913 170 913 189 l 913 113 q 426 34 913 83 q 279 0 426 22 l 199 0 q 41 79 66 0 l 41 90 l 75 136 l 98 125 l 245 125 q 403 170 403 147 l 403 215 q 448 725 403 445 l 448 781 q 482 815 448 798 z "},"ㅘ":{"ha":1442,"x_min":41,"x_max":1388,"o":"m 969 940 q 1082 770 1082 900 q 1117 441 1117 503 l 1128 441 q 1230 453 1190 453 l 1241 453 l 1264 441 q 1286 465 1267 465 l 1320 465 q 1388 419 1320 434 q 1162 317 1388 350 l 1117 272 q 1139 -68 1128 -25 q 1038 -136 1139 -122 q 981 12 981 -47 q 924 895 981 573 q 969 940 935 940 m 516 770 q 607 691 536 770 l 595 612 l 595 544 q 607 238 595 447 l 629 227 q 675 238 655 227 l 698 227 l 811 260 q 856 249 831 249 l 890 249 q 913 181 913 189 q 109 0 913 121 q 41 90 41 23 l 41 125 l 52 125 q 482 203 137 125 q 460 498 460 391 l 460 612 q 471 623 460 623 l 460 646 q 471 747 471 707 l 471 759 l 516 770 z "},"ㅙ":{"ha":1442,"x_min":41,"x_max":1388,"o":"m 913 928 q 1026 872 969 928 l 1026 838 q 1038 532 1026 741 q 1253 759 1253 617 q 1275 815 1253 815 l 1320 815 q 1388 747 1388 781 q 1366 12 1366 123 q 1388 -181 1366 -79 q 1332 -250 1388 -210 q 1219 -136 1264 -250 q 1230 -125 1219 -125 q 1207 45 1219 45 l 1219 102 l 1219 193 q 1241 431 1219 371 q 1230 465 1230 452 l 1230 498 q 1094 396 1213 498 q 1048 374 1066 374 q 1082 170 1072 170 l 1072 147 q 1094 79 1094 101 q 1015 -23 1094 -23 q 890 680 929 -23 l 890 872 q 879 884 890 884 q 913 928 896 928 m 347 736 l 358 736 q 471 680 397 736 l 460 657 l 460 646 l 471 623 l 460 623 q 516 328 494 328 l 551 328 l 573 340 l 573 328 l 595 340 l 618 340 l 641 328 q 698 374 641 374 l 720 374 q 732 351 720 351 q 822 385 788 385 l 822 328 q 199 113 681 189 l 98 113 q 41 203 41 142 l 41 215 q 63 238 44 238 l 120 238 q 301 272 249 238 l 324 260 l 358 283 q 369 272 358 272 l 380 294 l 380 317 q 335 544 358 344 l 347 544 l 335 566 q 347 578 335 578 q 324 725 324 643 l 347 736 z "},"ㅚ":{"ha":1194,"x_min":41,"x_max":1139,"o":"m 969 918 l 992 918 q 1082 815 1082 864 q 1072 804 1082 804 l 1117 317 l 1105 317 l 1117 294 l 1117 136 q 1139 22 1119 22 l 1128 0 l 1139 -23 l 1094 -57 l 1038 -57 q 981 12 1021 -57 q 947 657 967 657 q 958 668 947 668 l 947 804 l 947 895 q 969 918 950 918 m 437 680 q 551 589 519 656 q 539 578 551 578 q 562 317 562 455 l 562 306 q 585 294 585 306 l 607 306 l 618 306 l 641 294 q 743 340 641 312 q 833 283 808 340 q 313 68 671 170 l 109 34 q 41 147 41 60 q 426 294 426 231 l 437 351 q 392 578 406 578 l 403 600 l 403 623 q 392 634 403 634 q 437 680 400 668 z "},"ㅛ":{"ha":1318,"x_min":41,"x_max":1264,"o":"m 732 646 q 845 566 845 646 l 845 544 l 833 465 l 845 465 l 833 441 l 833 431 q 800 193 833 298 l 811 193 q 901 203 858 193 q 1128 193 1027 193 l 1207 193 q 1264 125 1264 165 q 1241 90 1253 90 l 437 56 q 358 68 392 68 l 63 34 q 41 56 63 56 q 154 147 41 147 q 176 215 154 215 l 199 215 q 222 193 222 212 q 211 181 211 193 q 222 170 222 181 q 414 215 388 197 l 426 215 q 414 385 414 328 l 414 396 q 426 487 414 443 q 414 578 414 531 l 414 612 q 437 634 418 634 l 460 634 q 539 566 524 634 q 528 555 539 555 q 539 385 539 441 l 539 203 q 562 181 543 181 l 618 181 q 629 193 629 181 l 652 181 q 709 203 709 181 q 698 215 709 215 l 732 487 q 720 521 720 509 l 732 521 l 720 544 l 720 589 l 732 646 z "},"ㅜ":{"ha":967,"x_min":41,"x_max":913,"o":"m 845 770 q 913 713 913 726 l 913 691 q 641 600 913 643 l 652 544 q 664 272 652 411 q 652 147 652 210 q 664 113 664 125 l 652 90 q 664 12 664 45 l 652 -34 q 664 -91 664 -53 q 629 -125 664 -107 l 607 -113 q 585 -147 607 -147 q 516 22 528 -147 l 516 215 q 539 306 516 264 l 516 453 l 528 453 q 494 566 509 566 q 109 521 191 521 l 86 521 q 41 634 55 521 q 154 668 41 657 l 154 657 q 437 713 179 657 l 437 702 l 539 725 q 573 713 561 713 q 720 759 573 736 l 720 747 q 845 770 781 770 z "},"ㅝ":{"ha":1375,"x_min":41,"x_max":1320,"o":"m 1173 849 l 1196 849 q 1310 747 1274 849 q 1320 521 1320 621 l 1320 249 q 1310 -34 1320 135 q 1320 -147 1320 -74 q 1241 -193 1281 -193 l 1230 -193 q 1162 -34 1162 -143 q 1173 170 1173 73 l 1173 272 l 1162 294 q 833 181 990 227 q 686 136 751 136 q 641 215 641 154 l 641 260 l 1117 396 l 1117 385 q 1185 465 1185 385 l 1185 487 q 1162 815 1185 705 q 1173 849 1173 838 m 675 725 q 766 680 725 709 q 777 691 766 691 l 800 657 l 800 612 q 732 578 732 597 l 664 589 q 528 544 528 574 l 539 544 q 482 -79 505 395 l 494 -147 q 414 -238 494 -238 l 403 -238 q 347 -170 386 -238 l 347 68 l 358 181 l 347 181 l 380 351 q 369 362 380 362 l 392 509 q 380 521 380 509 q 109 465 166 465 l 86 465 q 41 566 41 479 q 551 713 66 586 l 573 702 l 629 713 q 664 702 652 702 l 675 725 z "},"ㅞ":{"ha":1488,"x_min":41,"x_max":1434,"o":"m 1310 1042 l 1332 1042 q 1423 849 1423 1042 l 1423 770 q 1434 725 1423 745 q 1423 680 1423 705 l 1423 589 q 1400 408 1423 573 l 1400 -193 q 1332 -250 1400 -205 q 1253 -136 1253 -220 q 1264 249 1264 100 l 1264 396 l 1275 465 q 1264 521 1264 483 q 1275 532 1264 532 l 1264 589 l 1264 680 q 1275 691 1264 691 l 1264 713 l 1264 759 l 1298 804 l 1286 827 l 1298 827 q 1286 838 1298 838 l 1298 884 q 1286 918 1298 895 q 1298 997 1298 962 q 1286 1031 1286 1019 l 1310 1042 m 1038 1031 q 1162 804 1162 1031 q 1173 634 1173 705 q 1151 600 1151 634 q 1173 45 1151 260 q 1072 -57 1155 -57 q 1015 317 1034 -57 q 539 159 563 159 l 528 159 q 494 215 502 159 l 482 215 l 471 102 l 471 0 q 460 -12 471 -12 l 471 -34 l 471 -57 l 460 -79 l 471 -79 q 392 -136 455 -136 l 380 -136 q 335 12 343 -136 l 335 136 l 347 193 l 335 193 l 347 215 l 347 260 q 369 385 347 340 l 358 385 l 369 408 l 369 453 q 86 396 175 396 q 41 487 41 460 q 211 544 41 544 q 301 578 211 555 q 313 566 301 566 q 607 657 313 592 q 732 668 648 668 l 743 668 q 788 623 743 652 l 788 578 q 505 453 505 503 q 494 283 494 311 l 528 283 q 743 351 566 303 q 1015 431 975 431 l 1015 465 q 1004 498 1015 498 l 1015 555 l 1015 600 q 1026 838 1015 730 q 1015 1019 1015 903 l 1038 1031 z "},"ㅟ":{"ha":1160,"x_min":41,"x_max":1105,"o":"m 958 951 l 1015 951 q 1048 906 1015 926 l 1060 906 q 1105 -23 1105 210 q 1048 -57 1078 -23 q 947 294 947 -57 q 935 940 947 569 l 958 951 m 698 691 q 788 634 788 652 l 788 612 q 585 532 788 575 l 551 79 q 562 -159 562 -92 l 482 -181 q 414 56 421 -181 q 437 487 414 209 q 109 419 296 441 q 41 509 41 442 l 41 555 l 52 555 q 482 646 236 555 q 698 691 640 691 z "},"ㅠ":{"ha":1058,"x_min":41,"x_max":1004,"o":"m 879 713 q 1004 623 1004 672 q 901 532 1004 602 q 947 -79 901 212 q 890 -125 895 -101 q 777 306 777 -125 q 766 532 766 306 l 743 544 l 720 544 q 585 465 585 544 l 585 453 q 595 260 585 347 q 585 147 585 201 q 595 113 595 125 l 585 113 l 595 90 q 585 56 595 79 l 595 -12 l 595 -57 q 528 -91 585 -91 q 460 68 479 -91 l 460 193 q 448 238 460 218 q 460 283 460 258 l 460 396 q 448 408 460 408 l 460 431 l 460 441 l 448 498 q 98 465 243 465 q 41 521 67 472 l 41 589 l 52 589 q 358 623 235 589 q 369 612 369 623 l 448 646 q 482 634 471 634 l 494 657 q 505 646 505 657 q 754 702 530 646 l 777 691 q 879 713 854 702 z "},"ㅡ":{"ha":933,"x_min":41,"x_max":879,"o":"m 482 68 q 800 56 739 56 q 879 0 879 18 l 879 -12 q 833 -91 879 -73 q 539 -68 647 -68 l 460 -68 q 448 -57 448 -68 l 426 -68 l 347 -68 l 279 -79 q 267 -68 267 -79 l 211 -79 l 154 -79 q 41 34 41 -79 q 75 56 41 56 q 132 45 113 56 q 482 68 338 68 z "},"ㅢ":{"ha":1171,"x_min":41,"x_max":1117,"o":"m 958 872 q 1082 612 1082 872 q 1117 227 1117 464 l 1117 159 q 1105 -260 1117 26 l 1048 -294 l 1038 -294 q 958 -193 958 -255 l 969 -170 q 981 351 981 214 l 935 861 l 958 872 m 664 249 l 720 181 l 720 159 q 392 45 720 132 l 392 56 q 176 22 264 22 l 132 22 q 41 147 41 22 q 63 170 63 147 l 165 159 l 664 249 z "},"ㅣ":{"ha":265,"x_min":41,"x_max":211,"o":"m 75 861 l 98 861 q 199 804 199 838 l 199 680 q 211 589 199 600 l 199 475 q 188 -215 188 -118 q 120 -294 160 -294 q 41 -136 63 -294 q 75 680 41 27 l 75 713 q 63 815 75 754 q 75 861 75 836 z "},"㈜":{"ha":1692,"x_min":41,"x_max":1638,"o":"m 1310 997 q 1638 475 1638 827 q 1513 -12 1638 288 q 1411 -125 1434 -125 q 1310 -45 1310 -125 q 1468 317 1374 18 q 1491 465 1468 399 q 1479 475 1491 475 l 1491 521 q 1264 918 1491 743 q 1310 997 1264 966 m 199 940 q 267 884 267 897 l 267 872 q 176 408 176 621 q 256 113 199 254 l 279 113 l 358 170 l 403 68 l 403 45 q 290 -34 353 -34 l 245 -34 q 41 453 64 49 q 165 940 41 709 l 199 940 m 833 906 l 867 906 q 947 838 947 848 l 947 827 q 924 736 924 746 l 924 725 q 1162 646 1040 725 l 1162 600 l 1139 566 q 845 600 964 600 l 732 441 l 743 441 q 1219 555 913 498 q 1298 509 1225 555 l 1310 509 l 1310 453 q 1083 385 1310 419 q 1015 362 1083 374 q 1060 -57 1034 264 q 1015 -113 1038 -109 l 981 -113 q 901 147 901 -113 q 867 328 886 298 q 494 238 626 260 q 392 283 407 283 l 392 317 l 403 374 q 539 396 460 374 q 551 385 539 385 q 698 657 551 454 q 754 759 754 737 l 743 759 q 562 725 633 725 q 460 781 460 747 l 460 815 l 494 861 l 516 849 q 833 906 774 906 z "},"가":{"ha":1251,"x_min":41,"x_max":1196,"o":"m 777 1087 l 788 1087 q 913 668 852 1087 q 1162 691 968 668 l 1196 623 l 1196 589 q 947 509 1196 538 q 992 136 958 233 l 992 90 q 924 34 965 34 q 822 340 822 90 l 709 1019 l 720 1019 l 709 1042 q 777 1087 720 1087 m 132 827 l 290 827 q 551 680 551 827 l 562 680 q 551 668 562 668 l 562 612 l 562 589 q 460 340 562 513 q 358 125 358 147 l 313 125 q 245 203 313 142 q 392 521 286 351 q 414 657 414 600 q 233 691 279 691 q 120 680 219 691 q 41 747 68 699 l 41 793 q 132 827 47 827 z "},"각":{"ha":1273,"x_min":41,"x_max":1219,"o":"m 822 1427 l 879 1427 q 969 1076 969 1427 q 1004 1042 969 1059 q 1162 1076 1034 1065 l 1162 1065 l 1185 1076 q 1219 1042 1201 1076 l 1207 997 q 1219 962 1219 975 q 969 895 1100 895 l 981 872 q 992 578 992 682 l 992 555 q 981 544 992 544 l 992 521 l 992 453 l 981 431 q 1038 238 1026 431 l 1038 215 q 935 -136 981 -136 q 901 -125 913 -125 l 901 -136 q 822 -34 822 -102 l 890 260 l 890 283 l 879 306 q 448 181 500 181 q 358 306 358 231 q 845 441 393 328 l 867 441 q 845 702 845 564 l 845 815 q 833 861 845 841 q 845 872 833 872 l 833 940 q 811 1393 833 1026 q 822 1427 822 1415 m 414 1155 l 482 1155 q 607 1042 559 1155 q 562 872 607 872 l 573 849 l 573 838 q 437 509 494 619 l 414 498 q 313 600 313 513 q 448 997 448 939 l 448 1008 l 437 1008 l 98 940 q 41 1076 45 989 q 414 1155 308 1155 z "},"간":{"ha":1352,"x_min":41,"x_max":1298,"o":"m 924 1393 q 1060 918 1060 1393 l 1060 872 l 1173 884 l 1196 884 q 1298 838 1217 884 l 1286 815 l 1298 759 q 1048 668 1173 725 q 1038 498 1038 555 l 1038 419 q 958 328 1038 340 q 867 419 905 342 l 867 544 q 856 589 867 569 q 867 634 867 609 q 856 668 867 668 l 867 725 l 867 1257 q 856 1302 867 1282 q 924 1393 865 1393 m 494 1031 l 539 1031 q 652 962 652 1017 l 652 951 q 562 465 652 726 q 539 441 539 460 l 516 453 q 482 441 494 441 q 403 555 403 509 q 471 861 471 697 l 142 804 q 52 872 94 819 l 41 872 l 52 895 l 52 951 q 494 1031 222 997 m 494 340 q 641 125 559 292 q 833 45 709 45 q 1072 159 853 45 q 1162 193 1128 193 l 1173 193 q 1230 136 1189 193 l 1230 113 q 924 -113 1230 -3 q 788 -125 865 -125 l 766 -125 q 414 170 513 -125 l 414 193 q 426 238 414 218 q 414 272 414 260 q 494 340 414 340 z "},"갇":{"ha":1205,"x_min":41,"x_max":1151,"o":"m 822 1280 q 913 1223 863 1280 q 935 985 913 1045 q 1128 1053 1098 1053 l 1151 1019 q 958 861 1151 935 q 935 827 947 827 l 947 770 l 947 555 q 924 498 924 526 l 913 498 l 811 521 q 754 1257 754 1184 q 822 1280 791 1280 m 528 1121 l 595 1121 q 652 1065 614 1121 q 516 544 652 872 q 482 487 516 514 q 392 532 392 517 q 403 544 403 532 q 380 566 380 544 l 414 668 l 403 668 q 482 1008 482 874 l 460 997 q 109 974 404 997 q 41 997 62 997 l 41 1031 q 290 1110 41 1076 l 290 1099 q 528 1121 349 1121 m 958 465 q 1026 408 1026 422 l 1026 374 q 528 193 1026 334 q 743 22 623 22 q 1072 147 840 22 l 1094 147 q 1128 136 1116 136 l 1128 56 q 777 -113 958 -113 q 369 159 518 -113 q 290 215 290 197 l 290 227 q 505 317 290 275 l 935 465 l 958 465 z "},"갈":{"ha":1386,"x_min":41,"x_max":1332,"o":"m 867 1371 q 1048 1268 1048 1371 l 1048 1008 q 1219 1053 1145 1053 q 1332 918 1332 1002 q 1048 804 1290 884 l 1048 600 q 969 498 979 498 q 867 600 867 513 l 867 646 q 845 849 867 792 q 856 895 856 869 l 845 974 q 856 985 845 985 q 833 1359 833 1146 q 867 1371 855 1371 m 437 1121 q 539 1053 539 1096 q 369 441 446 441 l 347 441 q 245 532 256 441 q 347 815 324 737 l 335 815 q 380 985 380 908 l 369 985 q 132 906 361 985 q 41 985 72 928 q 154 1065 41 1050 l 154 1053 q 437 1121 191 1087 m 845 374 q 947 306 947 359 q 686 0 947 157 l 686 -12 q 766 -57 686 -37 q 1082 56 957 -14 q 1162 12 1162 41 l 1151 -12 q 1162 -45 1162 -33 q 777 -193 974 -193 q 528 0 600 -193 l 528 22 q 709 147 528 57 q 766 238 766 208 l 754 238 q 460 170 516 170 q 392 215 414 170 q 551 317 392 289 q 845 374 768 374 z "},"갉":{"ha":1329,"x_min":41,"x_max":1275,"o":"m 879 1302 q 981 1212 981 1274 q 947 951 958 979 l 969 940 l 992 940 q 1004 951 1004 940 q 1117 918 1117 932 l 1139 928 q 1173 872 1165 928 q 947 804 1124 836 q 958 612 958 671 l 958 600 l 969 578 l 958 578 l 969 555 q 935 487 969 496 l 924 487 q 811 770 856 487 l 822 827 l 822 997 q 879 1302 822 1251 m 471 1008 q 551 918 551 980 l 551 895 q 539 884 551 884 q 551 849 551 861 q 392 475 551 736 l 335 475 l 324 532 l 324 578 q 403 872 324 605 l 380 872 l 98 838 q 41 928 41 882 l 41 962 q 471 1008 309 1008 m 1151 419 q 1275 340 1220 419 l 1275 306 q 1185 -113 1275 148 l 1173 -113 q 1082 -12 1082 -113 q 1151 283 1082 50 l 1128 294 q 935 272 1001 272 q 867 362 890 272 q 1151 419 917 419 m 380 374 l 403 362 l 539 362 q 754 283 694 362 q 539 45 754 148 l 539 22 q 629 -12 546 -12 l 641 -12 q 720 22 679 -12 l 732 22 l 754 12 l 754 34 l 777 34 q 845 0 845 27 q 641 -147 754 -147 l 618 -147 q 392 79 392 -94 l 392 113 l 573 238 l 482 238 q 335 294 369 238 l 335 340 q 380 374 335 351 z "},"갊":{"ha":1216,"x_min":41,"x_max":1162,"o":"m 766 1257 l 788 1257 q 890 1178 851 1257 q 879 906 879 1175 q 935 895 917 906 q 947 906 935 906 q 969 884 950 884 l 1004 906 q 1094 827 1069 869 q 867 770 1094 788 l 867 691 q 879 680 867 680 q 867 646 867 658 q 890 578 890 608 l 890 509 q 867 487 890 487 l 845 487 q 732 884 732 562 q 766 1257 732 1073 m 279 1042 q 290 1031 279 1031 l 290 1042 q 324 1031 312 1031 l 347 1042 l 369 1031 q 471 1042 431 1042 q 562 997 551 997 l 562 872 q 369 532 451 548 l 347 532 l 335 589 l 335 657 q 414 895 335 694 l 414 918 l 403 918 l 380 906 l 380 918 l 358 906 q 109 895 159 895 l 52 962 l 63 962 l 41 1008 q 109 1031 78 1031 l 165 1031 q 211 1019 191 1031 q 279 1042 248 1042 m 471 419 q 743 306 698 419 q 494 22 743 142 l 494 -12 q 573 -23 559 -12 q 675 -12 634 -12 l 709 -12 l 732 -23 q 595 -159 707 -159 q 585 -147 585 -159 q 539 -159 545 -159 q 335 68 335 -98 q 528 203 335 94 q 595 294 595 262 l 347 294 l 324 362 q 471 419 342 419 m 800 396 q 867 328 867 369 l 913 328 q 1038 340 960 328 q 1162 227 1162 283 q 890 -181 1162 35 l 856 -181 q 800 -91 800 -140 q 822 -57 811 -57 q 754 374 754 212 l 800 396 m 901 181 l 913 159 l 913 68 l 924 68 q 1026 203 984 124 l 992 203 q 901 181 943 203 z "},"감":{"ha":1160,"x_min":41,"x_max":1105,"o":"m 675 1212 l 698 1212 q 822 1031 822 1212 q 845 918 831 918 l 833 895 q 845 849 845 875 l 1015 906 q 1105 804 1105 906 q 845 702 1003 804 q 856 691 845 691 q 800 419 844 419 l 720 475 l 720 691 q 698 781 720 701 q 709 804 698 804 l 664 1155 l 675 1155 l 664 1178 q 675 1212 675 1200 m 414 962 q 539 793 516 962 l 539 770 q 448 431 539 633 l 426 419 l 392 521 l 392 555 l 380 555 q 392 566 380 566 q 380 600 392 578 q 403 838 403 786 q 392 827 392 838 l 369 838 l 132 770 q 41 838 41 776 q 380 962 41 895 l 414 962 m 335 385 l 358 385 q 460 351 417 385 l 516 351 q 890 249 890 351 q 958 12 930 249 q 698 -170 958 -60 q 652 -181 652 -170 q 448 -23 448 -113 q 324 351 437 -19 q 335 385 335 373 m 505 227 l 505 215 q 595 -34 567 14 l 629 -34 q 811 56 709 -34 q 698 227 811 215 l 675 215 q 641 227 663 215 q 551 215 578 215 l 505 227 z "},"갑":{"ha":1194,"x_min":41,"x_max":1139,"o":"m 720 1291 l 777 1291 q 833 1234 777 1272 q 901 951 884 951 q 1060 974 1036 974 l 1139 872 l 1128 849 l 1105 861 l 901 770 q 924 465 924 576 l 867 441 l 867 408 q 935 306 913 408 q 947 294 947 306 l 947 227 q 811 -102 894 -102 q 618 -181 761 -181 q 301 294 450 -181 l 301 328 q 324 351 304 351 l 380 351 q 494 170 437 351 q 607 -34 572 -7 q 754 79 681 -34 l 754 90 q 618 68 725 90 q 516 159 570 68 l 516 181 q 811 249 516 227 l 833 328 q 766 532 833 431 l 698 1223 l 698 1268 q 720 1291 701 1291 m 448 1087 q 562 1019 505 1087 q 414 532 562 846 q 369 431 414 517 l 335 431 q 245 487 335 453 l 245 532 q 335 781 245 573 q 380 940 380 911 l 132 895 q 41 974 66 918 l 41 1008 q 448 1087 41 1038 z "},"값":{"ha":1307,"x_min":41,"x_max":1253,"o":"m 777 1371 l 788 1371 q 901 1246 868 1371 l 890 1246 q 901 1212 901 1224 q 924 1019 905 1019 q 935 1008 935 1019 q 1026 1031 977 1031 l 1105 1031 q 1185 940 1185 1002 l 1185 918 q 924 804 957 895 l 935 781 l 935 657 q 969 544 935 544 q 1048 453 1046 478 q 1015 272 1015 318 q 1219 181 1135 201 q 1253 102 1253 140 q 1230 56 1230 102 l 1196 56 q 981 147 1117 56 l 947 147 l 947 102 l 924 22 l 935 22 l 856 -170 l 777 -181 q 743 -68 762 -166 l 879 419 l 867 419 q 879 453 879 441 q 777 657 777 566 q 766 1031 777 760 l 754 1031 l 766 1053 l 766 1065 q 754 1076 766 1076 q 766 1087 754 1087 q 743 1348 743 1271 l 777 1371 m 516 1189 q 641 1087 581 1189 q 460 702 580 874 q 403 600 434 702 q 335 498 352 498 l 290 498 q 279 532 290 510 q 290 566 290 554 l 267 555 q 256 566 267 566 q 380 884 256 652 q 426 997 426 962 l 426 1019 l 403 1019 q 392 1008 392 1019 q 380 1019 380 1008 q 109 962 210 962 q 41 1087 55 962 q 120 1121 120 1106 l 142 1110 q 358 1166 321 1141 l 380 1155 q 516 1189 434 1175 m 675 465 q 732 294 732 400 q 618 -12 678 -12 q 482 -102 581 -102 q 233 328 355 -102 q 222 419 222 409 l 256 441 q 403 283 384 441 q 426 249 403 249 q 437 260 437 249 l 460 249 q 516 272 516 249 l 539 260 q 618 453 600 260 l 675 465 z "},"갓":{"ha":1204,"x_min":41,"x_max":1150,"o":"m 822 1234 q 912 1177 878 1234 q 867 804 878 971 q 1059 838 972 838 q 1150 804 1143 838 l 1150 792 l 901 679 q 867 656 867 679 q 901 260 901 321 l 878 249 l 867 249 q 731 487 731 249 q 709 713 713 487 l 709 792 q 788 1223 739 1223 q 822 1234 822 1223 m 471 883 q 538 758 538 883 q 437 294 437 302 l 380 283 q 313 328 335 283 l 313 419 l 369 736 l 97 668 q 41 690 60 690 l 41 702 q 52 713 41 713 l 41 736 l 41 781 l 52 781 q 471 883 94 781 m 595 351 q 675 272 675 351 l 675 249 q 663 159 663 168 l 1082 -12 q 1093 -34 1082 -34 q 1071 -90 1071 -71 l 1048 -90 q 641 22 949 -90 q 618 -136 641 -36 l 584 -136 q 494 -45 494 -136 l 494 34 q 550 340 513 340 q 595 351 570 351 z "},"갔":{"ha":1340,"x_min":41,"x_max":1286,"o":"m 844 1053 l 912 1053 q 969 962 969 1023 l 969 781 l 991 781 l 1048 792 l 1048 781 l 1071 792 q 1184 747 1184 779 q 969 656 1184 695 l 969 645 q 991 328 969 526 q 946 306 946 319 q 810 645 810 306 l 810 1019 q 844 1053 810 1035 m 460 883 q 663 804 663 858 l 663 747 q 584 385 663 570 q 494 317 555 317 q 448 362 494 335 q 460 430 448 371 q 448 464 448 452 q 516 747 482 538 l 494 758 q 142 690 416 758 q 41 781 41 699 q 460 883 199 838 m 471 272 q 550 203 550 272 l 550 193 l 538 79 q 810 -102 659 -40 l 810 -90 q 958 203 886 203 l 969 203 q 1048 125 1034 203 q 1037 12 1037 125 q 1286 -147 1261 -112 q 1240 -203 1274 -203 q 980 -102 1139 -203 l 969 -102 q 878 -306 920 -306 l 844 -306 q 788 -227 788 -283 l 788 -215 l 799 -193 q 528 -90 637 -159 q 505 -102 505 -90 q 425 -306 505 -306 l 414 -306 l 347 -227 q 357 -193 347 -214 q 347 -102 357 -182 q 448 272 384 272 l 471 272 z "},"강":{"ha":1159,"x_min":41,"x_max":1105,"o":"m 720 1007 l 765 1007 q 856 917 856 996 l 844 917 l 856 895 l 856 770 l 867 690 l 991 690 l 1014 679 l 1014 690 q 1105 645 1105 667 l 1105 623 q 878 577 1105 600 q 867 566 878 566 l 878 430 l 878 283 q 833 203 878 235 q 720 453 720 203 q 697 724 697 708 l 709 724 l 697 747 l 697 985 q 720 1007 701 1007 m 97 895 l 97 883 q 109 895 109 883 l 188 883 l 482 883 q 606 815 606 849 q 471 340 606 638 l 414 328 q 357 362 371 362 l 357 441 l 448 758 l 278 758 q 41 826 41 765 l 41 860 q 97 895 41 886 m 810 170 l 844 170 q 958 0 894 170 q 720 -328 958 -254 l 686 -328 q 448 -193 515 -328 l 448 -79 q 595 102 448 26 q 810 170 674 170 m 595 -113 l 595 -125 q 652 -215 595 -194 q 822 -68 740 -215 l 822 -56 q 799 56 822 -35 q 595 -113 595 -9 z "},"갖":{"ha":1159,"x_min":41,"x_max":1105,"o":"m 810 1154 q 912 1053 912 1154 l 878 792 q 890 781 890 792 l 912 792 l 991 792 q 1105 736 1105 784 q 867 656 1062 696 l 867 396 q 878 385 867 385 q 810 328 871 328 q 709 623 709 328 l 709 634 q 765 1098 709 779 l 753 1098 q 810 1154 753 1128 m 109 917 l 120 917 q 132 905 132 917 l 154 917 l 391 917 q 562 838 562 909 q 403 441 562 716 q 357 396 403 424 l 313 396 q 267 441 294 396 q 278 453 267 453 q 267 464 278 464 q 391 792 267 500 q 380 804 380 792 q 188 792 248 792 l 132 792 q 41 838 70 792 l 41 883 q 109 917 52 917 m 753 227 l 833 227 q 878 159 878 203 l 833 12 q 1059 -136 953 -97 l 1071 -159 l 1071 -193 q 1003 -237 1071 -215 q 765 -113 907 -210 q 572 -306 622 -306 l 550 -306 q 516 -272 534 -306 l 516 -249 q 641 12 562 -86 q 675 79 652 12 l 663 79 q 403 22 456 22 q 323 68 323 38 l 323 125 q 753 227 686 227 z "},"갗":{"ha":1147,"x_min":41,"x_max":1093,"o":"m 765 1041 l 822 1041 q 878 985 837 1041 l 878 962 q 867 736 878 888 l 969 736 q 1082 690 1082 722 l 1082 679 q 1003 623 1076 652 l 1003 634 l 980 623 l 867 623 q 878 453 878 509 l 878 283 q 844 260 878 260 q 720 543 720 260 q 709 623 709 558 q 765 1041 709 1023 m 75 871 l 290 871 q 629 758 629 871 q 414 351 618 645 q 380 328 380 351 q 301 396 354 332 q 425 668 301 488 l 460 724 l 460 747 l 188 747 q 41 815 98 747 q 75 871 55 871 m 606 317 l 641 317 q 731 102 705 317 q 890 22 890 83 q 856 -102 856 -81 q 1093 -283 1092 -260 l 1093 -317 q 1059 -351 1093 -333 l 1037 -351 q 777 -215 1002 -351 q 606 -385 669 -385 l 584 -385 l 550 -340 q 686 -45 550 -271 l 675 -45 q 516 -68 589 -68 l 471 -68 q 369 -12 413 -68 q 562 56 369 56 q 606 79 562 66 q 550 283 550 186 l 550 306 l 606 317 z "},"같":{"ha":1046,"x_min":41,"x_max":991,"o":"m 697 1019 q 799 939 799 1002 q 788 713 788 787 l 810 724 l 912 724 l 991 702 l 991 668 q 777 577 991 642 l 788 555 l 788 385 q 753 294 788 301 l 743 294 q 629 543 629 294 l 629 815 l 641 838 l 629 838 q 697 1019 648 1019 m 369 849 q 538 724 538 829 q 369 317 538 607 l 323 306 q 256 362 294 313 q 369 702 256 435 l 369 724 q 199 713 256 713 l 165 713 q 41 792 54 713 l 75 838 l 97 826 l 109 826 q 120 838 120 826 l 142 826 q 369 849 176 826 m 810 238 q 867 203 867 230 l 867 170 q 471 91 821 91 l 471 45 q 494 22 474 22 l 528 22 q 810 34 623 22 l 844 -12 l 844 -34 q 641 -102 819 -102 l 494 -102 q 550 -215 516 -215 l 584 -215 q 878 -113 628 -215 l 890 -113 q 958 -136 920 -113 q 652 -340 958 -269 q 572 -351 607 -351 q 335 -136 429 -351 l 335 56 l 347 136 l 323 147 q 482 215 323 215 l 528 215 q 538 227 538 215 q 550 215 550 227 q 810 238 672 238 z "},"갚":{"ha":1227,"x_min":41,"x_max":1173,"o":"m 753 1007 l 810 1007 q 901 951 865 1007 l 890 838 l 890 701 l 878 679 l 890 679 q 1003 690 943 679 q 1127 656 1102 679 q 878 543 1127 585 q 912 294 878 420 q 878 237 898 237 l 844 237 q 720 464 745 237 q 753 1007 731 853 m 244 826 l 244 814 q 256 826 256 814 q 629 667 629 826 l 629 645 q 414 328 509 352 q 335 385 404 328 l 460 679 q 437 701 460 701 l 437 690 l 414 701 l 132 701 q 41 758 70 701 l 41 792 q 244 826 41 826 m 912 227 q 1003 147 991 227 l 980 11 l 991 -12 l 958 -159 l 1116 -159 q 1173 -215 1127 -159 q 1093 -283 1155 -283 l 1071 -283 q 595 -317 1017 -283 l 528 -317 q 425 -283 507 -317 l 425 -204 q 482 -193 463 -204 q 572 -204 545 -204 q 618 -193 578 -204 q 572 68 593 15 l 550 56 l 437 56 q 313 113 395 56 l 313 147 q 347 181 313 163 l 403 181 q 652 215 567 181 q 697 203 671 203 q 709 215 709 203 q 720 203 720 215 l 799 215 l 901 215 q 912 227 912 215 m 743 79 l 743 -91 l 753 -113 l 743 -113 q 777 -170 757 -170 l 788 -170 q 833 0 821 -170 l 833 56 l 844 79 l 822 90 l 822 79 q 810 90 810 79 l 743 79 z "},"갛":{"ha":1215,"x_min":41,"x_max":1161,"o":"m 822 962 q 912 871 912 945 l 912 623 l 935 623 q 991 633 972 623 q 1161 577 1112 623 q 1082 520 1145 520 q 1071 532 1071 520 q 924 498 980 498 q 935 215 935 311 l 935 192 l 912 158 q 799 215 852 158 l 799 203 q 822 124 799 182 l 810 124 q 822 56 822 107 l 958 56 l 1037 45 l 1037 56 q 1139 -12 1093 56 q 844 -68 1139 -68 q 799 -102 844 -74 q 743 -79 743 -91 l 663 -91 l 550 -91 q 437 -23 483 -91 l 437 11 q 471 45 437 19 l 584 34 l 595 34 l 675 45 q 652 192 652 181 q 743 271 652 271 q 799 227 743 256 l 799 249 q 753 701 772 249 q 765 917 765 855 q 777 928 777 917 q 765 939 765 928 l 822 962 m 63 724 l 437 724 q 606 589 565 724 q 403 158 581 431 l 335 158 q 290 215 290 182 q 448 577 290 273 l 448 600 l 425 611 l 244 611 l 109 600 q 41 690 41 644 l 41 701 q 63 724 44 724 m 935 -147 q 1082 -227 1052 -147 l 1082 -294 q 890 -521 1082 -425 q 822 -532 830 -532 q 629 -362 629 -478 l 629 -283 q 822 -170 629 -170 q 935 -147 822 -150 m 777 -317 l 777 -340 l 788 -396 l 822 -396 q 946 -272 946 -321 l 935 -272 q 901 -260 901 -272 q 777 -317 777 -304 z "},"개":{"ha":1215,"x_min":41,"x_max":1161,"o":"m 629 804 l 641 804 q 731 577 705 804 q 765 475 738 577 q 946 633 946 543 q 1003 804 977 804 l 1025 804 q 1127 532 1127 804 l 1127 317 q 1139 305 1127 305 q 1127 294 1139 294 l 1139 215 l 1139 136 l 1150 113 l 1139 113 q 1161 -45 1147 93 q 1116 -113 1138 -113 l 1082 -113 q 1014 -34 1014 -87 q 980 441 996 -34 q 777 351 910 396 l 777 339 q 810 79 799 133 q 799 45 799 57 l 731 45 q 562 758 659 45 q 629 804 572 804 m 301 543 q 414 418 414 543 q 301 0 414 317 l 278 0 q 267 11 267 0 l 244 0 q 188 68 210 7 q 278 418 278 327 q 267 430 267 418 q 75 396 170 396 q 41 464 41 440 q 301 543 84 509 z "},"객":{"ha":1227,"x_min":41,"x_max":1173,"o":"m 765 1064 q 844 962 844 1042 q 822 736 844 897 l 833 736 l 822 713 l 822 702 q 1025 849 1025 750 q 1059 939 1037 939 l 1116 939 q 1173 849 1173 920 q 1105 159 1105 186 q 1048 125 1078 125 q 1071 -34 1057 110 q 1003 -453 1033 -408 l 980 -453 q 878 -396 878 -453 q 912 0 878 -281 q 471 -90 693 -68 q 380 -34 414 -90 q 516 45 380 45 q 969 159 645 68 l 1014 136 l 1014 147 q 969 238 987 179 l 980 260 q 969 362 969 321 q 980 374 969 374 q 969 385 980 385 l 991 623 l 980 623 q 810 509 810 534 q 765 227 802 227 l 731 227 q 663 509 663 227 q 720 1053 663 846 q 765 1064 726 1053 m 380 815 l 414 815 q 516 736 480 815 q 357 328 444 385 l 347 328 q 278 419 278 357 q 357 679 278 476 q 347 690 347 679 q 109 623 291 668 q 41 656 56 656 l 41 736 q 380 815 316 815 z "},"갠":{"ha":1147,"x_min":41,"x_max":1093,"o":"m 697 1007 q 799 951 768 1007 l 799 690 q 935 838 935 690 l 924 838 q 946 917 946 883 l 991 917 q 1082 849 1059 917 q 1025 328 1048 469 q 1037 317 1025 317 l 1025 260 l 1025 238 l 1037 181 l 1025 181 q 1037 147 1037 159 q 980 68 1037 130 q 878 306 878 68 q 901 577 878 323 l 901 589 q 799 532 799 552 q 822 272 799 492 q 777 181 819 213 q 652 589 652 181 l 652 713 q 641 758 652 739 q 652 804 652 778 l 652 928 q 697 1007 652 977 m 448 871 q 550 792 507 871 q 414 362 550 692 q 369 317 414 345 q 301 396 301 317 l 301 453 q 380 724 301 492 l 369 724 q 109 690 222 690 q 41 747 62 706 l 41 792 q 199 838 41 812 q 210 826 210 838 q 448 871 397 871 m 380 68 l 414 68 q 516 -102 446 65 q 697 -203 586 -203 q 1003 -102 939 -111 l 1037 -102 l 1093 -113 l 1093 -181 q 969 -260 1076 -237 q 743 -340 951 -290 l 720 -340 q 369 -113 463 -340 q 347 12 347 -69 l 347 34 q 380 68 347 50 z "},"갤":{"ha":1159,"x_min":41,"x_max":1105,"o":"m 720 962 q 810 871 793 962 l 810 724 l 822 724 q 912 871 901 724 l 935 883 q 1048 747 1048 883 q 1059 521 1059 686 l 1059 351 q 980 238 1059 238 q 901 555 901 238 l 901 611 q 799 543 799 557 l 799 487 q 810 475 799 475 q 799 464 810 464 q 822 272 822 311 l 777 238 q 652 487 652 273 l 652 815 q 697 962 652 962 l 720 962 m 380 815 q 538 702 516 815 l 538 679 l 528 656 l 538 656 q 380 351 448 375 q 323 396 329 373 l 323 487 q 380 656 323 547 l 380 679 l 347 679 q 86 656 97 656 q 41 713 86 663 l 41 758 q 380 815 66 798 m 414 125 l 663 125 q 935 0 868 125 l 935 -22 q 652 -272 935 -177 l 652 -283 q 731 -328 670 -328 q 1048 -193 762 -328 q 1105 -227 1105 -207 q 1014 -351 1105 -283 q 743 -464 888 -464 l 743 -475 q 505 -272 505 -422 l 505 -260 q 709 -102 505 -163 l 788 -22 q 641 0 736 0 l 448 0 q 391 79 391 22 l 391 102 q 414 125 395 125 z "},"갬":{"ha":1159,"x_min":41,"x_max":1105,"o":"m 618 939 l 709 939 q 765 826 765 914 q 753 781 765 801 q 765 668 765 778 q 799 690 799 679 q 810 679 810 690 q 969 895 944 679 q 991 905 991 895 q 1105 815 1069 883 l 1105 804 q 1037 306 1078 804 q 1048 294 1048 306 q 1037 283 1037 294 l 1048 283 l 1037 260 l 1048 238 q 991 227 1010 238 l 991 238 l 969 227 l 890 227 l 890 317 q 901 566 890 396 q 777 509 884 566 q 788 340 788 396 l 788 294 l 777 215 l 709 215 q 618 623 637 215 l 618 781 q 606 883 618 822 q 618 939 618 901 m 403 758 q 550 679 550 721 l 550 600 q 437 328 550 519 q 391 260 410 260 l 369 249 q 301 328 326 259 q 403 611 335 448 q 391 623 391 611 q 97 577 168 577 q 41 634 82 577 q 86 713 41 694 l 86 702 q 188 736 122 720 q 199 724 199 736 l 403 758 m 901 125 l 946 125 q 1025 -159 1025 97 q 867 -317 1025 -317 q 788 -340 867 -340 l 709 -340 q 482 0 482 -340 l 482 79 q 516 113 482 96 l 562 113 q 606 102 587 113 q 901 125 675 125 m 618 12 l 618 -113 q 731 -227 618 -227 q 901 -113 878 -227 l 901 22 l 788 22 q 618 12 731 22 z "},"갭":{"ha":1159,"x_min":41,"x_max":1105,"o":"m 810 973 q 901 883 865 973 q 878 634 878 787 l 878 600 l 890 600 q 980 792 955 600 l 1014 792 q 1105 702 1105 787 q 1082 408 1082 552 l 1082 227 q 1025 136 1082 165 l 1025 125 l 980 125 q 946 203 980 177 q 935 453 935 402 l 878 419 l 890 362 l 890 340 q 878 328 890 328 l 890 306 l 890 193 q 810 147 861 193 l 799 147 q 743 181 762 181 l 753 238 q 731 475 731 416 l 731 656 q 788 973 731 973 l 810 973 m 460 770 q 641 668 641 770 q 494 317 641 509 l 460 317 q 403 396 403 333 q 482 634 403 418 l 471 634 q 109 555 385 634 q 41 645 41 578 q 142 713 41 676 l 165 702 q 460 770 246 744 m 1037 91 q 1105 12 1051 91 q 1037 -272 1088 12 q 901 -453 980 -387 q 822 -509 901 -509 l 810 -509 q 550 -136 606 -509 l 550 22 q 584 34 584 22 q 663 0 663 19 l 663 -56 l 675 -193 q 924 -125 924 -144 q 912 -113 924 -113 l 924 -56 l 924 -45 l 912 22 q 1014 91 912 91 l 1037 91 m 720 -283 q 753 -374 720 -304 q 856 -272 828 -340 l 856 -260 q 720 -283 777 -283 z "},"갯":{"ha":1057,"x_min":41,"x_max":1003,"o":"m 731 996 l 743 996 q 788 951 743 980 l 799 905 q 788 679 788 753 q 777 668 777 679 l 799 668 q 890 838 871 668 q 969 871 931 871 q 1003 792 1003 830 l 1003 781 q 991 770 1003 770 q 1003 758 991 758 q 969 509 980 509 q 980 498 969 498 q 890 -45 922 -45 l 844 -45 q 799 34 819 -45 l 810 56 l 810 102 q 844 532 810 305 l 833 532 q 777 509 796 509 l 777 249 l 765 227 q 652 441 652 227 q 641 600 641 538 q 720 973 641 973 q 731 996 731 973 m 403 792 l 425 792 q 494 679 494 750 q 313 260 428 448 q 267 249 273 249 q 222 294 267 260 q 347 645 222 385 q 335 656 335 645 q 109 600 317 645 q 41 634 41 611 l 41 668 q 414 770 70 732 l 403 792 m 584 203 q 606 136 584 161 l 606 68 l 595 -12 q 878 -159 669 -42 q 935 -181 898 -159 l 935 -170 q 1003 -237 960 -172 l 1003 -306 q 935 -340 987 -306 q 584 -159 888 -340 l 550 -159 l 550 -170 q 471 -385 550 -355 q 414 -306 414 -369 l 414 -215 q 550 170 461 170 l 584 203 z "},"갰":{"ha":1136,"x_min":41,"x_max":1082,"o":"m 777 962 l 788 962 l 810 951 q 799 939 810 939 l 810 883 l 810 701 q 946 848 917 701 l 1003 860 q 1048 804 1026 855 q 1037 441 1037 560 q 1025 396 1037 416 l 1037 328 l 1037 203 q 1014 181 1037 181 l 958 181 q 901 555 901 292 l 901 589 q 799 566 816 566 q 788 396 788 453 q 799 362 788 384 q 777 192 791 335 l 731 192 q 663 577 663 192 q 743 939 663 939 q 777 962 777 939 m 448 792 q 528 713 528 764 q 425 396 528 576 q 347 317 406 317 l 335 317 q 301 396 309 317 q 323 441 310 441 q 313 452 323 452 q 369 623 313 462 l 369 633 l 120 566 l 97 566 q 41 645 64 574 q 448 792 41 713 m 482 203 q 516 147 490 147 q 505 136 516 136 q 516 45 516 73 q 494 -23 494 8 l 494 -57 q 675 -113 577 -91 l 743 -113 q 901 124 842 124 q 958 56 921 124 l 912 -91 q 1071 -215 1071 -193 q 1082 -249 1082 -215 l 1082 -294 q 1014 -328 1071 -328 q 856 -227 976 -328 l 844 -227 q 753 -385 795 -372 l 731 -385 q 686 -340 713 -385 l 686 -317 l 697 -260 q 448 -204 632 -260 l 448 -215 q 369 -374 395 -351 q 290 -294 290 -374 q 425 181 382 181 q 482 203 454 181 z "},"갱":{"ha":1102,"x_min":41,"x_max":1048,"o":"m 731 1064 l 810 1053 l 810 1019 q 822 985 810 985 l 810 928 l 810 770 q 924 826 864 770 q 912 838 924 838 q 991 928 912 928 q 1048 871 1021 928 q 1025 623 1037 623 l 1037 555 l 1037 418 q 1048 373 1037 393 q 958 294 1037 294 q 901 543 901 373 l 901 645 q 810 600 817 631 l 810 509 q 822 498 810 498 l 810 475 l 810 464 q 822 418 810 438 q 743 339 800 339 q 686 555 686 339 l 686 645 l 675 713 l 686 736 q 675 747 686 747 l 686 826 l 686 1007 q 731 1064 715 1063 m 414 848 q 494 758 494 848 q 347 373 404 373 l 323 373 q 278 430 300 378 q 335 690 290 530 q 313 701 313 690 l 290 690 l 75 690 q 41 758 41 701 l 41 804 q 75 838 41 820 l 290 838 q 414 848 337 838 m 799 237 q 980 79 980 195 l 980 34 q 788 -204 980 -97 q 675 -227 766 -204 q 460 11 516 -227 l 403 11 l 403 22 q 550 170 439 116 q 799 237 624 215 m 595 22 q 686 -79 616 -79 q 856 68 856 -33 q 844 102 844 90 l 765 102 q 595 22 660 102 z "},"갸":{"ha":1396,"x_min":41,"x_max":1342,"o":"m 810 860 q 924 713 891 860 q 946 633 924 633 l 1263 736 q 1342 633 1342 703 l 1342 623 q 1139 543 1342 589 q 969 475 1139 528 q 991 452 972 452 q 1206 464 1171 464 l 1263 430 q 1093 317 1263 317 l 1025 317 l 969 328 q 991 34 980 82 q 969 -57 969 -36 l 901 -57 l 856 11 q 765 804 807 613 l 765 848 l 810 860 m 494 667 q 629 600 575 667 l 629 589 q 460 192 629 527 q 425 102 460 142 q 335 203 335 140 l 335 215 q 425 475 335 319 l 437 520 q 120 498 401 520 q 41 577 41 563 q 97 633 60 633 q 494 667 183 633 z "},"갹":{"ha":1114,"x_min":41,"x_max":1059,"o":"m 675 1177 l 709 1177 q 777 1109 753 1154 q 788 871 788 911 q 799 860 799 871 q 912 895 912 883 q 1025 849 921 895 l 1025 792 q 810 690 814 708 l 810 656 l 833 656 q 969 690 941 690 l 1003 690 q 1059 634 1018 690 q 822 509 1059 566 l 822 430 l 844 351 l 788 283 q 652 736 652 283 q 618 1019 638 882 q 629 1030 618 1030 l 618 1143 l 618 1166 l 675 1177 m 335 826 q 482 770 422 826 q 347 374 482 645 l 278 374 q 222 430 263 374 q 313 690 222 467 q 120 645 135 645 l 97 645 q 41 713 80 645 l 41 747 q 335 826 249 826 m 844 249 l 856 249 q 935 193 935 206 l 935 68 q 833 -260 871 -219 l 822 -260 q 720 -170 736 -260 l 765 102 l 414 -12 q 323 79 323 5 l 323 91 q 562 181 323 122 q 844 249 714 249 z "},"갼":{"ha":1295,"x_min":41,"x_max":1240,"o":"m 799 1166 q 924 1064 908 1166 l 924 1019 q 935 849 924 962 l 946 849 q 1082 895 1024 895 l 1105 895 q 1184 860 1143 895 l 1173 838 q 1184 804 1184 816 q 958 679 1175 804 l 946 679 l 946 656 q 1139 690 1003 656 q 1240 611 1240 690 l 1240 600 q 958 498 979 498 l 958 374 q 912 306 958 306 q 777 951 777 306 l 777 1132 l 799 1166 m 437 917 l 437 895 l 460 905 l 471 905 q 562 792 562 859 l 562 724 q 437 419 486 454 l 425 340 l 391 340 l 369 351 q 357 340 369 340 q 313 408 357 374 q 403 781 313 458 l 391 781 l 109 713 q 41 804 41 736 q 369 917 41 868 l 437 917 m 403 125 q 550 22 484 125 q 731 -68 617 -68 l 788 -68 q 969 12 863 -68 q 1025 22 1006 12 l 1059 -34 l 1059 -68 q 799 -215 985 -215 l 788 -215 q 369 68 488 -215 l 369 102 l 403 125 z "},"걀":{"ha":1125,"x_min":41,"x_max":1071,"o":"m 686 1007 l 697 1007 q 810 939 748 1007 l 799 917 l 799 838 l 788 781 l 810 770 l 833 781 l 833 770 q 946 792 861 781 q 1037 736 1037 762 l 1037 702 q 788 600 1023 679 l 788 555 l 799 555 l 991 589 q 1071 521 1071 532 l 1071 487 q 788 408 1013 433 q 753 340 769 340 l 709 340 q 629 713 641 340 q 686 1007 637 1007 m 132 871 l 267 871 q 528 690 528 849 q 301 283 439 421 l 290 283 q 222 385 250 283 l 357 679 l 357 724 l 109 724 q 41 849 41 760 q 132 871 82 871 m 697 193 q 844 102 844 170 q 606 -170 844 -63 q 675 -203 606 -189 q 878 -147 842 -147 q 935 -227 935 -163 q 686 -351 825 -351 q 425 -136 425 -279 l 425 -125 q 652 45 652 20 l 641 45 q 516 22 516 37 q 347 136 347 22 l 347 147 q 391 170 364 147 q 675 181 578 181 l 697 193 z "},"걋":{"ha":1249,"x_min":41,"x_max":1195,"o":"m 788 1053 q 901 951 901 1033 q 890 792 890 809 l 1037 815 q 1161 713 1139 815 q 1105 690 1124 690 l 1082 702 q 890 623 892 643 l 890 600 q 1048 623 897 600 q 1195 555 1195 608 l 1195 543 q 901 453 1195 507 l 901 260 q 867 227 901 244 q 731 668 731 227 l 731 758 q 788 1053 731 1053 m 142 815 l 357 815 q 550 656 550 764 q 369 306 499 496 l 369 294 l 313 294 q 256 362 292 294 q 369 623 256 426 q 380 668 380 642 l 132 668 q 41 770 41 679 q 142 815 56 815 m 618 227 q 709 147 677 227 q 697 56 697 66 q 1093 -159 715 56 l 1093 -181 q 1059 -272 1093 -264 l 1037 -260 l 1037 -272 q 641 -68 649 -68 l 641 -79 q 471 -317 553 -317 l 460 -317 q 425 -237 425 -264 q 618 227 551 227 z "},"걍":{"ha":1181,"x_min":41,"x_max":1127,"o":"m 709 1132 q 799 996 799 1079 l 799 770 q 946 792 901 792 l 969 792 q 1059 758 990 792 l 1059 690 q 878 634 1059 675 q 810 589 810 600 l 810 566 q 856 577 836 566 q 901 566 876 566 q 935 577 923 577 l 935 566 q 1003 589 972 589 l 1025 589 q 1127 555 1068 589 l 1127 521 q 833 419 1127 480 l 833 272 q 788 215 803 216 q 641 939 641 215 q 652 1109 652 989 l 709 1132 m 460 849 q 572 770 527 828 l 572 724 q 391 294 572 568 q 313 374 313 294 l 313 385 q 323 396 313 396 q 313 408 323 408 q 414 702 313 425 l 403 702 l 132 623 l 109 623 q 41 736 41 662 q 460 849 258 849 m 753 147 l 753 136 l 777 147 q 958 45 869 138 l 969 45 l 969 -90 q 731 -272 899 -220 q 505 -22 534 -272 l 505 22 q 753 147 505 71 m 652 -34 l 652 -90 q 686 -125 652 -106 q 833 -34 833 -79 q 788 0 833 -5 q 652 -34 745 0 z "},"걔":{"ha":1261,"x_min":41,"x_max":1206,"o":"m 663 792 q 753 577 753 743 q 765 543 765 577 l 991 589 q 1025 555 991 555 l 1037 577 q 1025 589 1037 589 l 1037 645 q 1025 747 1037 686 q 1059 792 1042 792 q 1161 623 1161 792 q 1184 543 1161 543 l 1173 521 l 1173 396 q 1184 385 1173 385 q 1173 374 1184 374 q 1206 -125 1184 79 l 1150 -181 l 1139 -181 q 1037 -34 1055 -181 q 1025 238 1037 115 q 799 181 964 201 l 799 34 q 731 -56 799 -48 q 641 260 641 -18 q 595 770 641 317 q 663 792 633 792 m 347 634 q 516 487 516 611 q 528 464 528 487 q 323 -56 528 315 q 233 12 248 -34 l 233 79 q 369 464 369 418 l 369 475 q 347 498 369 498 q 109 441 269 498 q 41 498 62 457 l 41 577 q 222 634 78 577 l 347 634 m 788 362 l 788 351 q 810 328 791 328 q 991 362 927 340 q 1003 351 991 351 q 1014 362 1003 362 q 1025 351 1014 351 q 1037 385 1025 385 q 1025 441 1025 404 q 788 362 897 441 z "},"걘":{"ha":1159,"x_min":41,"x_max":1105,"o":"m 629 962 q 720 905 707 905 q 731 713 731 772 l 743 690 q 720 667 720 687 l 935 713 q 946 701 935 701 q 958 814 946 812 q 946 848 946 837 q 1003 928 955 928 q 1093 814 1093 871 q 1082 804 1093 804 q 1093 441 1093 560 l 1093 373 q 1082 328 1093 348 q 1093 283 1093 309 l 1093 192 l 1105 170 l 1059 124 l 1048 124 q 946 362 946 124 l 935 362 q 765 317 916 362 l 765 215 l 777 192 q 743 147 748 192 l 709 147 q 584 758 612 147 l 584 917 q 629 962 584 928 m 369 747 q 516 577 516 667 q 347 113 516 395 l 335 113 q 244 192 270 113 q 278 260 252 260 l 278 294 l 357 532 l 357 600 q 244 566 244 593 l 222 577 q 97 555 142 555 l 41 656 q 369 747 73 736 m 753 486 l 753 475 q 946 532 946 498 l 946 566 l 935 566 q 753 486 834 566 m 505 158 q 629 0 566 158 q 878 -113 732 -113 q 1025 -79 900 -113 q 1093 -159 1093 -109 q 924 -260 1070 -260 l 856 -260 q 482 22 581 -260 l 460 102 q 505 158 464 133 z "},"걜":{"ha":1136,"x_min":41,"x_max":1082,"o":"m 584 985 l 595 985 q 731 770 731 985 q 743 758 743 770 q 901 814 874 814 l 901 871 q 935 939 908 939 l 946 939 q 1059 838 1059 924 q 1048 826 1059 826 q 1071 633 1071 661 q 1059 623 1071 623 l 1082 339 q 1037 271 1059 271 l 1003 271 q 912 430 912 308 l 912 486 l 901 486 q 777 430 777 450 l 777 328 l 765 271 l 753 271 q 641 396 667 271 q 550 939 595 558 q 584 985 567 985 m 369 758 q 448 656 448 725 q 369 294 448 555 q 313 237 369 279 q 222 339 236 237 q 278 611 278 541 l 278 623 l 256 623 q 142 600 142 620 q 41 690 41 640 q 75 736 58 736 l 75 724 q 369 758 212 758 m 753 600 l 753 589 l 765 589 q 890 611 890 595 q 912 623 890 623 q 901 633 912 633 l 912 656 l 912 679 l 901 679 q 753 600 753 611 m 799 181 q 969 68 951 181 q 652 -204 969 -42 l 652 -215 q 731 -272 667 -272 l 743 -272 l 991 -181 l 1003 -181 q 1071 -215 1071 -189 l 1071 -249 q 765 -408 954 -408 l 743 -408 q 505 -227 600 -408 l 505 -181 q 720 -12 505 -107 l 777 56 l 765 56 l 516 -12 l 380 22 l 380 45 q 606 147 380 90 q 799 181 606 170 z "},"거":{"ha":1159,"x_min":41,"x_max":1105,"o":"m 969 758 q 1071 656 1071 707 q 1082 645 1071 645 l 1071 623 q 1082 408 1082 498 l 1082 385 q 1093 373 1082 373 l 1082 351 q 1093 305 1082 326 q 1082 294 1093 294 l 1093 215 l 1093 45 l 1105 -23 q 1093 -68 1093 -43 q 1082 -57 1082 -68 q 1025 -79 1045 -79 q 935 34 935 -36 l 935 373 l 924 396 q 538 271 691 294 q 391 -12 462 -12 l 369 -12 l 323 68 l 414 464 q 403 475 403 464 q 132 385 386 475 q 41 486 41 435 q 448 633 103 555 q 572 509 572 611 q 584 430 572 475 q 822 509 701 455 l 822 498 q 924 555 924 540 l 924 690 q 969 758 924 758 z "},"걱":{"ha":1023,"x_min":41,"x_max":969,"o":"m 844 1041 l 935 1041 q 969 905 969 951 l 958 905 q 969 895 958 895 l 946 532 l 958 464 l 946 419 l 958 362 q 878 294 940 294 q 799 430 822 294 q 810 441 799 441 l 799 521 l 799 690 q 538 611 581 611 l 494 611 q 380 283 437 283 l 347 283 q 313 294 324 294 l 313 362 q 301 408 313 388 q 347 781 320 408 l 347 792 l 335 815 l 109 758 q 41 826 70 768 l 41 849 q 425 939 335 939 q 516 736 496 939 l 516 724 q 799 804 755 804 l 810 826 l 810 951 q 822 962 810 962 l 810 985 q 844 1041 825 1041 m 867 238 q 946 79 924 238 q 878 -306 930 -306 l 822 -306 q 765 -249 806 -306 l 777 -181 q 765 -170 777 -170 l 777 -113 l 777 102 l 765 102 q 380 22 513 22 q 323 91 347 22 q 528 159 323 159 q 867 238 715 238 z "},"건":{"ha":1171,"x_min":41,"x_max":1116,"o":"m 856 826 l 912 826 q 969 724 969 800 q 958 79 969 507 q 890 34 946 34 q 810 203 810 34 l 810 521 q 572 441 612 441 q 505 464 526 464 q 347 91 380 109 l 313 91 q 267 227 267 136 q 369 668 369 535 q 357 679 357 668 l 335 668 q 120 656 300 668 q 41 758 41 656 q 188 792 63 781 l 188 781 q 301 804 206 795 q 494 724 444 804 q 528 623 511 699 l 516 600 l 516 589 l 528 566 q 822 634 822 614 l 822 747 q 833 758 822 758 l 822 781 l 822 792 q 856 826 822 808 m 528 113 l 562 113 q 675 -159 602 92 q 753 -203 726 -203 l 1025 -34 q 1048 -56 1029 -56 q 1082 -45 1070 -45 q 1116 -56 1104 -56 l 1116 -90 q 777 -340 929 -309 l 765 -340 q 482 12 528 -340 l 482 68 q 528 113 482 85 z "},"걷":{"ha":1159,"x_min":41,"x_max":1105,"o":"m 969 826 q 1059 747 1020 812 l 1048 668 l 1048 396 l 1059 328 q 1025 203 1045 229 q 1105 125 1105 203 q 652 -22 1105 72 l 641 -45 q 833 -260 722 -260 q 1025 -159 878 -260 q 1059 -147 1038 -159 q 1105 -159 1079 -159 l 1105 -237 q 878 -396 966 -396 l 844 -396 q 494 -68 630 -396 q 437 -22 494 -22 l 403 22 l 403 79 q 437 102 421 79 l 505 91 q 935 193 892 159 q 946 181 935 181 l 946 203 q 901 555 901 262 l 890 555 l 606 464 q 572 475 585 475 q 471 170 528 385 q 460 147 460 170 l 448 147 q 357 238 357 147 l 357 249 q 437 623 357 323 l 414 634 q 176 566 256 600 l 154 577 l 132 566 q 41 668 58 566 q 448 781 73 698 q 572 611 572 781 l 572 600 l 584 600 q 912 690 901 668 q 969 826 912 826 z "},"걸":{"ha":1012,"x_min":41,"x_max":958,"o":"m 391 838 l 505 838 q 584 679 584 811 l 584 623 q 788 702 788 623 q 844 838 788 807 q 935 781 930 808 q 912 317 912 424 q 924 181 912 298 l 867 147 q 765 419 765 147 l 765 543 q 562 475 738 525 q 550 487 562 487 q 448 260 464 271 l 425 249 l 391 249 q 347 294 374 249 l 347 340 q 437 724 437 646 l 109 623 q 41 679 62 638 l 41 724 q 301 815 162 781 l 323 804 l 391 838 m 403 136 l 460 125 q 867 34 867 125 l 867 0 q 641 -215 821 -98 l 606 -215 l 606 -237 q 652 -272 624 -237 l 663 -272 q 912 -193 701 -272 q 958 -227 958 -210 l 958 -249 q 663 -408 934 -378 l 641 -408 q 471 -193 471 -378 l 471 -170 q 641 -45 471 -157 l 675 0 l 652 0 q 641 -12 641 0 q 369 79 369 -12 l 369 102 q 403 136 369 111 z "},"걺":{"ha":1136,"x_min":41,"x_max":1082,"o":"m 878 871 q 969 804 918 865 l 958 724 l 958 408 q 969 362 958 382 l 958 340 q 980 260 980 267 q 935 203 958 209 l 901 203 q 810 498 824 203 l 810 543 l 799 566 q 810 577 810 566 q 799 589 799 577 l 562 509 l 516 509 q 347 238 440 238 q 301 306 323 238 q 403 702 301 347 l 391 702 q 109 600 323 702 q 41 690 41 623 l 41 702 q 414 838 170 792 l 425 838 q 550 758 518 838 l 550 645 l 562 645 q 810 724 810 687 q 878 871 825 871 m 391 125 l 471 125 q 641 34 589 125 l 641 12 q 425 -237 641 -64 l 448 -249 l 460 -249 q 562 -215 519 -249 q 652 -249 645 -215 l 652 -272 q 471 -385 574 -385 q 267 -260 336 -385 q 278 -249 278 -260 q 256 -227 256 -249 l 256 -203 q 425 -56 256 -183 l 460 -12 l 460 0 l 165 0 q 120 45 148 0 l 120 79 q 391 125 120 125 m 991 125 q 1082 -34 1045 125 q 1071 -45 1082 -45 l 1082 -90 q 1059 -306 1082 -159 l 1071 -306 q 901 -408 1021 -408 l 890 -408 q 686 -34 736 -392 l 675 79 q 753 113 716 113 l 765 113 l 765 91 q 991 125 779 91 m 799 12 q 901 -272 833 -197 l 912 -272 q 958 -56 958 -272 l 958 12 q 924 45 958 20 q 799 12 817 12 z "},"검":{"ha":1000,"x_min":41,"x_max":946,"o":"m 822 917 l 856 917 q 935 826 935 917 q 924 589 924 679 l 924 385 q 935 227 924 323 l 890 170 q 788 306 788 189 l 788 634 l 765 623 l 765 634 q 482 566 572 566 q 278 238 362 238 l 244 283 l 244 374 q 369 747 369 676 q 109 713 150 713 q 41 781 41 713 l 41 804 q 120 849 41 829 l 142 838 q 357 871 211 871 l 380 871 q 516 770 483 871 l 516 713 q 788 747 654 724 l 788 792 q 822 917 788 917 m 335 159 l 380 147 l 380 136 l 278 136 l 278 147 l 335 159 m 777 159 q 946 12 795 159 l 946 0 q 890 -374 946 -374 q 391 -453 465 -453 q 256 -125 256 -453 q 244 56 244 -60 q 629 147 244 98 q 777 159 680 147 m 369 -22 l 380 -45 q 369 -56 380 -56 q 403 -317 380 -182 q 765 -237 765 -294 q 799 -113 799 -142 q 788 -79 788 -92 l 799 -79 q 731 34 777 6 q 369 -22 709 34 z "},"겁":{"ha":966,"x_min":41,"x_max":912,"o":"m 357 871 q 505 679 485 871 q 494 667 494 679 l 538 667 l 595 679 l 595 667 q 743 758 743 709 q 777 860 743 860 q 878 781 878 860 l 878 701 q 867 577 878 654 q 878 566 867 566 l 867 486 l 867 339 l 878 203 q 867 192 867 203 q 912 102 912 192 q 731 -227 912 -59 q 606 -283 650 -283 l 572 -283 q 323 90 398 -283 l 323 124 q 380 203 323 188 q 460 102 435 203 l 448 102 q 482 22 471 22 l 538 34 l 538 22 q 777 124 777 22 l 777 192 q 731 249 753 192 l 731 577 l 720 577 q 437 486 437 520 q 335 260 355 285 q 290 249 315 249 q 222 373 236 249 q 347 736 347 646 l 301 736 q 176 713 220 736 q 165 724 165 713 l 109 713 q 41 792 41 713 l 41 814 q 357 871 72 871 m 538 -91 l 538 -102 l 572 -147 q 641 -102 641 -121 l 641 -91 l 584 -91 q 572 -102 572 -91 l 550 -91 l 538 -91 z "},"것":{"ha":1057,"x_min":41,"x_max":1003,"o":"m 833 973 l 856 973 q 935 905 917 973 q 924 894 935 894 l 935 838 l 935 792 q 1003 747 962 792 q 946 690 1003 717 q 969 396 958 615 q 878 271 947 271 q 822 373 830 271 q 833 385 833 373 l 822 385 l 833 408 q 822 656 822 606 l 810 656 l 516 589 l 471 589 l 448 600 l 335 294 q 278 260 308 260 q 222 339 240 260 q 335 781 222 386 l 335 792 q 97 713 155 713 q 41 792 41 728 l 41 826 q 369 939 275 939 q 482 871 443 939 l 482 724 q 697 770 509 724 l 697 758 q 810 804 810 789 l 810 951 q 833 973 814 973 m 606 441 q 663 362 663 425 l 663 351 l 652 294 l 663 294 q 629 170 643 258 q 935 -45 629 144 l 946 -102 l 901 -136 q 618 0 815 -136 q 606 -12 606 0 q 494 -227 589 -227 l 482 -227 q 437 -181 465 -227 l 437 -136 l 516 351 q 606 441 562 441 z "},"겄":{"ha":1215,"x_min":41,"x_max":1161,"o":"m 822 1029 q 924 848 910 1029 q 935 838 935 848 q 912 770 926 770 l 924 747 l 924 418 l 878 373 l 856 373 q 799 498 799 448 q 788 724 788 624 l 777 724 q 538 667 626 667 q 471 713 471 667 l 460 713 q 290 362 375 458 l 278 362 q 210 464 210 408 q 323 792 210 501 l 323 814 l 120 781 q 41 894 41 810 q 391 962 41 935 q 494 860 494 939 l 494 826 l 482 804 l 505 804 q 686 826 511 804 q 720 814 708 814 l 788 860 l 788 871 q 777 1007 788 890 l 822 1029 m 403 396 l 460 396 q 505 317 505 378 q 471 181 505 291 q 697 34 482 181 l 697 0 q 618 -45 679 -45 q 425 56 450 56 l 425 45 q 301 -204 354 -170 l 301 -215 l 256 -215 q 210 -170 238 -215 q 335 260 210 -87 q 403 396 384 396 m 946 373 l 980 373 q 1025 328 998 373 l 1025 305 q 980 124 1025 282 l 991 124 q 1161 -57 1161 17 l 1161 -79 q 1116 -125 1161 -91 q 935 11 1063 -115 q 867 -113 922 11 l 833 -136 l 777 -136 q 743 -102 760 -136 l 743 -57 q 946 373 893 373 z "},"겅":{"ha":1147,"x_min":41,"x_max":1093,"o":"m 980 1120 q 1071 1007 1056 1120 l 1059 985 q 1071 973 1059 973 l 1059 860 q 1093 475 1059 711 q 1037 385 1093 419 q 912 770 912 385 q 901 804 901 770 q 652 713 819 781 l 618 713 q 538 453 618 683 q 550 441 550 453 q 471 408 509 408 q 403 509 422 433 q 471 826 471 764 l 471 849 q 448 871 471 871 l 369 860 l 369 871 q 132 838 298 849 q 41 905 98 845 q 120 973 41 957 q 154 962 142 962 q 391 985 332 985 l 414 985 q 641 860 604 985 q 912 917 731 895 l 912 1086 q 980 1120 924 1120 m 822 385 l 946 385 q 1093 181 1093 314 q 924 -56 1093 78 q 844 -79 890 -56 q 584 91 662 -79 l 572 159 q 822 385 572 328 m 720 159 q 822 56 749 56 q 946 227 946 124 l 946 238 q 878 272 937 238 q 720 159 720 237 z "},"겆":{"ha":1102,"x_min":41,"x_max":1048,"o":"m 833 996 q 946 871 946 996 l 946 374 q 901 328 946 356 l 878 328 q 788 668 808 328 q 777 679 788 679 q 550 600 668 623 q 482 611 542 600 q 335 283 418 283 q 278 441 278 335 q 347 792 313 553 l 347 804 q 120 713 325 804 q 41 792 41 741 q 335 939 41 852 q 403 951 403 939 q 505 770 505 951 l 505 736 l 516 736 q 799 815 567 736 l 799 917 q 788 928 799 928 q 833 996 788 939 m 720 294 l 765 294 q 844 215 829 294 q 810 68 810 104 q 1048 -102 849 68 l 1048 -147 q 1014 -181 1048 -163 l 969 -181 q 743 -45 930 -181 q 731 -56 731 -45 q 538 -272 608 -272 l 528 -272 q 505 -249 505 -272 l 505 -237 q 516 -193 505 -212 l 505 -170 q 595 12 505 -144 q 629 102 629 81 l 391 34 q 313 91 321 57 l 313 136 q 562 215 313 151 l 720 294 z "},"겉":{"ha":1000,"x_min":41,"x_max":946,"o":"m 743 917 q 833 849 802 917 l 867 249 l 810 215 q 709 509 709 215 l 709 543 q 675 566 709 566 q 482 521 614 536 q 460 543 482 543 q 313 181 330 186 q 267 170 292 170 q 210 306 210 191 q 323 668 301 558 l 323 702 q 132 656 161 656 l 120 656 q 41 758 41 688 q 313 826 64 792 l 313 815 q 403 838 370 838 q 482 736 482 838 l 482 656 q 494 668 494 656 l 516 656 q 697 690 697 668 l 686 758 q 697 838 697 803 l 686 860 q 743 917 693 905 m 720 181 l 753 181 q 799 136 772 181 l 799 125 q 437 0 799 53 l 437 -45 l 460 -45 q 743 0 591 -45 q 777 -12 764 -12 q 788 0 777 0 q 822 -68 788 -16 q 494 -193 822 -140 l 494 -203 q 584 -294 494 -235 q 833 -147 686 -260 q 844 -159 844 -147 l 901 -147 l 912 -147 q 946 -203 938 -147 q 686 -408 946 -279 q 629 -430 686 -430 l 584 -430 q 313 -159 428 -430 q 278 -102 301 -159 q 290 -68 290 -80 q 199 45 290 -22 l 199 68 q 584 159 199 125 q 720 181 584 178 z "},"겊":{"ha":1317,"x_min":41,"x_max":1263,"o":"m 969 895 q 1071 826 1042 895 l 1071 713 q 1082 328 1071 564 q 1037 272 1060 277 l 1003 272 q 924 475 969 272 l 935 475 q 890 577 928 577 q 606 498 707 498 q 572 509 585 509 q 460 227 498 227 l 414 227 l 369 317 l 437 668 l 437 690 l 403 690 q 132 611 363 690 q 41 713 58 611 q 437 826 41 762 l 448 826 q 595 634 595 826 q 912 702 912 686 q 969 895 924 895 m 1014 159 q 1082 102 1055 159 l 1048 34 l 1048 -56 q 1014 -237 1048 -114 l 1127 -237 q 1173 -227 1153 -237 l 1263 -260 l 1263 -317 q 1173 -374 1263 -330 q 1161 -362 1161 -374 q 584 -396 659 -396 l 572 -396 q 505 -340 505 -357 l 505 -306 q 538 -272 505 -290 l 629 -272 l 686 -260 l 686 -34 l 675 -34 q 391 -68 498 -68 q 290 34 290 -56 q 584 79 315 54 q 743 136 719 109 l 765 136 q 1014 159 814 136 m 856 0 q 833 -102 833 -73 l 833 -249 l 867 -249 q 901 0 901 -249 l 856 0 z "},"겋":{"ha":1068,"x_min":41,"x_max":1014,"o":"m 833 838 l 867 838 q 946 781 924 838 l 946 679 q 935 577 946 619 l 969 215 q 924 193 951 215 q 799 408 817 193 l 799 487 l 788 509 q 652 464 759 509 q 641 475 652 475 q 505 419 641 453 q 357 159 419 182 l 301 159 l 290 238 l 290 260 q 369 487 290 315 l 357 487 q 391 600 391 545 l 391 623 l 380 623 q 120 600 272 623 q 41 656 47 629 l 41 713 q 63 736 44 736 l 109 736 q 244 747 186 736 q 550 611 550 747 l 550 600 l 538 577 q 788 623 785 616 q 833 838 799 838 m 652 362 q 720 272 720 339 l 720 227 q 743 -12 720 167 l 753 -12 q 969 0 934 0 q 1014 -34 1014 -17 q 788 -136 1014 -136 l 652 -170 l 652 -159 q 347 -193 590 -193 q 256 -102 256 -179 l 256 -90 q 323 -56 267 -56 l 403 -56 q 414 -68 414 -56 l 606 -34 q 572 306 572 161 q 652 362 572 362 m 788 -147 q 980 -294 980 -170 q 743 -532 980 -438 l 709 -532 q 562 -396 631 -532 q 505 -306 562 -367 q 697 -181 505 -217 q 788 -147 697 -174 m 697 -306 l 686 -351 q 709 -385 709 -351 q 833 -294 774 -385 l 822 -294 q 697 -306 744 -306 z "},"게":{"ha":1249,"x_min":41,"x_max":1195,"o":"m 1003 724 q 1116 577 1102 724 l 1105 577 q 1195 -203 1161 334 q 1127 -249 1173 -203 q 1025 -12 1029 -219 q 969 668 1025 92 l 969 713 q 1003 724 1003 713 m 799 589 q 878 532 833 584 q 867 227 867 323 l 867 -79 q 822 -159 867 -140 l 788 -159 q 720 12 731 -159 l 720 113 q 709 125 720 125 l 720 147 l 720 249 l 709 249 q 460 181 666 249 q 313 -181 349 -181 l 278 -181 q 233 -45 239 -181 q 313 362 313 261 l 313 396 q 109 362 229 396 q 41 453 41 386 l 41 464 q 301 532 41 509 q 460 362 460 532 q 471 351 471 362 q 460 340 460 351 q 471 328 471 340 q 731 419 731 376 q 743 509 731 498 l 731 532 q 799 589 743 589 z "},"겐":{"ha":1159,"x_min":41,"x_max":1105,"o":"m 1003 939 q 1105 724 1105 939 l 1093 566 l 1105 566 l 1093 543 l 1093 294 q 1082 283 1093 283 l 1093 260 q 1037 158 1071 158 l 1003 158 q 946 249 975 158 l 958 271 l 958 894 q 1003 939 958 911 m 788 905 l 799 905 q 878 838 878 905 q 822 181 850 252 l 777 181 q 709 283 709 215 l 709 566 q 471 509 473 515 q 278 147 351 187 l 244 147 q 199 237 215 147 q 347 724 347 604 l 335 724 q 323 713 323 724 l 301 724 q 120 679 192 679 q 41 758 62 679 q 380 860 41 825 q 505 679 488 860 l 505 656 q 652 679 652 665 l 675 667 l 697 667 q 753 871 711 667 q 788 905 753 888 m 494 124 l 528 124 q 618 -57 553 115 q 753 -147 701 -147 q 980 -45 926 -91 l 1082 -45 l 1082 -113 q 788 -283 958 -245 l 731 -283 q 460 -23 564 -283 l 448 90 l 494 124 z "},"겔":{"ha":1204,"x_min":41,"x_max":1150,"o":"m 1059 939 q 1150 848 1150 925 q 1139 770 1150 784 q 1150 555 1150 646 l 1150 328 q 1082 271 1109 271 l 1025 305 l 1003 804 l 1014 860 l 1003 883 q 1059 939 1022 939 m 856 871 q 958 838 899 871 l 958 701 q 946 690 958 690 q 958 679 946 679 q 935 452 935 566 l 935 339 q 867 283 903 283 q 799 441 799 283 l 810 600 q 788 633 799 633 q 494 543 538 543 l 471 543 q 313 237 391 237 q 244 328 275 237 q 347 713 347 630 l 335 713 q 120 611 304 713 q 41 724 49 611 q 278 848 183 833 q 357 860 343 848 q 494 690 494 860 q 618 713 507 690 l 629 713 q 641 701 641 713 q 833 860 833 736 l 856 871 m 731 192 l 777 192 q 980 68 980 192 q 709 -113 857 -81 q 777 -147 709 -136 q 946 -113 918 -125 q 1025 -159 954 -113 l 1025 -170 q 856 -283 1003 -283 l 743 -283 q 562 -125 595 -283 l 562 -57 q 765 56 577 -22 l 765 68 l 753 68 l 753 56 q 743 68 743 56 l 686 56 l 516 56 q 437 113 460 56 q 538 181 437 181 q 731 192 611 192 z "},"겜":{"ha":1125,"x_min":41,"x_max":1071,"o":"m 912 1086 q 980 1064 932 1086 q 991 1075 980 1075 l 1003 1053 l 1003 962 q 1025 848 1005 848 l 1014 826 l 1014 804 q 1025 792 1014 792 l 1014 770 q 1003 396 1003 467 l 980 385 q 969 396 980 396 q 924 362 969 362 q 856 475 856 402 l 844 475 q 867 600 856 600 q 856 611 867 611 q 878 826 867 669 q 867 1064 867 935 q 912 1086 895 1086 m 686 1053 q 799 962 799 1053 l 799 701 q 810 690 799 690 l 799 667 l 799 589 q 765 351 799 418 l 810 351 q 856 362 836 351 q 890 339 890 351 l 912 351 l 935 351 l 935 328 l 946 328 q 969 351 969 328 q 1071 317 1061 317 l 1071 260 q 1059 249 1071 249 l 1071 227 q 958 -125 1018 139 q 562 -260 810 -260 q 380 -113 435 -215 q 323 181 323 90 l 323 215 q 391 237 323 237 l 380 294 q 675 328 439 317 q 709 339 675 339 l 709 351 q 652 475 652 351 q 663 566 652 485 q 652 679 652 625 l 663 679 q 652 713 652 701 q 448 633 572 633 l 437 633 l 437 656 l 414 656 q 313 373 357 381 q 222 486 222 422 q 267 747 267 595 l 256 747 q 97 724 105 724 l 41 770 l 41 838 q 244 894 41 860 q 278 883 267 883 l 301 894 q 414 770 414 894 l 437 770 q 663 860 525 770 l 652 883 l 652 962 q 686 1053 652 1045 m 731 227 l 652 227 q 572 192 652 192 l 562 192 q 460 203 521 192 l 448 203 l 448 192 l 471 192 q 460 181 471 181 q 618 -113 505 -113 q 856 45 818 -113 q 912 237 901 135 q 867 249 887 237 q 731 227 789 227 z "},"겝":{"ha":1125,"x_min":41,"x_max":1071,"o":"m 991 1041 l 1025 1041 q 1071 939 1071 1026 l 1071 781 q 1059 736 1071 755 q 1071 724 1059 724 l 1059 611 l 1059 362 q 1048 351 1059 351 q 1059 340 1048 340 l 1048 283 l 1048 203 q 867 -215 1048 -121 l 799 -215 q 505 147 581 -215 l 505 215 q 562 317 505 317 q 641 102 604 317 q 946 215 946 142 l 946 238 q 912 272 930 238 q 958 328 912 328 l 958 340 l 946 362 l 958 362 q 935 487 935 406 l 935 656 q 946 996 935 770 l 991 1041 m 810 1019 l 856 1019 q 890 928 890 1012 q 833 475 852 523 l 844 453 l 844 430 q 810 362 844 372 l 788 374 q 777 362 788 362 q 720 487 720 447 q 731 532 720 512 q 720 634 720 593 l 720 645 l 731 724 l 720 724 l 528 600 q 448 656 448 609 l 425 656 q 335 328 414 555 l 278 328 q 244 362 262 328 l 244 408 q 313 815 244 456 l 290 826 q 97 747 191 772 q 41 781 41 762 l 41 815 q 323 962 92 883 q 448 770 448 962 q 437 736 437 748 l 460 724 q 731 860 461 744 q 777 996 751 875 l 810 1019 m 720 -34 l 720 -45 q 765 -68 737 -45 l 810 -68 q 878 0 826 -68 q 720 -34 764 -34 z "},"겟":{"ha":1317,"x_min":41,"x_max":1263,"o":"m 1161 951 q 1229 747 1229 951 q 1218 736 1229 736 l 1229 679 q 1206 430 1229 515 q 1218 419 1206 419 q 1150 159 1218 229 q 1071 203 1093 170 q 1093 838 1093 393 l 1093 883 q 1161 951 1093 951 m 278 905 l 278 895 l 301 905 l 313 905 q 505 804 459 905 q 538 656 530 656 q 788 736 774 736 l 788 724 q 867 826 867 724 q 901 883 875 883 l 958 883 q 1003 758 986 883 l 991 736 q 980 260 980 388 l 958 249 q 856 374 871 249 l 856 566 l 844 589 q 856 600 856 589 q 584 498 829 600 l 584 487 l 516 509 q 448 317 448 334 q 380 238 398 238 q 313 340 313 252 q 391 747 391 616 l 357 770 q 313 758 338 758 l 313 770 l 120 702 l 109 702 q 41 792 41 730 q 267 905 41 857 l 278 905 m 731 328 l 743 328 q 788 238 788 313 q 765 68 788 165 l 1252 -147 q 1263 -203 1252 -203 q 1229 -272 1249 -272 l 1206 -272 q 743 -68 1040 -215 l 709 -237 l 720 -237 q 663 -351 703 -351 q 584 -215 584 -332 q 595 -181 595 -193 l 584 -181 l 595 -159 l 595 -136 q 686 317 595 76 q 731 328 706 328 z "},"겠":{"ha":1464,"x_min":41,"x_max":1410,"o":"m 1116 939 l 1139 939 q 1195 758 1187 939 q 1184 430 1184 574 l 1184 351 q 1150 283 1184 310 q 1059 577 1074 283 q 1071 905 1071 728 l 1116 939 m 856 928 l 878 928 q 946 860 946 928 l 946 713 q 958 374 946 600 q 969 362 969 374 l 958 362 l 969 340 l 958 317 q 833 509 833 317 q 810 623 819 509 q 505 543 505 566 q 391 272 451 272 q 323 351 323 324 l 391 713 l 369 724 l 347 724 q 97 702 298 724 l 41 758 l 41 804 q 313 871 73 871 q 516 747 487 871 q 528 724 516 724 q 720 758 562 724 l 810 758 q 856 928 822 928 m 606 317 q 652 272 625 317 l 652 147 l 641 68 q 924 -68 848 -68 q 1059 227 998 227 q 1127 159 1127 227 l 1127 125 q 1105 12 1127 102 q 1410 -181 1381 -149 l 1410 -215 l 1399 -215 l 1410 -237 q 1388 -260 1410 -260 l 1342 -260 q 1093 -136 1293 -260 l 1048 -136 q 969 -283 999 -283 l 935 -283 q 890 -237 917 -283 l 890 -227 l 901 -203 l 675 -113 q 629 -79 675 -102 l 606 -79 q 562 -294 606 -151 l 550 -294 q 471 -215 471 -294 q 494 34 471 -51 l 482 56 q 562 306 547 306 q 606 317 581 317 z "},"겡":{"ha":1171,"x_min":41,"x_max":1116,"o":"m 1025 928 l 1048 928 q 1105 758 1105 928 l 1105 453 q 1116 272 1105 387 q 1071 215 1101 219 q 980 611 980 215 l 980 645 q 969 690 980 671 q 1025 928 989 928 m 335 905 q 482 713 482 905 q 494 679 494 691 q 482 668 482 679 q 494 656 494 668 l 709 702 q 720 690 720 702 q 765 702 740 702 l 753 724 q 799 838 765 838 q 890 679 890 838 q 901 408 901 429 l 890 385 q 912 238 901 374 q 901 203 901 216 l 867 203 q 765 566 777 203 l 753 566 q 516 498 736 566 q 460 543 515 513 q 391 351 437 426 l 403 328 q 369 249 369 260 q 267 351 267 272 l 267 362 q 357 724 267 437 l 357 747 l 120 668 q 41 713 59 668 l 41 781 q 335 905 79 830 m 890 136 l 935 136 q 1071 -79 1071 136 q 924 -294 1057 -155 q 765 -362 785 -362 q 516 -125 516 -321 l 516 -90 q 686 79 516 79 q 890 136 745 113 m 641 -125 q 743 -203 674 -203 q 946 -12 946 -129 q 912 0 924 0 q 641 -125 641 -29 z "},"겨":{"ha":1102,"x_min":41,"x_max":1048,"o":"m 991 849 q 1037 781 1037 810 q 1025 328 1025 496 l 1037 328 l 1025 306 l 1025 249 q 1037 238 1025 238 l 1025 215 l 1025 170 q 1037 159 1025 159 l 1025 136 l 1025 91 q 1048 0 1048 11 l 1048 -79 q 1025 -102 1048 -102 l 1014 -102 q 901 181 901 -102 l 901 306 l 652 238 l 595 238 l 562 260 q 494 56 509 161 l 505 56 q 437 -22 477 -22 q 347 91 347 8 l 347 102 q 482 543 347 137 q 494 634 494 587 l 482 634 q 132 521 413 634 q 41 589 69 521 q 471 792 41 705 q 629 611 629 772 q 912 668 672 634 l 912 758 q 991 849 912 849 m 799 487 l 777 498 q 652 464 700 464 q 629 487 652 487 l 606 487 l 606 419 l 595 396 l 606 396 q 890 487 890 433 q 901 521 890 498 q 890 532 890 521 q 799 487 799 505 z "},"격":{"ha":1057,"x_min":41,"x_max":1003,"o":"m 958 928 q 1003 849 1003 888 q 969 227 969 331 l 969 170 l 946 136 l 980 68 l 969 68 l 980 45 l 969 -12 l 980 -12 q 856 -408 897 -408 l 822 -408 q 765 -328 765 -385 q 844 12 765 -212 q 833 22 833 12 q 471 -34 692 -12 q 414 56 414 10 l 414 79 q 867 170 414 122 l 833 396 q 844 430 844 418 l 833 430 q 572 362 654 362 l 482 441 q 505 521 505 498 l 572 521 q 777 555 667 521 l 777 543 q 856 600 856 550 l 799 600 l 584 555 q 516 656 516 606 q 878 747 516 724 l 878 838 q 958 928 878 928 m 391 826 q 494 690 494 811 l 494 589 q 335 159 382 159 l 335 147 q 256 238 256 159 q 369 668 256 325 l 357 668 q 109 645 302 668 q 41 736 41 669 q 199 804 41 804 q 391 826 345 826 z "},"겪":{"ha":978,"x_min":41,"x_max":924,"o":"m 822 985 q 912 860 912 985 l 901 747 l 901 260 l 890 237 l 901 237 q 867 192 895 192 l 924 90 q 810 -272 924 -117 q 731 -227 731 -272 l 777 56 q 629 11 744 34 q 606 -215 606 -113 q 629 -408 618 -400 l 606 -465 q 482 -272 482 -465 q 471 -204 482 -204 l 482 -147 l 482 -34 q 357 -57 386 -57 q 256 34 256 -57 l 256 56 q 743 192 256 88 l 799 192 q 765 430 777 430 l 777 452 q 765 498 765 473 l 743 498 q 652 441 743 463 q 425 385 652 423 q 323 192 425 323 q 244 249 267 192 l 244 305 q 369 645 244 333 l 369 667 q 347 690 369 690 l 154 690 q 41 758 66 690 l 41 781 q 75 848 47 848 l 154 848 q 494 747 494 848 q 765 804 646 792 q 777 792 765 792 l 788 814 l 788 951 q 822 985 788 967 m 494 555 l 516 555 q 720 623 674 577 l 743 611 l 753 611 q 777 633 777 611 l 777 667 l 765 667 q 494 555 494 629 z "},"견":{"ha":1102,"x_min":41,"x_max":1048,"o":"m 924 985 q 980 939 974 939 q 912 328 912 414 l 912 113 q 878 79 912 97 l 844 79 q 777 249 803 79 l 788 271 l 788 464 q 528 408 700 430 l 460 418 q 347 170 389 170 q 267 271 267 170 l 391 690 l 391 701 l 347 701 q 132 645 319 701 q 41 713 64 645 q 391 871 41 817 q 528 736 486 871 q 799 804 551 736 l 799 792 q 844 804 819 804 q 912 985 844 985 l 924 985 m 562 589 l 516 611 q 505 555 516 573 l 528 543 l 528 555 q 538 543 538 555 q 810 633 783 603 l 810 656 l 799 656 q 562 589 750 656 m 471 181 q 550 -12 516 181 q 697 -91 625 -91 q 844 -45 748 -91 l 844 -57 q 980 11 922 -27 l 1014 -12 q 1025 0 1014 0 l 1048 -34 l 1048 -79 q 810 -238 977 -192 q 720 -249 766 -249 l 686 -249 q 403 0 515 -249 l 403 113 q 471 181 403 181 z "},"겯":{"ha":1080,"x_min":41,"x_max":1025,"o":"m 901 1109 q 946 1064 946 1098 q 924 724 946 899 q 946 701 946 721 q 901 408 918 701 l 912 385 l 901 317 l 901 271 q 856 260 861 260 q 765 305 765 274 l 765 351 q 777 385 765 385 l 765 441 l 765 577 l 629 543 q 528 589 528 559 l 528 600 q 765 679 545 635 l 777 701 l 777 770 l 765 770 q 562 690 600 690 l 505 701 q 437 328 479 378 l 380 328 l 323 339 l 323 396 q 357 701 357 541 q 120 667 305 701 l 41 679 l 41 713 q 347 804 267 804 q 505 758 460 777 q 799 894 506 774 q 867 1098 799 1098 q 901 1109 889 1109 m 901 249 q 946 181 931 249 q 618 79 812 117 l 618 68 q 720 -68 652 -27 l 743 -68 q 969 34 784 -68 q 1014 45 989 45 l 1025 22 q 743 -170 1025 -106 q 460 90 547 -170 q 425 113 425 90 q 720 192 425 149 q 901 249 844 249 z "},"결":{"ha":1068,"x_min":41,"x_max":1014,"o":"m 890 1143 q 958 1086 907 1143 l 924 419 l 912 419 l 924 396 q 901 306 924 347 q 958 238 958 280 q 675 -45 958 102 l 675 -90 q 731 -113 694 -90 q 878 -22 837 -87 q 969 12 926 12 q 1014 -56 999 12 q 777 -249 903 -249 l 720 -249 q 505 -56 579 -249 q 618 45 578 45 q 765 181 745 134 l 753 181 q 505 113 672 147 q 425 170 434 136 l 425 193 q 788 306 425 241 l 788 351 q 777 362 788 362 q 788 374 777 374 l 777 453 l 777 668 q 572 577 652 577 l 516 623 q 437 464 501 623 q 357 419 397 419 q 313 509 323 419 q 403 895 403 808 q 142 747 375 895 l 86 747 q 41 792 75 747 q 425 1007 121 916 q 550 917 482 1007 q 788 996 588 917 q 867 1143 806 1143 l 890 1143 m 572 792 l 538 792 l 538 736 l 528 679 l 538 679 q 788 826 742 768 l 788 871 l 777 871 q 572 792 724 833 z "},"겸":{"ha":1080,"x_min":41,"x_max":1025,"o":"m 912 1086 q 1025 962 1025 1086 l 1014 905 l 1014 600 q 1003 430 1014 543 l 1014 430 q 958 306 1014 306 q 867 294 929 306 l 856 317 l 856 611 l 844 611 q 528 475 634 475 q 448 555 486 475 l 437 555 q 335 272 389 272 q 301 260 301 272 q 233 328 283 260 l 313 690 l 301 690 l 313 713 l 313 781 l 301 781 q 132 702 161 702 l 120 702 q 41 758 63 702 l 41 770 q 347 917 111 860 l 357 917 q 471 792 444 917 q 731 895 525 838 l 822 939 l 822 928 q 867 939 842 939 l 867 951 q 912 1086 867 1086 m 844 838 q 595 702 763 776 l 584 702 q 482 781 482 702 l 471 781 q 448 589 471 621 q 777 713 659 634 l 799 724 q 833 713 821 713 q 867 826 853 739 l 844 838 m 901 238 q 1025 22 1025 238 l 1025 -79 q 1014 -90 1025 -90 l 1025 -113 l 1025 -147 q 901 -340 996 -340 q 743 -396 901 -363 q 731 -408 743 -408 l 629 -408 q 460 -249 509 -408 q 425 79 446 32 q 505 136 425 102 q 697 193 505 193 q 901 238 697 203 m 606 22 q 595 -22 606 -3 l 606 -45 l 595 -90 q 663 -193 595 -193 q 731 -203 723 -203 q 867 -193 811 -193 l 867 -181 l 878 -79 q 867 45 867 -2 q 606 22 674 22 z "},"겹":{"ha":1034,"x_min":41,"x_max":980,"o":"m 822 1019 l 867 1019 q 946 928 946 1019 l 946 849 q 958 747 946 808 q 946 713 946 725 l 958 713 l 946 690 l 946 441 q 935 272 946 385 l 924 272 q 799 260 823 260 l 799 272 q 788 374 799 313 l 799 396 q 788 521 788 458 q 538 430 632 430 q 460 487 522 430 q 323 249 418 249 q 267 306 294 256 l 267 328 l 380 758 l 357 770 q 347 758 357 758 l 347 770 q 86 702 157 702 q 41 792 52 702 q 391 883 179 883 q 505 792 505 883 l 528 792 q 799 871 799 829 l 788 871 l 799 895 l 799 939 l 788 996 l 822 1019 m 505 566 q 799 634 572 566 l 799 668 l 788 724 q 505 623 536 656 l 505 566 m 901 170 q 980 68 966 170 q 777 -306 924 -186 q 720 -328 777 -328 l 709 -328 q 505 45 505 -199 l 505 102 l 562 102 q 641 -22 641 102 q 652 -34 652 -22 q 844 91 844 3 l 844 159 l 901 170 m 675 -136 q 709 -181 692 -181 l 731 -181 q 777 -113 731 -159 l 765 -113 q 675 -136 731 -113 z "},"겻":{"ha":1125,"x_min":41,"x_max":1071,"o":"m 901 1076 q 980 962 972 1076 l 980 656 q 969 611 980 631 q 980 566 980 591 q 912 203 980 203 l 867 203 q 822 283 852 203 l 822 317 q 833 351 822 351 l 822 408 l 822 498 q 833 543 822 524 q 810 589 824 589 q 516 487 566 487 q 505 498 516 498 q 414 238 482 470 q 369 215 397 238 q 290 294 290 215 q 391 781 391 771 l 391 826 l 369 838 l 323 838 q 86 792 163 792 q 41 871 41 832 q 290 962 41 897 q 301 951 301 962 l 357 962 q 528 849 528 944 q 777 895 723 895 l 833 895 l 833 985 q 901 1076 833 1076 m 777 781 l 777 792 q 538 702 538 716 q 528 611 528 640 l 538 611 q 833 713 736 694 l 833 804 l 810 804 l 777 781 m 686 396 q 777 328 762 374 l 777 317 l 720 136 l 1071 -79 l 1071 -136 l 991 -159 q 686 12 966 -159 q 572 -283 612 -274 q 494 -159 523 -283 q 663 385 553 212 q 686 396 686 385 z "},"겼":{"ha":1181,"x_min":41,"x_max":1127,"o":"m 799 1098 l 810 1098 q 935 770 935 1098 l 935 374 q 878 260 935 320 q 799 306 863 260 l 810 362 q 788 589 803 589 q 437 498 521 498 l 380 532 l 357 532 q 233 294 292 294 q 154 351 216 294 q 278 758 154 379 l 267 758 q 120 736 132 747 q 41 838 41 769 q 335 895 86 895 q 425 860 383 860 l 743 917 q 777 905 764 905 l 777 939 q 765 1041 777 980 q 799 1098 780 1098 m 414 702 q 425 690 414 690 l 414 668 l 414 634 l 482 634 q 697 702 663 679 l 720 690 q 788 724 788 702 l 788 792 q 414 702 414 728 m 425 283 q 528 203 528 263 q 482 34 528 185 q 709 -90 482 -5 l 709 -79 q 833 238 814 238 l 890 238 q 935 193 907 238 l 935 125 q 890 -12 935 106 q 1127 -203 1127 -128 q 1071 -249 1071 -241 q 856 -125 929 -186 q 788 -249 842 -125 q 709 -306 758 -306 l 675 -306 l 663 -260 l 663 -181 l 437 -113 l 425 -113 q 313 -385 425 -194 l 244 -385 q 222 -340 244 -367 l 222 -328 q 425 283 313 62 z "},"경":{"ha":1091,"x_min":41,"x_max":1037,"o":"m 901 1064 l 924 1064 q 1025 928 1015 1064 l 1014 905 q 1025 441 1025 610 q 1037 340 1025 401 q 1025 260 1025 325 l 1025 203 l 991 147 q 1014 56 1014 106 l 1014 45 q 822 -170 1014 -37 l 731 -170 q 572 45 610 -170 q 618 170 589 170 l 697 159 q 890 215 704 199 q 901 203 890 203 q 878 543 878 379 l 867 543 q 562 487 725 509 q 482 543 551 487 l 494 566 l 494 577 l 482 577 l 347 193 l 301 193 q 256 238 283 193 l 256 306 q 335 600 256 386 q 357 713 357 600 l 154 656 l 75 656 q 41 758 41 716 q 391 849 118 804 q 482 781 482 821 l 494 781 q 844 838 798 838 l 867 838 l 867 973 q 901 1064 867 1057 m 550 645 q 505 656 530 656 q 494 623 494 635 l 494 611 l 505 611 l 505 634 q 538 623 527 623 q 810 668 654 623 l 833 656 q 867 668 855 668 l 867 713 q 550 645 848 713 m 720 22 l 731 -34 l 743 -34 q 867 68 814 -34 l 856 68 q 720 22 720 48 z "},"곁":{"ha":1057,"x_min":41,"x_max":1003,"o":"m 878 1075 l 935 1075 q 1003 973 1003 1047 q 980 543 980 692 q 969 509 980 531 l 980 486 q 969 452 980 475 l 980 385 l 980 351 q 924 294 954 294 q 935 283 924 283 q 709 181 935 220 l 709 170 l 686 181 q 562 124 562 150 q 550 79 562 99 l 562 79 q 867 124 595 79 l 901 124 q 946 79 901 108 l 946 56 q 572 -57 946 -23 l 572 -68 q 663 -227 572 -219 q 901 -102 680 -210 q 980 -159 949 -113 q 686 -374 980 -256 q 652 -385 674 -374 q 448 -181 551 -385 q 403 -12 429 -41 l 403 124 q 347 181 373 132 l 347 237 q 572 283 347 260 q 844 351 630 317 q 822 452 833 452 l 833 475 l 822 532 l 833 600 q 822 611 822 600 q 618 566 741 566 l 550 566 q 494 633 537 566 q 357 339 411 365 l 335 339 q 278 441 278 373 q 380 826 278 456 l 369 826 q 75 747 140 747 l 41 792 l 41 848 q 244 939 41 871 l 244 928 q 403 962 319 962 l 437 962 q 516 871 516 922 q 856 973 856 935 l 878 1075 m 516 690 l 538 690 q 550 701 550 690 q 562 690 562 701 l 833 724 l 833 792 l 844 814 l 833 814 q 528 724 540 724 q 516 690 516 703 z "},"계":{"ha":1317,"x_min":41,"x_max":1263,"o":"m 1116 928 l 1139 928 q 1229 770 1229 928 q 1252 260 1252 770 l 1252 -57 q 1263 -68 1252 -68 q 1195 -125 1256 -125 l 1184 -125 q 1105 11 1105 -125 l 1105 68 q 1116 464 1105 170 q 1082 883 1105 751 q 1116 928 1099 928 m 867 905 q 969 747 969 905 l 958 747 l 969 724 l 958 589 q 969 555 958 576 q 958 543 969 543 l 969 464 l 969 181 l 958 113 q 969 56 969 94 q 901 -12 969 22 q 822 102 822 18 l 822 441 q 652 396 652 408 q 641 408 641 396 l 584 396 q 494 464 522 396 q 641 532 494 524 l 641 520 q 822 566 739 555 l 822 577 q 810 589 822 589 l 822 611 l 822 623 q 584 543 798 623 l 538 543 q 516 577 538 577 l 505 577 q 391 147 486 452 q 323 90 370 106 q 267 203 267 130 q 357 600 267 291 q 97 498 335 600 l 41 566 l 52 566 l 41 589 q 335 736 41 659 q 425 770 379 770 q 505 656 505 730 q 822 758 614 709 l 833 814 q 822 848 822 837 q 867 905 844 901 z "},"곈":{"ha":1408,"x_min":41,"x_max":1354,"o":"m 912 1109 q 1014 1053 989 1089 q 1003 1041 1014 1041 l 1014 962 l 1014 848 q 1037 804 1037 821 q 1071 452 1037 631 q 1037 373 1055 373 l 980 373 q 890 667 899 504 q 471 566 612 566 q 460 577 471 577 l 414 396 l 425 396 q 380 305 403 305 l 335 305 q 278 418 278 342 l 290 441 q 278 452 290 452 q 369 804 278 482 l 357 804 l 369 826 l 357 848 l 120 804 l 97 804 q 41 894 41 832 l 41 905 q 380 973 41 949 l 391 973 q 528 860 494 973 l 550 871 q 562 860 562 871 q 878 939 620 891 q 890 951 878 951 l 878 1029 l 878 1075 q 912 1109 878 1091 m 1184 1075 q 1308 905 1279 1075 q 1297 894 1308 894 l 1308 838 l 1308 713 q 1342 396 1308 526 q 1252 305 1326 305 q 1150 690 1168 344 l 1161 804 l 1139 1019 q 1184 1075 1154 1071 m 538 724 l 505 724 l 505 701 l 516 701 q 844 781 803 739 l 878 781 l 878 758 l 890 758 l 890 814 l 878 814 l 538 724 m 618 351 q 753 56 688 351 q 844 -68 783 -11 l 856 -68 q 1218 90 935 -68 q 1274 113 1218 110 l 1297 113 q 1354 68 1348 68 q 1252 -57 1354 -30 q 856 -215 969 -215 l 844 -215 q 606 45 728 -215 q 572 317 572 222 q 618 351 572 345 z "},"곌":{"ha":1204,"x_min":41,"x_max":1150,"o":"m 810 1200 q 924 1086 924 1200 l 924 838 l 912 770 q 924 724 924 750 q 856 453 924 453 l 844 453 q 788 645 788 472 q 777 758 788 659 q 788 770 788 758 l 765 770 q 528 668 608 668 l 505 668 q 448 702 448 668 l 425 702 q 267 396 339 432 q 199 475 199 414 l 323 860 l 313 860 q 97 758 113 758 q 41 860 41 810 l 41 883 q 357 985 244 985 q 471 792 444 985 l 777 871 l 788 871 q 777 928 777 890 q 505 860 588 860 q 448 973 448 911 q 494 1007 494 996 l 516 996 q 550 1007 538 1007 l 550 996 q 788 1041 650 1030 l 788 1177 q 810 1200 791 1200 m 1025 1154 q 1139 758 1139 1154 q 1127 566 1127 671 q 1139 532 1127 554 q 1048 374 1139 374 q 991 770 991 374 l 991 951 q 980 962 991 962 l 991 985 q 980 996 991 996 l 991 1076 l 991 1143 q 1025 1154 1025 1143 m 878 317 q 1025 249 954 317 l 1014 227 l 1014 215 q 1025 203 1014 203 q 924 45 1011 144 q 709 -79 726 -79 l 709 -102 q 765 -147 732 -147 q 1059 -45 823 -147 q 1093 -56 1081 -56 q 1105 -45 1093 -45 q 1150 -125 1150 -96 q 856 -294 1088 -227 l 743 -294 q 562 -68 624 -294 l 562 -12 q 765 102 568 8 q 810 159 765 125 l 799 159 q 505 147 583 147 q 460 203 505 153 l 460 272 l 516 283 l 618 283 l 641 294 l 641 283 q 878 317 737 317 z "},"곕":{"ha":1159,"x_min":41,"x_max":1105,"o":"m 753 1132 l 822 1132 q 890 905 881 1132 q 878 860 878 886 q 890 781 878 826 q 878 577 878 674 l 878 532 q 890 521 878 521 l 878 498 l 878 396 q 833 351 878 378 q 743 634 751 351 q 641 577 643 613 q 629 589 629 577 q 448 543 581 570 q 391 611 408 611 q 290 419 321 419 l 267 419 q 210 475 252 419 l 210 543 q 313 871 313 849 l 301 871 q 86 838 117 838 q 41 962 41 886 q 369 1019 197 1019 q 482 928 409 1010 q 743 973 525 928 l 743 1019 l 753 1132 m 1025 1086 q 1105 985 1074 1086 q 1093 521 1093 690 l 1093 396 q 1025 306 1080 306 q 958 487 958 306 l 958 656 q 969 1076 958 788 l 1025 1086 m 471 770 l 448 770 q 437 702 437 710 l 448 702 q 743 781 555 702 l 743 826 l 731 849 q 471 770 675 815 m 494 374 l 516 374 q 618 306 598 374 q 652 136 626 166 q 641 125 641 136 l 663 113 q 935 193 935 164 q 901 294 935 224 q 912 328 912 316 q 1059 159 1036 328 q 765 -237 1059 -83 q 731 -227 743 -227 l 709 -237 q 494 283 494 -132 l 494 374 m 697 -45 l 697 -68 l 720 -68 q 833 -12 751 -68 l 833 0 l 788 0 q 697 -45 697 -32 z "},"곗":{"ha":1261,"x_min":41,"x_max":1206,"o":"m 799 1086 l 810 1086 q 924 804 924 1086 q 958 328 958 530 q 890 238 958 238 q 810 566 810 340 l 799 566 q 482 464 617 464 l 414 464 q 313 272 355 278 q 244 351 244 303 q 347 758 244 404 q 335 770 335 758 q 75 724 154 724 q 41 826 41 768 l 41 838 q 301 895 41 888 l 369 895 q 460 849 410 895 q 641 871 591 849 l 663 860 q 777 895 777 871 l 777 1064 q 799 1086 780 1086 m 1071 1041 l 1093 1041 q 1195 770 1195 1041 q 1206 498 1206 647 q 1139 249 1184 283 q 1071 340 1071 264 q 1082 498 1071 427 l 1059 713 q 1071 724 1059 724 l 1059 804 l 1059 985 l 1071 1041 m 538 702 l 494 702 q 471 611 494 684 l 516 611 q 799 679 570 611 q 777 758 799 758 l 538 702 m 743 317 q 833 227 833 306 q 799 91 833 201 l 1150 -125 q 1161 -159 1161 -146 q 1105 -227 1145 -205 l 1059 -227 q 765 -56 867 -121 q 663 -260 696 -260 l 641 -260 q 584 -193 621 -260 q 743 317 682 317 z "},"고":{"ha":785,"x_min":41,"x_max":731,"o":"m 562 826 l 595 826 q 720 611 720 826 q 606 203 675 203 l 584 203 q 528 283 528 238 q 572 668 550 337 l 572 690 l 494 690 l 199 611 q 120 724 128 611 l 120 758 q 562 826 464 826 m 313 475 l 335 475 q 425 362 425 464 l 425 272 q 448 56 448 79 l 448 45 l 437 -34 q 629 -56 509 -34 l 652 -45 q 731 -136 720 -45 l 731 -147 q 652 -215 731 -167 q 323 -181 492 -181 l 290 -181 q 278 -170 278 -181 l 256 -181 l 210 -181 q 199 -170 199 -181 l 176 -181 q 41 -79 41 -181 l 41 -34 q 86 -22 66 -34 q 97 -34 97 -22 l 210 -22 l 267 -22 l 290 -34 l 290 -22 l 313 -34 l 323 -34 l 323 12 q 335 56 323 37 q 278 430 290 191 q 313 475 296 475 z "},"곡":{"ha":1046,"x_min":41,"x_max":991,"o":"m 516 1098 l 538 1086 l 562 1086 q 572 1098 572 1086 l 595 1086 l 697 1086 q 856 939 856 1074 l 867 939 q 743 611 804 611 l 720 611 q 675 668 704 612 q 720 928 720 880 q 697 951 720 951 l 618 951 q 357 917 521 951 q 313 1030 313 964 l 313 1041 q 516 1098 313 1064 m 471 838 l 538 838 q 595 736 572 838 l 595 475 q 935 498 817 498 q 969 487 957 487 q 958 475 969 475 l 991 419 q 924 351 948 353 l 901 362 q 618 317 688 337 q 606 328 606 317 q 460 294 460 302 q 448 306 448 294 q 86 272 302 272 l 41 340 l 41 385 q 335 430 41 413 q 471 453 335 444 l 471 555 q 460 600 471 580 q 471 611 460 611 l 460 690 l 460 781 l 471 838 m 765 203 q 867 91 851 203 l 867 45 q 777 -294 822 -294 l 731 -294 q 675 -193 706 -294 l 720 56 q 709 68 709 56 q 425 0 516 0 q 347 125 369 0 q 572 170 374 147 q 765 203 572 196 z "},"곤":{"ha":1102,"x_min":41,"x_max":1048,"o":"m 720 1076 l 743 1064 q 844 1076 804 1076 q 935 996 907 1076 l 935 895 q 810 532 935 668 l 799 532 q 753 589 753 555 q 788 928 788 892 l 777 928 l 753 917 q 743 928 753 928 l 743 917 l 720 928 q 471 883 584 883 l 460 883 q 403 985 403 914 q 641 1053 403 1053 q 720 1076 641 1064 m 572 770 l 584 770 q 686 543 686 770 q 697 487 686 487 l 686 464 l 686 441 q 709 419 690 419 q 753 430 714 419 q 765 419 765 430 l 844 430 l 935 430 q 1025 396 956 430 l 1025 340 q 584 260 1025 294 q 165 193 444 227 l 97 193 q 41 317 69 193 q 584 396 41 340 q 538 713 538 597 q 572 770 547 770 m 471 215 l 505 215 q 584 -68 559 215 q 618 -102 610 -102 q 901 0 654 -102 q 1014 22 922 12 q 1048 -56 1048 -19 q 867 -181 1023 -131 q 618 -272 659 -272 q 448 -79 536 -272 q 437 -34 437 -60 l 437 181 q 471 215 437 197 z "},"곧":{"ha":1080,"x_min":41,"x_max":1025,"o":"m 550 1041 l 572 1041 q 856 939 810 1041 l 867 804 q 720 452 804 452 q 675 509 682 509 q 720 826 686 532 l 720 883 l 606 894 q 414 871 425 883 q 347 973 347 900 l 357 1029 q 550 1041 490 1041 m 471 770 l 482 770 q 572 679 572 770 q 562 486 572 641 l 572 486 l 562 464 l 572 385 q 935 396 816 396 q 1025 305 1025 396 l 1025 294 q 980 271 1008 294 q 199 203 402 249 l 109 203 q 41 317 41 257 l 41 339 l 109 351 q 448 373 250 351 q 425 566 425 515 q 471 770 433 770 m 912 124 q 1003 11 995 124 q 663 -68 1003 -27 q 482 -113 663 -83 l 482 -125 q 606 -249 482 -205 q 924 -147 903 -147 q 980 -227 980 -154 q 686 -408 980 -287 l 606 -408 q 437 -306 504 -408 q 347 -125 389 -306 l 301 -125 q 199 -34 238 -125 l 199 0 q 233 22 199 22 q 584 68 468 22 l 584 56 q 912 124 608 79 z "},"골":{"ha":1136,"x_min":41,"x_max":1082,"o":"m 743 1041 q 935 838 935 1041 q 788 498 875 498 q 731 566 753 505 q 799 883 743 649 q 743 905 762 905 q 380 814 583 905 l 347 814 q 301 883 332 814 l 301 951 q 471 996 460 996 q 482 985 471 985 q 538 1019 482 1004 l 572 1019 q 584 1029 572 1029 l 743 1041 m 550 860 l 562 860 q 641 781 641 860 q 618 543 618 602 l 618 418 q 753 430 636 418 q 788 418 766 430 l 856 430 l 1014 430 q 1082 351 1082 399 q 1025 294 1074 321 q 969 305 987 294 q 188 227 188 254 q 41 351 41 237 l 75 373 q 494 396 191 373 l 494 464 l 482 520 l 494 520 l 482 543 l 482 577 q 550 860 482 783 m 686 136 l 709 124 l 731 136 q 833 0 833 117 q 595 -181 710 -145 q 562 -215 562 -208 l 562 -272 q 606 -283 587 -272 q 969 -193 675 -283 l 991 -193 q 1037 -283 1021 -193 q 980 -351 980 -321 q 584 -430 980 -396 q 414 -249 465 -430 l 414 -193 q 505 -79 414 -133 l 538 -34 q 369 68 369 -34 l 369 102 l 403 124 l 471 124 q 686 136 562 124 z "},"곪":{"ha":1317,"x_min":41,"x_max":1263,"o":"m 686 985 l 867 985 q 1037 792 1006 985 q 856 475 985 475 l 856 486 q 822 543 856 500 l 912 781 l 901 804 l 912 826 l 844 860 l 844 848 l 822 860 l 753 860 q 505 792 711 860 q 448 871 477 799 q 686 985 448 947 m 528 747 l 572 747 q 618 679 595 747 l 595 441 q 606 408 606 419 l 618 408 q 629 418 629 408 q 641 408 641 418 l 833 430 q 844 418 844 430 l 980 430 l 1150 430 q 1263 362 1209 430 l 1263 339 q 1161 294 1248 294 l 890 294 q 301 203 541 294 q 290 215 290 203 l 176 203 l 109 203 q 41 339 81 203 q 75 351 62 351 q 471 408 471 366 l 471 520 q 505 690 471 598 l 494 690 q 528 747 508 747 m 980 136 q 1161 -113 1109 136 q 1150 -260 1150 -188 l 1150 -272 l 1071 -328 q 777 -408 1071 -408 q 675 -272 697 -408 q 652 -215 654 -272 q 663 -45 652 -188 q 641 22 641 -8 q 675 79 675 60 q 777 68 715 79 q 980 136 954 136 m 244 113 q 380 79 298 93 l 448 90 l 482 90 q 584 56 581 81 l 595 -45 q 584 -79 584 -67 l 584 -125 q 538 -159 570 -159 q 448 -249 452 -222 l 482 -249 q 528 -238 507 -249 l 550 -249 l 584 -249 q 595 -374 595 -349 q 505 -396 554 -396 l 391 -396 q 278 -294 278 -392 q 244 -227 244 -283 l 244 -170 q 437 -79 244 -159 l 437 -57 l 414 -68 q 403 -57 403 -68 q 391 -68 391 -57 q 222 22 222 -30 l 222 79 l 244 113 m 799 -68 l 799 -147 q 833 -272 799 -272 q 1003 -204 1003 -272 l 1003 -170 q 924 -23 1003 -23 l 901 -23 q 799 -68 814 -23 z "},"곬":{"ha":1272,"x_min":41,"x_max":1218,"o":"m 675 1086 q 833 985 833 1054 q 856 883 856 985 q 777 543 856 641 l 753 555 l 731 543 q 697 634 697 591 q 720 905 720 831 l 675 939 l 663 939 q 425 895 591 939 q 347 1007 378 895 q 675 1086 372 1086 m 437 860 l 494 860 q 550 543 550 860 q 572 498 564 543 q 946 555 846 555 q 1071 475 1071 540 q 980 385 1063 385 l 935 385 l 935 408 q 278 272 901 408 q 142 260 199 260 q 41 340 66 260 l 41 396 q 437 475 343 422 q 403 815 403 637 l 403 826 q 437 860 403 842 m 788 249 q 946 136 946 249 q 924 34 946 119 q 1206 -227 1206 -200 l 1218 -272 q 1139 -306 1177 -306 q 878 -125 1101 -306 l 844 -362 l 856 -362 q 788 -408 844 -408 l 765 -408 q 697 -260 739 -408 q 471 -351 649 -297 l 448 -340 l 380 -340 q 369 -351 369 -340 q 244 -237 301 -351 q 369 -102 244 -205 l 425 -22 l 425 -12 q 188 -34 321 -34 q 176 -45 188 -45 l 120 22 l 120 91 q 494 136 261 136 q 618 34 618 105 l 618 0 q 505 -181 618 -52 l 516 -181 q 641 -136 550 -181 l 686 -147 q 765 68 741 -147 q 788 102 777 68 q 743 193 758 102 l 743 215 q 788 249 743 227 z "},"곯":{"ha":1408,"x_min":41,"x_max":1354,"o":"m 924 1154 q 1037 1019 1037 1154 l 1037 962 q 946 623 1010 623 q 867 713 881 623 q 890 804 890 755 q 878 815 890 815 q 901 985 890 826 l 878 996 l 562 939 q 494 1041 528 939 q 709 1120 494 1107 q 924 1154 709 1136 m 641 905 q 743 804 743 905 q 697 532 697 608 l 709 532 q 901 566 787 532 l 924 555 q 1150 577 1037 577 l 1195 577 q 1286 498 1277 552 q 1229 419 1263 427 l 1037 419 q 1093 351 1093 383 l 1105 351 l 1093 328 q 1127 181 1116 283 l 1263 193 q 1354 125 1309 193 q 1161 34 1354 71 l 1161 22 q 1331 -159 1308 22 q 1139 -385 1331 -267 q 1093 -396 1113 -385 q 912 -249 973 -396 l 912 -193 q 969 -56 912 -119 q 935 -22 953 -56 q 731 -79 731 -65 q 618 -170 641 -170 l 618 -193 l 788 -159 q 833 -227 833 -170 q 606 -351 711 -351 l 550 -351 q 380 -193 380 -334 l 380 -181 q 471 -125 380 -157 q 562 -34 471 -108 l 572 -12 q 562 0 562 -12 l 538 -12 l 516 -12 q 505 0 505 -12 q 471 -22 471 -12 q 460 -12 460 -22 q 301 -34 317 -34 q 233 56 233 -11 l 233 91 q 425 136 233 125 q 437 125 437 136 l 606 147 q 765 102 621 147 q 1014 170 1014 136 l 1014 181 q 958 362 984 226 q 969 408 969 382 q 132 283 288 283 l 97 283 q 41 385 41 312 q 323 453 41 436 q 572 498 323 464 l 572 623 q 562 634 572 634 q 641 905 604 905 m 1048 -113 l 1048 -215 q 1082 -237 1048 -237 q 1195 -113 1195 -166 l 1173 -102 l 1161 -102 l 1048 -113 z "},"곰":{"ha":1193,"x_min":41,"x_max":1139,"o":"m 788 1064 q 901 883 901 1033 l 901 838 q 833 611 901 662 l 810 611 q 743 679 794 611 q 753 690 743 690 l 743 747 l 743 770 q 753 826 743 808 q 720 939 743 939 q 595 917 705 939 l 595 928 q 391 895 554 905 q 313 962 341 895 l 323 1019 l 357 1019 l 425 1030 l 448 1019 q 788 1064 631 1064 m 538 905 l 572 905 q 686 804 686 905 l 686 770 q 675 758 686 758 q 686 747 675 747 l 675 690 l 675 464 l 844 464 l 867 475 l 867 464 l 890 475 l 991 475 q 1139 430 1040 475 l 1139 419 q 912 317 1139 317 q 256 272 717 317 l 165 272 q 41 351 96 272 l 52 408 l 86 408 q 538 453 289 408 l 538 464 q 528 475 538 475 l 538 498 q 516 555 516 535 l 528 555 l 516 577 q 528 611 516 611 l 516 668 l 516 690 l 528 747 l 516 747 l 528 770 l 528 849 l 538 905 m 697 227 l 709 227 q 1003 125 1003 180 l 1014 125 l 1003 102 l 1003 68 q 856 -237 987 -196 q 686 -272 714 -260 q 414 -56 451 -272 q 369 170 380 170 q 437 215 380 215 l 448 215 q 516 193 479 215 q 697 227 682 203 m 538 91 q 595 -125 568 -125 l 629 -125 q 810 -56 810 -125 q 867 56 867 3 l 856 56 q 867 91 867 79 q 856 125 856 113 q 538 91 598 111 z "},"곱":{"ha":1159,"x_min":41,"x_max":1105,"o":"m 697 1143 q 799 1041 753 1143 q 675 634 747 634 l 641 634 q 606 668 625 634 q 618 713 606 693 q 606 747 606 735 l 618 770 l 606 792 q 652 1007 629 826 q 347 895 447 954 q 244 849 347 860 q 165 917 194 849 q 505 1098 165 982 q 697 1143 593 1143 m 425 815 q 494 713 494 781 l 494 532 q 1025 589 892 589 q 1105 509 1105 589 q 753 441 1105 467 q 414 374 753 427 q 482 283 482 334 q 516 79 482 227 q 777 170 777 130 l 777 249 q 822 351 777 336 q 935 193 901 351 q 969 147 952 193 l 901 34 q 652 -260 817 -260 q 357 306 357 -260 l 369 328 q 357 340 357 328 q 403 351 363 340 l 403 362 l 391 362 q 176 340 255 340 q 41 385 41 340 l 41 453 q 369 498 199 464 q 347 758 347 556 q 425 815 362 815 m 572 -90 l 629 -125 q 720 0 720 -57 q 572 -90 572 -34 z "},"곳":{"ha":1159,"x_min":41,"x_max":1105,"o":"m 777 1098 q 901 996 833 1097 l 901 895 q 822 600 901 743 l 788 577 l 788 589 l 765 577 q 720 623 747 577 q 753 895 720 656 l 753 973 l 731 973 l 709 962 l 709 973 q 460 905 579 928 q 357 985 357 917 q 777 1098 357 1054 m 505 826 l 572 826 l 618 781 l 606 645 l 606 543 l 595 487 q 606 475 606 487 q 924 521 859 521 q 1082 453 1036 521 q 1037 385 1075 427 l 958 408 q 188 249 404 283 l 142 249 q 41 317 41 249 q 52 328 52 317 l 41 328 q 52 362 52 350 q 471 441 199 362 l 471 475 q 460 611 471 553 q 471 747 471 670 l 471 792 q 505 826 471 808 m 709 328 l 720 328 q 765 249 765 310 q 743 147 743 156 q 1105 -170 1105 -112 l 1105 -181 q 1071 -227 1088 -227 l 1048 -227 q 777 -34 965 -227 l 675 34 l 663 34 q 572 -306 606 -102 q 505 -328 536 -328 q 448 -227 471 -328 l 448 -193 q 663 317 448 22 q 709 328 683 328 z "},"공":{"ha":1159,"x_min":41,"x_max":1105,"o":"m 753 1041 q 901 883 901 1041 q 788 543 871 552 q 765 532 765 543 q 720 566 720 549 l 720 589 q 753 905 720 637 l 697 905 q 335 883 363 883 l 323 883 q 256 917 265 883 l 256 996 q 347 1019 347 1004 q 357 1007 357 1019 q 753 1041 560 1041 m 528 792 q 595 736 595 753 l 595 509 l 606 430 q 912 464 741 464 l 1014 464 q 1105 408 1076 464 l 1105 362 q 1082 340 1105 340 l 980 340 q 562 249 654 340 l 538 249 q 528 260 538 260 q 516 249 528 249 q 494 272 516 272 q 142 227 287 238 q 41 317 41 251 l 41 328 q 75 362 41 345 l 142 362 q 471 408 265 362 q 448 611 448 465 l 448 713 q 528 792 448 792 m 788 91 q 799 79 788 79 l 799 91 q 958 -56 958 32 l 958 -102 q 686 -294 958 -238 q 448 -102 448 -271 l 391 -79 l 391 0 q 538 68 418 0 l 572 68 q 584 56 584 68 q 788 91 699 91 m 584 -79 q 663 -170 606 -170 q 810 -56 782 -170 q 753 -22 810 -31 q 584 -79 633 -45 z "},"곶":{"ha":1193,"x_min":41,"x_max":1139,"o":"m 788 1007 l 833 1007 q 935 894 916 1007 l 924 871 l 924 781 q 844 509 895 524 q 822 498 844 498 q 753 589 753 498 l 765 611 q 753 623 765 623 q 765 883 765 670 q 313 758 433 804 q 233 792 301 758 l 233 860 q 606 985 233 883 q 788 1007 623 985 m 538 724 q 618 667 612 694 l 618 464 q 641 373 618 415 q 991 418 860 408 q 1071 351 1042 418 q 856 283 1071 283 q 120 158 663 227 q 41 203 41 174 l 41 249 q 414 328 41 290 q 494 351 414 343 q 460 509 471 509 l 471 532 l 471 600 q 528 724 471 724 l 538 724 m 856 158 q 935 90 924 133 q 901 -57 901 -7 q 1139 -227 1139 -178 q 1059 -283 1116 -283 q 833 -170 1033 -283 l 822 -170 l 697 -374 l 663 -374 q 595 -340 604 -374 l 595 -306 q 697 -68 595 -237 l 697 -23 l 686 -23 q 425 -113 425 -102 q 369 -91 389 -91 l 369 -102 q 323 -68 323 -85 l 323 -23 q 856 158 323 28 z "},"과":{"ha":1329,"x_min":41,"x_max":1274,"o":"m 799 871 l 867 871 q 935 566 935 871 l 935 555 q 946 543 935 543 l 935 520 q 958 351 946 362 q 946 339 946 351 l 958 339 q 1218 385 1161 385 l 1252 385 q 1274 362 1274 381 l 1274 328 q 969 192 1274 268 q 991 -204 991 -129 q 958 -249 975 -249 l 935 -249 q 844 -34 844 -249 q 765 826 822 82 q 799 871 782 871 m 494 781 q 652 566 628 781 q 538 260 652 260 l 528 260 q 494 339 494 302 l 494 362 l 505 475 q 494 486 494 475 l 505 486 l 494 509 l 494 623 l 482 645 q 176 566 297 623 q 86 656 86 583 l 86 667 q 494 781 86 697 m 301 464 q 313 452 301 452 q 323 464 313 464 q 391 373 363 425 l 380 328 l 425 68 q 641 102 597 102 l 720 102 q 731 68 720 90 q 403 -68 731 3 q 132 -159 244 -136 q 41 -57 41 -138 q 301 34 72 -23 q 233 339 267 115 q 301 464 233 464 z "},"곽":{"ha":1329,"x_min":41,"x_max":1274,"o":"m 901 1064 l 924 1064 q 1014 973 1014 1053 q 991 645 1014 930 q 1161 667 1155 667 q 1274 600 1274 659 q 1025 509 1274 546 q 969 464 969 480 l 969 271 q 901 203 969 203 q 833 271 863 212 l 833 441 q 822 543 833 482 q 878 1053 840 606 l 901 1064 m 606 985 l 618 985 q 743 871 743 962 q 652 589 743 768 q 572 475 652 558 q 675 498 625 498 l 675 486 l 697 498 l 788 498 q 810 475 810 494 q 799 464 799 475 l 810 464 q 686 385 810 404 l 278 237 q 132 181 169 181 q 41 237 70 181 l 41 271 q 290 396 41 302 l 256 566 l 256 633 q 278 656 259 656 l 347 656 q 414 475 414 605 q 437 441 430 441 q 528 464 509 464 l 494 520 q 584 814 494 614 l 584 848 l 572 848 q 210 781 448 848 q 132 838 138 810 l 132 905 q 606 985 463 985 m 991 158 l 1059 158 q 1116 102 1067 158 q 1014 -294 1116 21 q 969 -385 991 -385 l 958 -385 q 856 -306 856 -385 q 935 11 856 -254 l 924 11 q 562 -68 866 11 l 516 -68 q 437 11 437 -68 q 448 45 448 33 l 471 45 q 991 158 911 158 z "},"관":{"ha":1147,"x_min":41,"x_max":1093,"o":"m 493 1018 l 493 1007 l 515 1018 q 618 882 587 1018 l 618 826 q 538 486 618 541 q 527 464 527 486 l 505 464 q 459 532 482 464 q 493 826 481 774 q 459 894 478 894 l 471 871 l 471 860 l 391 871 q 222 735 241 787 q 154 724 171 735 q 86 747 108 747 l 86 814 q 448 1007 222 905 q 493 1018 454 1007 m 832 996 q 901 826 901 996 q 889 633 889 671 q 1013 667 895 633 q 1093 633 1093 656 q 911 464 1093 571 l 878 418 q 889 408 878 408 l 878 385 q 901 170 878 328 q 855 102 878 102 l 844 102 q 742 543 742 102 l 764 939 q 753 950 753 939 q 832 996 797 996 m 346 701 q 403 667 389 667 l 403 396 q 652 475 601 475 l 674 475 l 686 418 q 459 283 673 368 q 290 181 459 251 q 278 193 290 193 q 154 125 277 176 q 41 203 41 133 q 290 340 41 260 q 278 588 278 509 l 278 633 q 346 701 278 701 m 380 91 l 425 91 q 776 -45 536 -45 q 957 23 876 -45 q 1036 -22 1018 23 l 1036 -79 q 810 -192 976 -192 l 720 -192 q 335 34 458 -192 q 380 91 357 85 z "},"괄":{"ha":1192,"x_min":41,"x_max":1138,"o":"m 798 973 q 878 803 867 973 l 867 803 q 901 667 878 667 q 1047 724 1010 724 l 1070 724 q 1138 690 1138 717 q 901 498 1138 614 l 889 475 l 889 385 q 901 227 889 323 q 867 170 886 170 q 742 645 742 170 q 730 928 730 813 q 798 973 742 973 m 481 962 l 515 962 q 663 837 604 962 l 663 724 q 561 418 663 646 l 584 418 l 606 430 l 606 418 l 629 430 q 663 385 646 430 q 391 227 663 318 q 142 147 391 201 l 131 147 q 41 237 41 175 l 41 260 q 256 328 67 298 l 244 441 l 244 498 q 301 656 244 656 q 391 588 361 644 l 380 532 l 380 385 l 403 385 q 493 408 413 385 l 459 452 l 459 498 q 527 781 527 749 l 527 826 l 481 826 q 165 667 373 826 q 75 747 75 667 l 75 769 q 481 962 257 962 m 742 193 q 935 45 935 156 q 652 -237 935 -81 l 652 -271 l 730 -271 q 923 -181 812 -271 l 935 -181 l 991 -192 l 991 -215 q 776 -418 991 -383 l 696 -418 q 425 -249 552 -418 q 493 -170 431 -170 l 493 -181 q 764 12 622 -127 l 776 12 l 776 45 q 527 12 749 45 q 437 113 454 12 l 437 125 q 742 193 589 193 z "},"괆":{"ha":1260,"x_min":41,"x_max":1206,"o":"m 471 769 q 606 622 606 769 l 606 588 q 550 305 584 305 l 515 305 q 448 374 502 305 l 459 430 l 459 645 l 403 656 q 357 645 383 645 l 369 622 l 346 622 l 323 633 l 312 633 l 312 622 l 335 622 l 335 611 q 131 554 262 611 l 41 622 l 41 633 q 471 769 41 690 m 776 758 l 798 758 q 867 713 852 713 q 911 452 867 660 q 1081 475 1008 475 q 1138 441 1138 467 l 1138 396 q 911 305 1117 396 l 923 283 l 923 170 l 911 91 l 923 91 l 889 34 l 889 12 q 1036 34 1002 34 q 1206 -124 1206 34 l 1194 -147 q 1206 -158 1194 -158 q 1093 -385 1206 -385 q 945 -418 1059 -418 q 844 -385 886 -418 l 821 -385 q 459 -532 600 -532 q 301 -385 301 -532 q 437 -192 355 -192 l 471 -158 l 459 -158 q 335 -181 351 -170 q 290 -170 315 -170 q 278 -181 278 -170 q 176 -102 201 -161 q 572 -22 176 -53 l 595 -22 q 708 -56 635 -22 l 708 -68 q 448 -351 708 -192 l 448 -385 l 459 -385 q 764 -294 547 -385 l 787 -294 l 787 -283 q 730 -79 764 -79 l 730 -56 q 787 34 730 25 l 787 45 q 764 91 764 73 q 776 125 776 113 q 764 136 764 125 l 776 136 q 764 147 776 147 l 776 193 l 764 351 l 776 351 q 708 735 757 389 q 776 758 745 758 m 278 498 l 312 498 q 391 340 369 498 l 380 340 l 391 317 l 391 249 l 595 294 q 606 283 606 294 l 629 294 l 652 294 q 686 260 668 294 l 686 227 q 335 79 686 186 l 165 45 q 63 136 84 45 l 131 181 l 142 181 q 154 170 154 181 q 267 203 233 203 q 244 475 244 352 l 278 498 m 901 -79 q 945 -271 927 -271 l 979 -271 q 1081 -113 1081 -271 q 1093 -68 1093 -93 l 1036 -56 l 1025 -56 q 901 -79 945 -56 z "},"괌":{"ha":1226,"x_min":41,"x_max":1172,"o":"m 459 996 q 629 724 629 996 l 629 690 q 584 498 618 498 l 527 498 q 493 588 493 505 l 493 781 q 448 871 464 781 l 437 871 l 109 825 l 97 825 q 41 859 60 859 l 41 916 q 165 972 41 941 l 165 962 q 459 996 201 984 m 798 984 q 911 690 911 984 l 923 690 q 1149 713 955 713 q 1172 679 1160 679 q 957 566 1172 603 q 923 509 923 522 l 935 486 l 923 464 q 945 362 935 362 q 923 317 937 317 q 935 283 935 295 l 923 260 q 979 192 935 192 l 991 113 l 991 79 q 810 -227 991 -186 q 606 -249 697 -249 l 471 -249 q 312 -12 312 -149 q 357 45 334 40 l 380 45 q 471 -57 439 26 q 550 -102 489 -102 l 606 -102 q 855 34 855 -102 q 889 124 889 98 l 878 124 l 493 56 q 380 158 380 75 l 437 158 q 527 181 486 158 l 527 170 l 821 215 q 742 837 776 441 l 753 859 l 742 916 q 798 984 756 960 m 267 667 l 278 667 q 380 486 380 667 q 391 396 391 424 l 380 396 q 391 351 391 376 l 437 351 q 606 373 600 373 q 629 328 615 328 q 346 170 629 249 q 97 226 153 178 l 97 283 q 256 328 97 320 q 233 418 256 338 q 244 452 244 440 l 233 452 q 244 464 233 464 q 210 588 233 538 q 267 667 233 659 z "},"괍":{"ha":1305,"x_min":41,"x_max":1251,"o":"m 889 916 l 923 916 q 1013 588 998 916 q 1194 610 1142 610 q 1251 566 1246 589 l 1251 532 q 1025 430 1245 500 q 1059 181 1040 181 q 991 113 1059 113 l 957 113 q 855 893 881 172 l 889 916 m 481 837 q 696 656 696 779 l 696 576 q 572 362 621 362 l 527 362 q 505 385 505 362 q 515 396 515 385 q 493 418 493 396 l 493 430 q 561 667 561 636 l 481 690 l 425 690 q 244 667 260 667 q 165 781 165 703 q 346 825 214 825 l 471 825 q 481 837 481 825 m 267 600 q 369 385 369 600 q 425 226 398 226 q 776 283 459 226 q 798 237 798 255 q 481 90 798 158 q 290 45 290 90 l 165 45 q 41 136 41 65 q 86 192 62 187 l 97 192 q 154 181 135 192 q 278 215 278 192 q 222 554 222 514 q 267 600 233 600 m 911 -34 q 1025 -170 1025 -73 q 901 -577 1025 -489 q 798 -667 897 -599 l 787 -667 q 505 -408 627 -667 l 459 -125 q 550 -68 459 -68 q 618 -294 604 -68 q 901 -215 901 -266 l 901 -181 q 855 -91 901 -149 q 844 -57 844 -68 l 911 -34 m 652 -396 l 652 -408 q 764 -543 652 -490 q 867 -408 867 -432 l 867 -362 q 652 -396 720 -396 z "},"괏":{"ha":1113,"x_min":41,"x_max":1059,"o":"m 515 916 q 674 781 674 894 l 674 701 q 561 452 611 452 l 538 452 q 493 509 515 457 q 515 543 505 543 q 505 576 505 565 q 527 791 527 619 l 505 803 q 222 724 252 724 l 176 724 q 131 791 131 747 q 515 916 131 833 m 787 882 q 878 667 863 882 l 878 622 q 901 600 881 600 l 1013 600 q 1059 554 1031 600 l 1059 543 q 889 452 1059 513 l 889 249 q 810 90 889 90 q 753 237 753 142 q 720 837 753 638 q 787 882 730 882 m 301 633 l 323 633 q 403 498 403 633 l 425 328 q 618 362 516 362 l 640 362 q 674 328 656 362 l 674 283 q 109 124 451 192 q 41 181 62 140 q 222 271 41 271 q 301 317 301 302 q 267 566 267 458 q 301 633 278 633 m 550 136 q 629 68 629 136 q 606 -34 629 51 q 1002 -237 843 -172 l 1036 -283 l 1036 -317 l 991 -362 q 572 -159 907 -362 l 550 -159 q 459 -396 494 -388 l 425 -396 q 380 -317 403 -396 q 527 136 380 -161 l 550 136 z "},"광":{"ha":1237,"x_min":41,"x_max":1183,"o":"m 505 939 q 720 713 720 939 l 696 610 l 708 610 l 618 339 l 798 339 l 855 351 l 844 464 l 844 622 q 878 916 844 916 q 923 927 897 927 q 979 837 979 899 l 979 610 q 1013 588 979 588 q 1104 600 1023 588 q 1183 520 1183 585 q 991 464 1160 498 q 979 430 991 452 q 1002 181 979 387 l 957 136 l 945 136 q 878 249 878 168 q 131 124 254 124 l 120 124 q 41 215 41 124 q 63 249 52 249 q 290 283 138 249 q 267 543 267 457 q 323 656 267 622 q 414 554 414 656 l 403 554 q 414 543 403 543 l 403 486 l 403 475 q 414 305 403 418 l 425 305 q 538 328 473 305 q 515 396 515 365 q 572 735 515 437 l 572 781 q 538 803 572 803 q 278 758 490 803 q 188 837 188 769 q 505 939 188 897 m 787 90 l 867 90 q 1036 -91 985 90 q 742 -374 1036 -251 l 674 -385 q 481 -227 541 -385 l 481 -215 q 572 -12 481 -66 q 787 90 682 90 m 618 -136 l 618 -147 q 629 -159 618 -159 l 618 -181 q 686 -249 618 -249 q 901 -102 778 -249 l 901 -79 q 844 -22 901 -69 q 652 -136 652 -59 l 618 -136 z "},"괘":{"ha":1305,"x_min":41,"x_max":1251,"o":"m 764 848 l 810 848 q 901 475 870 848 q 1047 610 1005 530 q 1036 791 1036 726 l 1070 814 l 1126 814 q 1240 -113 1194 814 q 1251 -203 1251 -113 l 1206 -237 l 1194 -237 q 1093 -12 1093 -237 q 1059 339 1067 331 l 1070 362 q 1059 407 1059 382 l 1047 407 q 889 294 903 294 l 901 158 l 901 -12 q 855 -91 901 -72 q 776 68 776 -91 l 730 825 l 764 848 m 527 825 q 629 769 589 825 q 674 622 660 769 q 572 305 674 443 l 550 305 q 493 373 530 305 q 527 588 527 545 l 527 679 l 515 679 l 75 622 l 75 633 q 41 713 41 675 q 527 825 41 772 m 256 498 l 312 498 q 414 113 365 498 l 403 90 l 425 90 q 640 113 465 90 l 663 79 l 663 56 q 154 -102 663 -20 l 109 -102 q 41 -22 41 -84 l 41 0 q 267 56 41 32 l 290 113 q 222 475 222 372 l 256 498 z "},"괜":{"ha":1294,"x_min":41,"x_max":1240,"o":"m 1081 1029 q 1160 950 1115 1029 q 1149 781 1149 808 q 1160 362 1149 724 l 1172 339 q 1160 328 1172 328 l 1172 271 l 1172 226 q 1104 158 1138 158 q 1013 509 1013 158 l 1013 566 q 1002 576 1013 576 l 1013 600 q 1002 610 1013 610 l 1013 633 l 1013 645 q 855 532 901 602 l 844 532 q 855 339 855 399 l 855 305 q 867 294 855 294 q 798 237 867 260 q 686 803 686 270 q 696 950 696 858 l 686 950 q 753 1018 686 1018 l 776 1018 q 832 905 832 992 l 832 859 q 821 848 832 848 l 832 825 l 832 713 q 1013 837 997 799 l 1013 882 q 1059 1029 1013 1029 l 1081 1029 m 425 1018 q 606 848 606 1018 q 618 758 606 769 q 572 475 586 642 q 561 464 561 475 q 663 441 663 464 l 663 407 q 369 271 650 355 q 323 226 369 226 q 256 237 315 226 q 142 215 185 215 q 63 328 71 215 q 278 396 92 353 q 256 610 267 600 l 267 633 q 256 713 256 678 q 323 758 267 758 q 403 543 403 758 l 391 543 l 403 520 l 403 430 q 527 452 507 452 q 471 554 471 511 q 481 566 481 554 l 459 566 q 471 871 459 595 l 403 871 q 109 781 367 871 q 41 871 41 804 q 425 1018 41 940 m 505 158 l 527 158 q 606 -34 584 158 q 742 -193 677 -193 q 1138 -45 842 -178 l 1194 -45 q 1240 -125 1240 -64 q 1025 -249 1240 -189 q 753 -339 918 -317 q 471 22 538 -339 l 459 79 q 505 158 486 158 z "},"괞":{"ha":1203,"x_min":41,"x_max":1149,"o":"m 686 1007 l 708 1007 q 798 814 798 1007 l 798 735 q 901 871 901 780 q 889 905 889 893 q 923 973 901 973 l 945 973 q 1025 894 1025 973 l 1025 181 l 1013 45 q 1093 -22 1093 45 l 1070 -22 l 1081 -45 q 1059 -68 1059 -49 l 1059 -79 q 1149 -226 1149 -79 q 1013 -430 1149 -334 q 979 -441 1002 -430 q 810 -305 873 -441 q 550 -452 674 -452 q 323 -305 459 -452 q 233 -45 290 -305 l 267 -22 l 301 -22 q 391 -158 391 -30 q 515 -294 481 -287 l 538 -294 q 730 -170 616 -294 l 708 -170 q 674 -181 696 -170 q 550 -102 583 -181 l 550 -68 q 720 -11 550 -37 q 753 0 720 0 l 753 12 q 572 136 572 77 l 572 170 q 606 203 572 186 l 640 203 q 787 147 686 203 q 867 91 867 129 l 901 91 q 878 215 892 115 q 889 227 878 227 l 878 305 l 878 498 q 889 509 878 509 l 878 532 l 889 554 q 878 611 878 573 q 798 486 798 543 q 810 283 798 418 q 764 181 791 181 q 663 452 663 181 q 652 735 652 565 l 652 939 q 686 1007 659 1007 m 448 973 q 561 758 561 973 q 493 408 561 574 l 448 408 q 391 520 411 408 l 425 781 q 414 826 414 800 l 403 826 q 131 690 155 690 q 41 781 41 704 q 448 973 302 943 m 256 645 q 312 408 312 618 l 312 362 q 346 340 312 340 q 527 396 478 396 q 572 362 572 379 l 572 351 q 165 125 425 184 q 75 227 75 125 q 188 271 105 252 l 165 611 q 256 645 213 645 m 935 -226 l 935 -260 l 945 -283 q 1002 -192 1002 -261 l 1002 -181 l 991 -181 q 935 -226 935 -210 z "},"괠":{"ha":1203,"x_min":41,"x_max":1149,"o":"m 787 1018 q 878 894 878 1018 q 867 781 867 834 l 867 758 q 1002 826 913 758 q 1081 984 1017 984 q 1149 928 1128 968 l 1149 894 q 1093 237 1093 461 l 1059 181 q 957 340 957 216 l 957 374 q 968 622 957 452 l 957 622 q 867 554 889 554 l 867 385 l 878 317 q 844 249 859 249 q 720 633 720 258 q 730 667 720 646 q 720 679 730 679 l 730 735 l 730 848 q 742 894 730 874 q 730 905 742 905 q 787 1018 739 1018 m 505 973 q 652 781 652 933 l 652 758 q 572 418 652 631 l 572 408 l 629 418 q 640 408 629 408 l 640 418 q 696 374 692 397 q 380 203 602 260 q 109 159 256 159 q 41 249 41 182 l 41 271 q 256 317 41 290 q 210 633 210 569 l 222 679 l 267 679 q 369 452 357 679 q 380 396 369 396 l 369 374 l 369 362 l 527 396 l 527 408 q 459 464 486 408 q 515 826 515 772 q 505 837 505 826 q 210 758 338 806 q 131 826 159 777 l 131 871 q 459 973 222 937 l 505 973 m 787 125 l 810 113 l 832 125 q 979 0 979 98 q 867 -181 979 -83 q 674 -305 726 -305 l 674 -328 q 742 -339 734 -339 q 957 -192 852 -311 l 1025 -192 q 1047 -271 1025 -214 q 901 -452 1008 -389 q 753 -498 818 -486 q 493 -294 583 -498 q 652 -181 493 -242 q 810 -22 810 -40 q 798 -11 798 -22 q 550 -56 559 -56 l 505 -56 q 391 12 422 -56 q 527 91 391 91 q 787 125 527 109 z "},"괩":{"ha":1181,"x_min":41,"x_max":1126,"o":"m 403 871 q 629 667 629 871 l 640 667 q 538 374 640 530 l 515 362 l 505 362 q 437 464 437 391 q 493 679 493 601 l 493 713 l 437 724 q 142 679 323 724 q 75 781 75 727 l 75 803 q 403 871 75 848 m 730 837 l 798 837 q 867 588 851 837 q 991 690 991 623 l 1025 803 l 1081 803 q 1126 724 1111 803 q 1081 102 1081 315 l 957 102 q 945 215 957 116 q 957 452 957 386 l 945 452 q 878 396 878 413 q 901 147 878 352 l 878 102 q 889 91 889 102 l 821 91 q 708 826 735 91 l 730 837 m 278 566 l 335 566 q 403 271 386 566 q 414 215 414 271 l 437 227 l 437 215 q 515 249 481 227 l 538 237 q 696 271 538 271 l 720 227 q 437 57 720 151 q 97 0 437 37 q 41 34 97 26 l 41 125 q 109 159 41 147 l 109 147 l 131 159 l 210 159 q 301 181 221 159 q 244 498 244 358 q 278 566 252 566 m 901 -45 l 923 -45 q 1002 -192 964 -45 l 1002 -215 q 855 -588 1002 -531 l 855 -576 q 821 -588 833 -588 q 505 -124 596 -588 q 538 -79 522 -79 l 561 -79 q 663 -283 603 -98 q 720 -260 700 -260 l 776 -271 q 889 -249 872 -249 l 889 -203 q 867 -90 889 -90 q 901 -45 884 -45 m 798 -385 l 730 -385 l 708 -373 q 787 -464 734 -435 l 798 -464 q 867 -362 867 -416 q 798 -385 829 -385 z "},"괬":{"ha":1237,"x_min":41,"x_max":1183,"o":"m 493 893 q 629 758 602 848 q 493 464 629 488 q 448 486 465 486 l 448 566 q 481 781 481 587 q 109 735 360 781 q 41 814 41 753 l 41 825 q 481 893 41 857 l 493 893 m 708 848 l 730 848 q 832 701 832 848 l 832 622 l 844 622 q 935 724 935 650 q 923 758 923 746 q 957 814 937 814 q 1070 633 1063 814 q 1059 102 1059 256 q 991 34 1059 52 q 923 192 923 34 q 911 362 911 241 q 923 452 911 390 l 911 475 q 923 509 923 497 l 911 509 q 832 441 832 455 l 832 215 q 798 181 832 199 l 753 181 q 696 701 696 241 q 686 837 686 701 l 708 848 m 256 679 l 301 679 q 369 317 369 679 l 380 317 q 550 339 406 317 q 584 294 550 322 l 584 271 q 210 147 439 181 q 199 136 199 147 l 86 170 l 86 249 q 244 283 180 260 l 244 305 q 222 520 222 497 q 256 679 222 679 m 471 0 q 550 -68 525 0 l 550 -79 l 538 -193 q 776 -294 688 -252 q 867 -79 812 -161 q 911 0 889 0 l 923 0 q 1013 -113 1013 -8 q 1002 -193 1002 -119 q 1183 -328 1145 -271 l 1183 -374 q 1160 -396 1183 -396 l 1093 -396 l 923 -305 q 787 -464 867 -464 q 720 -385 768 -464 l 515 -328 l 505 -328 q 403 -588 445 -588 l 357 -588 q 312 -509 339 -588 q 391 -193 335 -386 l 380 -193 q 471 0 421 0 z "},"괭":{"ha":1203,"x_min":41,"x_max":1149,"o":"m 776 939 q 889 667 889 939 q 1036 848 1016 667 l 1059 859 q 1149 781 1149 851 q 1138 362 1138 454 q 1126 328 1138 350 q 1138 283 1138 308 l 1138 147 l 1149 90 q 1093 68 1121 68 q 1138 -34 1093 16 q 855 -328 1138 -237 l 855 -317 l 832 -328 l 810 -328 q 584 -34 662 -328 q 945 113 753 113 l 1013 113 l 1002 136 l 1002 158 q 1013 170 1002 170 q 991 317 991 220 l 991 554 l 979 554 q 901 509 923 509 l 901 441 q 911 430 901 430 q 901 418 911 418 l 911 283 q 878 215 911 224 l 832 215 q 730 769 777 215 l 742 769 l 730 791 l 730 859 q 776 939 730 907 m 481 893 q 629 781 587 893 l 640 713 l 640 622 q 527 351 601 351 q 459 407 510 351 q 515 690 493 628 q 471 769 500 769 q 131 667 353 747 q 63 747 63 667 q 199 837 63 818 q 481 893 371 893 m 267 600 l 301 600 q 391 520 355 600 l 380 498 q 403 351 380 469 q 391 294 391 332 l 403 294 q 493 328 429 294 l 493 305 q 606 328 559 328 q 663 260 663 284 q 301 113 637 226 l 301 124 q 188 90 243 90 l 86 90 q 41 181 56 90 l 41 192 q 278 249 41 224 l 278 260 q 244 498 244 477 l 256 498 l 244 520 l 267 600 m 753 -79 l 753 -102 q 798 -193 767 -186 l 832 -193 q 1002 -34 1002 -135 l 1002 -22 l 957 -22 q 753 -79 842 -22 z "},"괴":{"ha":1067,"x_min":41,"x_max":1013,"o":"m 855 837 l 901 837 q 1002 215 1002 775 l 1002 -113 l 1013 -136 l 1002 -136 l 1013 -159 l 1013 -227 q 979 -260 1013 -243 l 957 -249 l 935 -260 q 855 56 855 -260 l 855 215 q 821 791 855 469 q 855 837 838 837 m 584 724 l 595 724 q 686 588 652 693 q 674 576 686 576 l 686 532 q 550 192 686 366 q 505 181 510 181 q 471 215 505 215 l 471 260 q 538 554 538 507 l 538 588 q 142 532 243 532 q 120 600 120 568 q 267 679 120 679 q 584 724 444 724 m 335 464 q 425 203 425 464 q 437 90 425 150 q 425 56 425 68 q 696 102 631 79 q 753 56 748 80 q 640 -34 753 -14 q 86 -170 222 -170 l 75 -170 q 41 -147 75 -147 l 41 -57 q 301 34 301 0 l 312 90 l 301 158 l 312 158 q 278 362 294 203 q 335 464 296 464 z "},"괵":{"ha":1147,"x_min":41,"x_max":1093,"o":"m 957 1018 q 1070 430 1053 1018 l 1070 328 q 991 215 1070 215 q 901 939 915 336 l 889 939 q 957 1018 901 1018 m 595 1006 l 595 996 q 629 1006 617 1006 q 764 803 764 978 q 686 498 764 650 q 640 486 640 498 q 584 554 606 486 q 618 859 618 799 l 618 871 l 606 871 l 290 814 q 222 893 222 814 l 222 939 q 595 1006 306 972 m 414 747 q 515 633 500 747 l 515 385 l 527 362 q 515 351 515 362 l 527 351 q 742 407 555 351 q 753 396 742 396 q 776 418 757 418 q 855 351 855 395 q 357 136 855 294 q 131 102 245 102 l 120 102 q 41 181 63 102 q 312 271 41 243 q 414 305 312 285 q 369 656 369 465 q 414 747 380 747 m 1013 192 q 1093 90 1093 159 l 1093 68 q 968 -339 1093 -55 l 923 -339 q 855 -237 855 -339 l 855 -215 l 945 45 l 935 45 q 753 -12 787 19 l 753 0 q 663 -22 712 -22 l 572 -22 q 538 45 538 -12 l 538 79 q 945 181 538 106 q 1013 192 962 192 z "},"괸":{"ha":1057,"x_min":41,"x_max":1002,"o":"m 606 950 q 708 769 674 950 q 618 385 667 385 q 561 373 599 373 q 527 452 527 414 l 527 475 q 538 486 527 486 l 527 509 q 572 735 561 735 l 561 758 l 572 781 l 550 781 l 267 713 l 188 713 q 165 791 188 734 q 425 905 165 854 q 606 950 425 916 m 911 916 l 935 916 q 1002 781 1002 876 l 1002 351 q 957 102 1002 137 l 901 102 q 867 158 901 121 q 855 464 867 238 l 867 622 l 855 622 l 867 645 l 867 837 q 911 916 867 898 m 391 679 l 425 679 q 481 588 453 679 l 471 566 l 471 475 q 448 328 471 379 q 459 317 459 328 q 753 396 736 396 l 776 362 l 776 317 q 357 147 776 264 q 256 136 296 136 l 142 136 q 41 237 41 151 q 75 271 41 254 q 335 305 335 271 l 335 362 q 323 475 335 416 q 391 679 351 679 m 425 56 q 505 -91 459 30 q 696 -170 603 -170 q 945 -79 795 -170 l 957 -79 q 991 -170 991 -86 l 991 -193 q 776 -305 991 -236 l 720 -305 q 391 -136 497 -305 q 357 12 357 -81 l 357 22 q 425 56 369 56 z "},"괼":{"ha":1011,"x_min":41,"x_max":957,"o":"m 798 1165 l 867 1165 q 923 1052 895 1165 l 923 1006 q 911 996 923 996 l 923 972 l 923 950 l 911 882 l 923 859 q 901 701 923 832 l 911 701 q 867 373 886 433 q 798 351 847 373 q 764 407 776 407 q 776 418 764 418 q 764 566 776 425 q 776 1052 764 616 l 787 1052 l 776 1074 q 798 1165 798 1159 m 493 1097 q 640 939 606 1097 l 640 882 q 527 645 640 766 q 459 679 469 645 l 459 724 q 493 962 493 833 q 481 972 481 962 q 176 871 293 921 l 75 871 q 52 950 75 892 q 493 1097 86 1045 m 312 859 q 391 747 391 825 q 369 509 369 527 q 515 543 479 543 l 527 543 q 584 520 527 520 l 584 498 q 154 294 584 416 q 142 305 142 294 l 120 294 q 41 351 66 294 l 41 396 q 256 475 41 427 q 233 656 233 538 q 312 859 253 859 m 742 317 q 889 203 845 317 q 618 -68 889 79 l 618 -79 l 640 -79 q 889 22 722 -79 q 957 -91 949 22 q 663 -227 794 -227 q 425 -68 425 -227 l 425 -22 q 652 113 427 -3 q 696 147 652 141 l 696 158 l 674 158 q 369 113 635 158 l 335 113 q 290 203 305 113 q 505 283 290 283 q 696 305 505 302 l 730 305 q 742 317 742 305 z "},"굄":{"ha":1090,"x_min":41,"x_max":1036,"o":"m 505 1018 l 527 1018 q 618 837 618 986 l 618 826 q 515 520 595 649 l 481 520 q 414 611 414 520 q 459 860 459 806 l 459 894 q 154 781 182 781 q 63 837 92 781 l 63 882 q 505 1018 389 1018 m 821 996 q 923 769 923 996 q 901 622 901 650 q 911 611 901 611 l 901 554 l 901 193 q 979 57 979 136 q 923 -90 957 -24 q 1036 -170 1036 -90 q 844 -237 1036 -210 l 629 -328 q 606 -305 629 -305 l 572 -328 q 391 -203 450 -279 q 278 12 325 -140 l 290 12 l 278 34 l 323 79 q 437 34 344 79 q 764 181 629 181 q 753 452 764 314 q 764 973 764 735 q 821 996 802 996 m 244 724 l 278 724 q 357 645 357 724 l 357 554 q 391 385 357 476 q 380 374 380 385 q 391 362 391 374 q 696 441 488 408 q 720 418 701 418 q 493 260 720 337 q 188 136 298 173 l 165 147 q 131 136 143 136 q 41 193 46 166 l 41 227 q 278 317 41 252 l 278 362 q 222 566 233 362 l 222 633 q 210 645 222 645 q 244 724 226 724 m 481 -102 l 481 -113 q 561 -203 519 -178 q 821 57 692 -138 l 810 57 q 550 -79 550 -15 l 481 -102 z "},"굅":{"ha":1101,"x_min":41,"x_max":1047,"o":"m 867 939 l 889 939 q 991 713 991 939 q 1047 45 991 159 q 776 -373 997 -373 l 764 -373 q 606 -305 637 -373 q 471 -79 539 -290 l 471 68 l 459 91 l 481 91 l 471 113 q 481 125 481 113 l 459 125 q 120 34 329 79 l 52 113 l 41 136 q 301 227 100 178 l 301 237 q 267 452 267 413 l 267 577 q 301 645 274 645 q 403 622 329 645 q 414 486 403 604 l 403 441 l 414 418 q 403 408 414 408 l 425 271 q 764 340 713 340 l 776 340 l 798 328 q 720 215 798 294 l 696 227 q 527 136 527 150 l 550 147 q 618 -90 618 147 l 629 -90 q 889 -11 709 -45 q 923 79 903 7 q 855 340 883 151 q 867 351 855 351 l 855 408 l 855 566 q 832 916 855 711 l 867 939 m 459 860 q 674 713 644 860 q 686 667 686 713 q 595 317 686 443 q 493 396 541 317 l 538 633 l 538 724 l 459 724 q 448 735 448 724 q 165 690 380 713 q 86 758 114 709 l 86 792 q 459 860 86 833 m 696 -215 l 696 -237 l 708 -237 q 810 -203 728 -237 l 810 -181 l 798 -181 q 696 -215 703 -215 z "},"굇":{"ha":1305,"x_min":41,"x_max":1251,"o":"m 901 928 l 923 928 q 1025 871 1005 928 l 1025 769 q 1036 317 1025 602 l 1047 317 q 1036 305 1047 305 l 1047 193 l 1047 181 q 1025 23 1047 108 l 979 23 q 935 68 979 49 l 945 91 q 889 385 918 138 q 901 396 889 396 l 889 509 l 889 871 l 901 928 m 538 905 l 561 894 q 572 905 572 894 q 764 735 764 905 q 686 362 723 431 l 696 362 q 708 374 708 362 q 720 362 720 374 l 832 374 q 889 340 889 366 q 505 181 889 240 q 176 68 458 147 l 97 68 q 41 170 41 148 q 414 294 98 203 q 437 305 414 305 q 391 566 391 374 l 391 622 q 437 656 391 640 q 527 600 496 656 l 527 509 q 538 340 527 452 l 640 351 q 572 430 581 427 l 618 769 l 606 769 q 278 713 409 747 l 256 724 l 233 713 q 176 826 176 752 q 346 871 176 859 l 414 871 q 538 905 439 891 m 787 181 q 867 102 867 181 l 867 79 q 821 -45 841 48 q 1228 -237 895 -63 q 1251 -260 1251 -241 q 1206 -339 1236 -339 l 1183 -339 q 832 -181 1119 -339 q 787 -158 814 -181 l 753 -158 q 652 -407 665 -407 q 618 -418 629 -418 q 550 -328 558 -385 q 730 147 562 -159 q 787 181 758 181 z "},"굉":{"ha":1124,"x_min":41,"x_max":1070,"o":"m 493 916 q 686 701 686 916 l 686 656 q 629 362 686 563 l 595 362 q 515 464 545 378 l 538 464 l 527 520 l 550 758 l 527 769 l 437 769 q 222 747 245 747 q 154 825 201 747 l 154 871 q 493 916 204 893 m 957 916 q 1036 825 1036 893 l 1036 724 q 1047 667 1036 686 l 1036 600 l 1036 576 q 1070 271 1036 387 l 1059 271 l 1070 249 l 1070 136 q 1036 113 1070 113 q 889 825 889 113 q 957 916 889 916 m 301 622 l 323 622 q 414 566 378 622 l 403 543 q 414 498 403 517 q 403 486 414 486 q 437 271 418 335 q 652 317 636 298 q 686 305 673 305 q 753 328 705 305 l 776 317 q 810 328 798 328 q 844 305 810 305 q 515 147 844 180 q 131 68 242 68 l 120 68 q 41 170 73 92 q 301 237 71 203 q 267 576 267 420 q 301 622 284 622 m 855 102 l 889 102 q 1047 12 979 102 q 1070 -68 1070 12 l 1070 -91 q 935 -249 1004 -249 q 787 -283 900 -283 q 606 -125 691 -283 q 561 -45 561 -74 q 674 45 602 45 q 855 102 726 102 m 742 -79 q 776 -147 749 -147 q 923 -57 874 -121 l 935 -57 l 935 -22 q 901 -12 922 -22 q 742 -79 742 -45 z "},"교":{"ha":909,"x_min":41,"x_max":855,"o":"m 550 814 l 595 814 q 855 667 802 814 l 855 633 q 764 260 855 269 q 730 271 743 271 l 742 294 q 696 317 696 294 l 696 362 q 720 622 696 429 q 708 633 708 622 l 720 633 q 652 679 708 679 l 561 679 q 278 656 517 679 q 222 747 222 700 l 222 769 q 550 814 254 814 m 267 441 q 357 226 357 441 q 414 -12 414 15 l 414 -45 l 403 -68 l 437 -68 q 471 45 459 -68 q 459 79 471 57 q 471 317 471 227 l 471 385 q 505 418 471 401 l 515 418 q 606 328 606 418 l 606 158 q 595 -12 606 102 l 606 -12 l 595 -34 l 595 -68 q 821 -136 821 -81 q 764 -227 821 -227 q 527 -203 623 -203 q 176 -237 384 -203 q 41 -125 41 -212 q 357 -68 41 -102 q 210 373 210 56 q 199 385 199 373 q 267 441 206 441 z "},"굔":{"ha":1023,"x_min":41,"x_max":968,"o":"m 606 814 l 663 814 q 911 622 911 814 q 764 385 860 385 q 720 396 745 396 l 708 373 l 708 305 q 720 147 708 243 q 708 113 708 125 l 889 113 q 968 45 968 113 q 889 -12 952 -12 l 867 -12 q 459 -79 531 -12 q 515 -237 478 -79 q 674 -328 585 -328 l 686 -328 q 889 -249 873 -249 l 911 -249 q 945 -283 928 -249 l 945 -305 q 674 -464 945 -433 q 380 -271 489 -464 q 335 -79 335 -123 l 176 -79 q 41 12 41 -57 q 97 56 45 41 q 222 45 175 45 q 391 56 279 45 q 335 385 335 243 l 335 532 q 414 576 353 576 q 481 486 481 553 l 471 407 q 561 102 471 102 l 595 102 l 561 317 q 572 532 572 425 l 606 554 l 663 554 q 708 475 708 554 l 730 475 q 764 622 730 502 q 652 701 764 701 l 584 701 q 346 656 418 656 q 301 724 301 667 q 606 814 301 763 z "},"굘":{"ha":966,"x_min":41,"x_max":911,"o":"m 629 950 q 832 781 781 950 l 832 701 q 730 475 814 557 l 708 475 l 652 486 l 696 758 q 652 825 670 825 l 618 825 q 357 781 511 825 q 256 882 256 798 q 629 950 393 950 m 505 667 q 595 566 587 667 l 584 498 l 595 498 l 584 475 l 595 418 l 584 418 q 595 385 595 397 l 584 362 q 595 305 595 343 l 832 328 q 911 283 911 301 l 911 237 q 595 170 911 197 q 120 102 569 147 q 41 170 68 121 l 41 203 q 63 226 44 226 l 75 226 q 312 260 245 226 l 312 249 q 380 260 329 260 q 244 633 244 385 q 312 656 281 656 q 403 452 396 656 q 437 373 421 452 l 448 373 l 448 418 q 437 475 448 456 q 505 667 437 649 m 561 34 l 572 34 q 764 -68 764 21 q 471 -317 764 -175 l 471 -328 q 595 -374 515 -374 q 787 -283 644 -374 q 844 -374 844 -296 q 595 -498 777 -498 q 323 -317 385 -498 l 335 -317 l 323 -294 l 323 -271 q 448 -193 323 -240 q 572 -91 572 -106 l 550 -91 q 538 -102 538 -91 l 515 -91 q 312 -113 318 -113 q 233 -68 233 -86 l 233 -22 q 561 34 233 34 z "},"굡":{"ha":1045,"x_min":41,"x_max":991,"o":"m 753 927 q 923 781 923 909 q 798 475 923 611 l 764 475 q 708 532 746 475 q 776 769 742 595 l 776 781 l 764 803 l 742 791 l 686 791 q 312 747 347 747 q 244 848 244 760 q 369 893 244 873 l 369 882 l 753 927 m 618 645 q 686 566 686 627 l 686 554 q 674 328 686 481 q 901 339 827 339 q 991 271 974 339 q 945 215 969 220 l 935 215 q 210 124 879 215 l 142 124 q 41 215 41 149 l 41 226 q 369 283 41 254 l 369 294 q 290 610 309 294 q 357 633 327 633 q 459 362 425 633 q 505 294 490 294 q 538 305 526 305 l 538 362 q 561 588 543 588 l 550 610 q 618 645 561 645 m 323 113 l 380 113 q 448 -68 429 113 q 720 0 720 -20 l 720 12 l 708 90 l 742 113 l 764 113 q 855 12 855 74 l 855 0 q 663 -362 855 -246 l 584 -362 q 346 -193 469 -362 q 301 0 301 -79 l 301 45 q 290 56 301 56 q 323 113 304 113 m 527 -181 l 527 -193 q 561 -227 527 -209 q 652 -159 628 -227 l 640 -159 l 527 -181 z "},"굣":{"ha":1057,"x_min":41,"x_max":1002,"o":"m 63 996 l 131 984 l 131 950 l 41 950 l 41 972 q 63 996 44 996 m 787 950 l 821 950 q 945 871 907 950 l 957 803 l 957 769 q 821 486 917 486 q 764 554 764 486 q 787 588 776 588 l 776 610 q 821 814 821 762 l 798 825 q 527 781 774 825 q 459 871 459 812 q 787 950 539 950 m 391 690 q 403 679 391 679 l 403 690 q 448 622 448 679 q 437 509 448 568 q 481 260 459 279 q 561 271 527 271 l 550 430 q 618 645 561 627 q 708 554 708 645 q 686 385 686 448 l 686 294 l 945 294 q 1002 237 964 294 q 787 170 1002 170 q 618 136 618 170 l 640 79 l 606 0 q 855 -181 727 -113 q 935 -260 935 -225 q 901 -328 923 -328 q 572 -136 808 -328 l 561 -136 q 459 -385 533 -150 q 425 -396 437 -396 q 346 -328 363 -374 l 346 -317 q 369 -237 350 -237 l 357 -215 q 505 124 437 12 l 493 124 q 188 102 316 102 q 63 181 63 117 q 97 226 80 226 l 165 226 q 335 237 222 226 q 301 498 301 405 q 391 690 312 690 z "},"구":{"ha":1034,"x_min":41,"x_max":979,"o":"m 696 826 q 821 758 821 797 l 821 713 q 776 532 821 630 q 652 340 747 458 l 652 328 q 923 362 652 353 q 979 271 979 318 q 821 227 928 227 l 798 227 l 798 45 q 844 -283 798 -142 q 787 -351 821 -343 q 686 -192 686 -330 q 652 57 654 -127 l 652 193 l 640 193 q 629 181 629 193 q 618 193 618 181 q 131 113 403 136 q 41 193 41 136 q 357 271 41 258 q 584 317 357 283 q 538 374 546 374 q 686 690 652 603 l 686 701 q 391 622 555 679 q 323 724 323 622 q 696 826 433 792 z "},"국":{"ha":977,"x_min":41,"x_max":923,"o":"m 720 962 q 810 860 810 932 l 810 848 q 708 543 810 726 l 867 543 q 923 509 903 509 l 923 464 q 742 408 923 418 q 720 215 720 262 q 901 91 901 189 q 787 -339 832 -339 l 753 -339 q 686 -283 686 -297 l 686 -237 l 696 -181 l 686 -181 q 753 57 720 -93 l 730 68 q 323 23 415 23 l 278 79 l 278 113 q 606 193 278 152 l 595 249 l 595 385 l 165 305 q 41 418 41 305 q 244 452 60 445 q 561 520 244 464 l 663 826 l 199 701 l 188 701 q 120 769 163 703 l 120 792 q 301 871 120 837 q 720 962 546 962 z "},"군":{"ha":1090,"x_min":41,"x_max":1036,"o":"m 640 928 q 720 758 690 928 l 720 701 q 686 498 720 657 q 935 532 828 532 l 991 532 q 1036 452 1036 513 l 1036 430 q 776 374 1036 410 l 787 328 q 764 -45 764 -9 l 730 -68 q 629 68 629 -68 q 640 79 629 79 l 629 125 q 640 328 640 260 l 629 328 q 131 193 224 193 q 41 283 41 209 q 278 362 41 325 q 505 464 505 427 q 572 758 572 674 l 561 758 q 301 667 309 667 q 244 747 244 701 q 640 928 244 828 m 346 68 l 357 68 q 448 -124 407 56 q 584 -260 497 -260 q 911 -136 882 -158 l 957 -136 q 1002 -226 972 -136 q 629 -407 1002 -283 q 312 -158 405 -407 q 278 23 290 -84 q 346 68 290 68 z "},"굳":{"ha":1158,"x_min":41,"x_max":1104,"o":"m 730 950 l 798 950 q 867 814 867 903 l 867 803 q 832 645 867 686 l 832 610 l 855 610 l 911 622 l 911 610 l 935 622 l 957 622 q 1104 520 1104 622 l 1104 509 q 1059 475 1104 492 q 968 486 978 486 q 832 464 939 486 l 832 203 l 901 203 q 979 113 979 203 l 979 102 q 561 -45 968 73 l 550 -45 l 550 -79 q 652 -215 550 -151 l 652 -227 l 663 -227 q 901 -91 745 -227 l 911 -91 q 991 -193 991 -91 q 753 -362 871 -362 l 674 -362 q 481 -237 579 -362 q 357 -45 425 -78 q 346 0 346 -26 l 346 45 q 708 158 606 113 l 696 181 q 708 192 696 192 l 696 215 l 696 430 l 686 430 q 142 294 517 359 q 41 373 80 294 q 244 452 41 439 q 652 576 588 547 l 708 769 l 708 803 q 323 701 353 701 q 267 791 267 745 l 267 814 q 606 916 267 845 q 730 950 683 950 z "},"굴":{"ha":1169,"x_min":41,"x_max":1115,"o":"m 742 984 l 798 984 q 878 848 847 984 l 878 837 q 810 566 878 739 l 821 566 q 1002 588 950 588 l 1025 588 q 1115 475 1115 588 l 1013 430 l 968 441 q 855 430 909 430 q 844 181 844 203 q 935 45 844 151 q 945 0 945 25 l 945 -22 q 674 -227 920 -102 l 652 -227 l 652 -249 q 720 -260 660 -249 q 1002 -181 927 -181 q 1025 -271 1025 -222 q 753 -408 1025 -341 l 730 -408 q 471 -181 471 -363 l 471 -159 q 696 -45 484 -141 l 730 0 l 618 -12 l 572 -12 q 448 102 448 -12 l 448 124 l 527 136 l 730 136 l 730 147 l 708 181 l 708 283 q 696 294 708 294 l 708 317 l 708 385 q 515 328 515 347 l 493 339 q 131 271 278 271 q 41 362 41 279 l 52 407 l 63 407 q 618 543 618 486 q 686 679 618 569 l 730 837 l 720 837 q 414 735 648 837 q 323 825 323 747 q 742 984 323 918 z "},"굵":{"ha":1339,"x_min":41,"x_max":1285,"o":"m 844 939 l 923 939 q 1036 781 1008 939 l 1036 769 q 957 532 1036 648 l 957 509 l 1013 520 l 1160 520 l 1183 509 l 1183 520 q 1274 418 1241 520 q 1206 373 1262 373 l 1160 373 q 1115 385 1135 373 l 911 351 l 911 203 q 935 34 935 40 l 1081 34 q 1093 45 1093 34 q 1285 -125 1257 45 q 1183 -475 1228 -475 l 1149 -475 q 1070 -418 1093 -475 l 1070 -385 l 1138 -102 l 1115 -102 q 945 -125 1052 -102 q 855 0 881 -125 q 776 226 793 0 l 776 317 q 267 192 717 317 q 120 170 176 170 q 41 226 66 170 l 41 283 q 369 362 41 312 q 471 407 377 383 l 471 396 q 787 486 548 427 q 878 747 787 517 q 889 791 878 772 l 878 791 q 527 645 747 762 l 515 645 q 437 701 461 645 l 437 747 q 844 939 535 857 m 606 -22 q 810 -181 810 -22 l 810 -203 q 584 -374 663 -374 l 584 -396 l 595 -396 q 855 -271 839 -271 l 911 -305 l 901 -328 l 901 -339 q 911 -351 901 -351 q 742 -498 854 -452 q 572 -543 685 -532 q 380 -374 380 -507 l 380 -362 q 618 -170 380 -346 l 618 -159 l 561 -170 l 561 -159 l 538 -170 l 391 -170 q 335 -79 335 -141 l 335 -68 q 369 -34 335 -52 l 391 -34 q 606 -22 498 -34 z "},"굶":{"ha":1328,"x_min":41,"x_max":1274,"o":"m 742 962 q 935 803 935 944 q 878 566 935 714 l 889 566 q 1047 588 1010 588 l 1126 588 q 1217 475 1196 588 q 1104 430 1144 430 q 1059 441 1078 430 q 832 396 943 430 l 832 385 q 878 124 850 358 q 889 113 889 124 q 844 34 858 113 l 821 34 q 720 294 720 109 l 720 328 l 708 351 q 720 362 720 351 q 686 373 697 373 q 188 271 281 271 l 142 271 l 120 283 l 120 271 q 41 362 52 271 l 41 407 q 720 543 256 407 l 708 566 q 787 803 787 743 l 787 814 q 550 758 743 814 l 538 758 q 471 848 471 781 q 742 962 471 917 m 1070 56 l 1093 45 q 1138 56 1112 56 q 1274 -215 1274 13 l 1274 -260 q 1059 -441 1164 -441 l 1013 -441 q 821 -249 821 -392 q 810 -215 821 -215 q 821 -203 810 -203 q 787 -12 821 -150 q 1070 56 884 34 m 572 45 q 787 -102 757 45 q 595 -294 732 -239 l 595 -317 q 753 -271 692 -305 q 810 -317 805 -294 q 798 -351 798 -338 q 810 -362 810 -351 q 561 -464 717 -464 q 369 -305 369 -435 l 369 -294 q 595 -113 412 -239 l 595 -91 l 584 -91 l 403 -102 q 312 -22 340 -102 q 527 45 312 45 l 572 45 m 945 -68 l 945 -113 q 1013 -305 945 -305 l 1036 -305 q 1138 -159 1138 -254 q 1081 -45 1138 -45 q 945 -68 974 -68 z "},"굻":{"ha":1396,"x_min":41,"x_max":1341,"o":"m 979 972 q 1070 825 1070 954 l 1070 781 q 1002 532 1070 711 l 1002 520 l 1036 520 q 1081 532 1061 520 q 1228 430 1228 524 q 1194 385 1211 385 l 1104 385 l 968 373 l 979 294 l 979 136 l 1047 90 l 1093 -34 l 1115 -22 l 1126 -22 q 1138 -34 1138 -22 l 1160 -22 l 1228 -22 q 1319 -125 1308 -22 q 1217 -170 1217 -152 q 1341 -339 1341 -170 q 1149 -520 1272 -520 l 1093 -520 q 979 -418 979 -480 l 901 -294 q 991 -203 901 -272 q 832 -260 899 -227 l 764 -249 l 640 -351 l 652 -351 q 867 -271 830 -271 q 901 -396 901 -315 q 663 -498 749 -498 q 448 -317 479 -498 q 572 -203 448 -279 q 629 -125 629 -156 q 618 -136 618 -125 q 595 -125 595 -136 l 481 -136 l 391 -136 q 346 -91 374 -136 l 346 -34 q 640 12 346 12 q 832 -91 832 12 q 957 -57 957 -71 q 889 56 929 56 q 844 249 844 117 l 844 351 l 120 203 l 109 203 q 41 305 41 218 l 41 317 q 425 418 41 342 q 867 498 729 498 l 867 532 q 855 576 867 557 q 935 825 935 808 q 618 724 758 791 q 493 825 493 724 q 708 916 493 890 q 979 972 827 972 m 1093 -374 l 1115 -374 q 1183 -317 1162 -358 l 1183 -305 l 1160 -305 q 1093 -374 1099 -330 z "},"굼":{"ha":1147,"x_min":41,"x_max":1093,"o":"m 686 939 l 720 939 q 844 724 844 884 q 810 543 844 714 q 844 532 844 543 q 911 554 881 554 l 945 554 q 1093 486 1042 554 q 1002 418 1093 418 l 979 430 q 764 396 880 418 q 810 113 790 183 q 923 -102 923 113 q 957 -294 938 -234 q 787 -441 957 -409 q 595 -475 682 -475 l 572 -475 q 481 -452 562 -475 l 448 -452 q 403 -215 403 -393 l 403 -125 l 391 -57 q 437 22 411 22 l 493 22 l 493 0 q 674 68 652 68 q 652 170 667 170 q 663 181 652 181 q 640 294 652 267 q 652 305 652 294 q 640 317 640 305 l 652 317 q 640 362 640 336 q 176 283 450 317 l 109 283 q 41 317 50 283 l 41 339 l 618 498 q 629 486 618 486 q 720 645 706 645 l 708 667 l 708 803 q 493 713 644 803 l 437 701 l 380 781 l 380 791 q 686 939 427 875 m 538 -113 l 538 -181 q 527 -193 538 -193 l 538 -215 l 538 -317 l 618 -328 q 821 -260 821 -294 l 810 -125 l 810 0 l 538 -113 z "},"굽":{"ha":1147,"x_min":41,"x_max":1093,"o":"m 798 1029 l 810 1029 q 911 962 872 1029 l 911 882 q 798 600 911 787 l 821 600 l 1025 633 q 1093 588 1093 610 l 1093 554 q 1013 509 1093 529 l 1013 520 q 855 441 855 502 q 832 193 832 254 l 844 193 l 832 170 l 832 159 l 844 159 l 889 170 q 968 -11 968 127 l 968 -45 q 720 -373 968 -251 q 391 12 481 -373 l 391 147 l 448 159 l 459 159 q 538 68 538 159 l 527 68 q 572 -56 553 -56 q 821 45 821 14 l 832 68 l 821 68 l 776 57 q 686 237 686 57 l 696 237 l 686 260 l 686 283 q 708 441 686 321 l 696 441 q 142 305 338 334 l 131 305 q 41 340 110 305 l 41 396 q 652 554 81 396 l 663 554 l 652 611 q 764 916 764 856 l 753 916 l 471 769 l 459 769 q 380 848 380 787 q 798 1029 637 1029 m 629 -181 l 629 -192 q 663 -226 629 -208 l 674 -226 q 787 -113 749 -226 l 629 -181 z "}}}
